<?xml version="1.0" encoding="utf-8"?>
<svg xmlns="http://www.w3.org/2000/svg" viewBox="1.676 433.138 135.404 66.25" xmlns:bx="https://boxy-svg.com" width="135.404px" height="66.25px"><defs><bx:export><bx:file format="svg"/></bx:export></defs><path d="M 69.124 499.543 C 68.654 499.409 38.45 487.254 28.041 489.294 C 17.707 491.317 2.322 499.288 1.858 499.512 C 2.226 499.569 27 499.431 40.387 499.512 C 53.88 499.591 69.124 499.543 69.124 499.543 Z" fill="#6F1832"/><path d="M 69.124 499.542 C 68.785 499.193 47.028 477.13 36.989 473.694 C 27.023 470.281 10.611 468.94 10.097 468.898 C 10.397 469.13 29.594 483.906 41.15 490.67 C 52.796 497.487 69.16 499.543 69.16 499.543 L 69.124 499.542 Z" fill="#6F1832"/><path d="M 69.124 499.542 C 69.009 499.066 61.349 469.003 54.376 461.004 C 47.451 453.065 33.91 443.696 33.487 443.407 C 33.626 443.755 42.865 466.148 49.493 477.782 C 56.17 489.507 68.699 499.542 68.699 499.542 L 68.912 499.542 L 69.124 499.542 Z" fill="#6F1832"/><path d="M 69.337 499.542 C 69.47 499.072 77.825 469.136 75.785 458.728 C 73.762 448.394 66.714 433.507 66.49 433.043 C 66.436 433.417 63.24 457.431 63.158 470.818 C 63.08 484.311 69.124 499.542 69.124 499.542 L 69.337 499.542 Z" fill="#6F1832"/><path d="M 69.337 499.542 C 69.686 499.203 92.018 477.482 95.454 467.443 C 98.868 457.478 100.209 441.065 100.25 440.552 C 100.019 440.851 85.242 460.048 78.478 471.604 C 71.662 483.25 69.337 499.542 69.337 499.542 Z" fill="#6F1832"/><path d="M 69.55 499.542 C 70.032 499.424 100.149 491.809 108.148 484.836 C 116.087 477.91 125.455 464.369 125.745 463.947 C 125.397 464.086 103.004 473.324 91.369 479.953 C 79.645 486.629 69.337 499.542 69.337 499.542 L 69.55 499.542 Z" fill="#6F1832"/><path d="M 69.549 499.542 C 70.019 499.676 99.138 499.542 109.356 499.542 C 120.85 499.542 136.777 499.766 137.241 499.542 C 136.873 499.485 112.951 487.703 99.564 487.622 C 86.071 487.543 69.549 499.542 69.549 499.542 Z" fill="#6F1832"/><path d="M 70.974 493.041 C 74.145 502.545 61.161 499.565 54.349 499.99 C 58.136 498.596 61.018 496.16 64.825 494.665 C 64.852 494.888 45.78 496.805 43.847 497.625 C 48.939 495.185 54.124 491.72 59.809 490.971 C 60.064 493.298 45.255 487.263 44.879 487.306 C 49.45 486.205 57.169 481.959 61.57 484.328 C 54.869 479.467 54.856 469.954 47.348 465.405 C 55.181 467.473 68.443 467.511 71.156 477.142 C 70.51 471.237 73.62 463.598 71.209 458.278 C 74.185 462.308 83.425 471.426 79.404 476.714 C 82.129 472.709 87.782 472.664 90.391 468.683 C 89.65 471.834 89.453 475.08 88.74 478.242 C 88.346 480 91.182 479.691 90.295 481.257 C 89.451 482.738 90.855 483.802 90.928 485.663 C 91.025 488.099 87.088 491.655 88.158 493.66 C 89.532 496.245 91.437 498.255 94.155 499.777 C 86.519 495.668 78.019 499.459 70.97 493.047 L 70.974 493.041 Z" fill="#C83155"/><path d="M 58.323 469.895 C 64.059 476.009 69.235 483.23 71.692 491.331 C 68.142 489.844 64.471 488.803 60.731 487.943 C 64.439 489.046 68.05 490.372 71.671 491.733 C 71.772 492.673 58.599 493.914 57.514 494.017 C 62.281 493.748 67.202 493.686 71.79 492.225 C 70.423 494.725 68.029 497.583 65.11 498.258 C 68.373 497.536 70.726 495.269 72.159 492.329 C 74.759 491.258 79.014 492.45 81.421 493.351 C 78.812 491.765 75.566 491.071 72.561 491.853 C 75.932 488.345 79.757 485.072 84.004 482.685 C 83.995 482.598 73.067 490.733 72.279 491.439 C 73.24 490.006 77.802 476.877 77.406 476.922 C 76.513 482.039 74.612 486.543 72.129 491.066 C 69.37 482.954 64.442 475.857 58.329 469.899 L 58.323 469.895 Z" fill="#7B1619"/></svg>