<?xml version="1.0" encoding="utf-8"?>
<svg xmlns="http://www.w3.org/2000/svg" viewBox="-0.38 345.65 190.885 89.973" xmlns:bx="https://boxy-svg.com" width="190.885px" height="89.973px"><defs><bx:export><bx:file format="svg" excluded="true"/></bx:export><bx:export><bx:file format="svg"/></bx:export></defs><path d="M 35.245 433.014 C 41.297 433.745 47.688 429.639 54.262 420.795 C 59.616 413.591 65.132 403.209 70.662 389.94 C 80.062 367.393 86.33 343.958 86.391 343.727 C 86.486 343.375 86.276 343.016 85.924 342.92 C 85.571 342.826 85.212 343.036 85.117 343.387 C 85.056 343.619 78.808 366.978 69.442 389.444 C 63.953 402.613 58.491 412.893 53.198 420.009 C 46.705 428.738 40.518 432.641 34.812 431.605 C 29.038 430.56 23.921 426 19.597 418.057 C 16.087 411.605 13.098 402.944 10.726 392.312 C 6.667 374.156 5.336 343.656 5.323 343.478 C 5.302 343.113 4.823 343.175 4.458 343.189 C 4.092 343.209 4.444 355.851 4.458 356.216 C 4.464 356.393 5.345 374.319 9.432 392.583 C 11.838 403.338 14.867 412.12 18.432 418.68 C 22.959 426.995 28.387 431.781 34.575 432.899 C 34.798 432.94 35.022 432.973 35.245 433.001 L 35.245 433.014 Z" fill="#7A834B"/><path d="M 5.487 360.778 C 5.487 360.778 6.348 363.413 8.07 363.759 C 9.791 364.112 11.56 363.882 11.56 363.882 C 11.56 363.882 10.299 360.723 8.89 360.276 C 7.48 359.829 5.487 360.771 5.487 360.771 L 5.487 360.778 Z" fill="#7A834B"/><path d="M 11.464 398.269 C 11.464 398.269 12.325 400.905 14.046 401.25 C 15.767 401.603 17.536 401.372 17.536 401.372 C 17.536 401.372 16.276 398.214 14.866 397.767 C 13.457 397.319 11.464 398.262 11.464 398.262 L 11.464 398.269 Z" fill="#7A834B"/><path d="M 16.257 413.692 C 16.257 413.692 18.317 415.543 19.984 414.98 C 21.651 414.418 23.068 413.341 23.068 413.341 C 23.068 413.341 20.397 411.24 18.954 411.557 C 17.51 411.877 16.257 413.692 16.257 413.692 Z" fill="#7A834B"/><path d="M 16.839 415.374 C 16.839 415.374 14.758 417.203 15.117 418.925 C 15.477 420.646 16.385 422.178 16.385 422.178 C 16.385 422.178 18.784 419.771 18.641 418.3 C 18.492 416.831 16.839 415.367 16.839 415.367 L 16.839 415.374 Z" fill="#7A834B"/><path d="M 36.18 432.045 C 36.18 432.045 36.553 434.79 38.186 435.447 C 39.819 436.103 41.595 436.199 41.595 436.199 C 41.595 436.199 40.924 432.872 39.616 432.173 C 38.308 431.483 36.18 432.045 36.18 432.045 Z" fill="#7A834B"/><path d="M 37.082 433.17 C 37.082 433.17 39.745 432.411 40.158 430.703 C 40.572 428.995 40.409 427.22 40.409 427.22 C 40.409 427.22 37.21 428.358 36.709 429.754 C 36.207 431.149 37.075 433.177 37.075 433.177 L 37.082 433.17 Z" fill="#7A834B"/><path d="M 52.54 422.651 C 52.54 422.651 54.743 420.971 54.499 419.223 C 54.255 417.48 53.455 415.889 53.455 415.889 C 53.455 415.889 50.893 418.125 50.941 419.602 C 50.988 421.079 52.533 422.651 52.533 422.651 L 52.54 422.651 Z" fill="#7A834B"/><path d="M 63.376 404.009 C 63.376 404.009 64.799 401.473 63.844 399.881 C 62.895 398.288 61.465 397.069 61.465 397.069 C 61.465 397.069 59.927 400.281 60.584 401.697 C 61.242 403.114 63.376 404.009 63.376 404.009 Z" fill="#7A834B"/><path d="M 68.676 391.41 C 68.676 391.41 70.099 388.876 69.144 387.283 C 68.195 385.69 66.765 384.471 66.765 384.471 C 66.765 384.471 65.227 387.682 65.884 389.098 C 66.541 390.516 68.676 391.41 68.676 391.41 Z" fill="#7A834B"/><path d="M 74.327 379.002 C 74.327 379.002 76.97 380.201 78.482 379.124 C 79.993 378.038 81.084 376.521 81.084 376.521 C 81.084 376.521 77.757 375.261 76.394 376.026 C 75.032 376.798 74.327 379.002 74.327 379.002 Z" fill="#7A834B"/><path d="M 80.766 359.389 C 80.766 359.389 81.857 356.697 80.712 355.235 C 79.567 353.771 78.001 352.74 78.001 352.74 C 78.001 352.74 76.876 356.122 77.703 357.444 C 78.53 358.771 80.759 359.389 80.759 359.389 L 80.766 359.389 Z" fill="#7A834B"/><path d="M 83.965 350.619 C 83.965 350.619 84.941 348.519 86.411 348.389 C 87.889 348.261 89.339 348.614 89.339 348.614 C 89.339 348.614 87.984 351.107 86.757 351.345 C 85.537 351.581 83.965 350.619 83.965 350.619 Z" fill="#7A834B"/><path d="M 63.024 403.067 C 63.024 403.067 65.382 404.761 67.077 403.988 C 68.764 403.223 70.14 401.935 70.14 401.935 C 70.14 401.935 67.117 400.05 65.633 400.545 C 64.149 401.04 63.031 403.067 63.031 403.067 L 63.024 403.067 Z" fill="#7A834B"/><path d="M 53.36 421.317 C 53.36 421.317 55.122 423.459 56.857 423.154 C 58.592 422.848 60.151 421.995 60.151 421.995 C 60.151 421.995 57.826 419.514 56.349 419.615 C 54.871 419.718 53.36 421.317 53.36 421.317 Z" fill="#7A834B"/><path d="M 6.077 367.175 C 6.077 367.175 3.312 367.345 2.539 368.923 C 1.766 370.502 1.543 372.271 1.543 372.271 C 1.543 372.271 4.911 371.852 5.704 370.598 C 6.49 369.343 6.083 367.175 6.083 367.175 L 6.077 367.175 Z" fill="#7A834B"/><path d="M 10.509 394.819 C 10.509 394.819 7.744 394.988 6.972 396.567 C 6.199 398.146 5.975 399.915 5.975 399.915 C 5.975 399.915 9.344 399.495 10.137 398.24 C 10.923 396.988 10.516 394.819 10.516 394.819 L 10.509 394.819 Z" fill="#7A834B"/><path d="M 11.907 351.584 C 11.907 351.584 10.763 348.937 8.651 348.28 C 6.538 347.622 4.396 347.502 4.396 347.502 C 4.396 347.502 6.043 350.711 7.778 351.406 C 9.518 352.096 11.907 351.584 11.907 351.584 Z" fill="#7A834B"/><path d="M 5.091 349.934 C 5.091 349.934 2.314 350.703 1.376 352.706 C 0.438 354.709 0.029 356.816 0.029 356.816 C 0.029 356.816 3.431 355.619 4.351 353.997 C 5.271 352.376 5.085 349.93 5.085 349.93 L 5.091 349.934 Z" fill="#7A834B"/><path d="M 115.794 387.581 C 115.794 387.581 114.885 390.949 116.468 392.511 C 118.05 394.073 120.071 395.053 120.071 395.053 C 120.071 395.053 120.918 390.857 119.734 389.408 C 118.55 387.958 115.804 387.581 115.804 387.581 L 115.794 387.581 Z" fill="#3C4713"/><path d="M 70.286 369.971 C 72.572 372.718 75.267 375.157 78.391 377.291 C 86.486 382.813 97.449 386.274 110.985 387.57 C 121.775 388.601 134.219 388.275 147.97 386.59 C 171.356 383.722 189.823 345.87 190.017 345.819 L 188.162 345.819 C 187.968 345.88 169.223 382.732 147.796 385.355 C 126.369 387.979 97.062 388.53 79.095 376.27 C 69.05 369.41 63.446 359.171 62.435 345.819 L 61.19 345.911 C 61.915 355.527 64.967 363.581 70.286 369.982 L 70.286 369.971 Z" fill="#3C4713"/><path d="M 177.865 364.548 C 177.865 364.548 175.753 368.142 177.071 370.435 C 178.389 372.727 180.415 374.494 180.415 374.494 C 180.415 374.494 182.726 369.928 181.818 367.887 C 180.918 365.852 177.863 364.533 177.863 364.533 L 177.857 364.542 L 177.865 364.548 Z" fill="#3C4713"/><path d="M 150.103 385.814 C 150.103 385.814 150.45 389.979 152.849 391.082 C 155.258 392.195 157.922 392.47 157.922 392.47 C 157.922 392.47 157.177 387.407 155.258 386.264 C 153.349 385.12 150.093 385.804 150.093 385.804 L 150.093 385.814 L 150.103 385.814 Z" fill="#3C4713"/><path d="M 115.906 387.397 C 115.906 387.397 113.089 389.459 113.344 391.664 C 113.599 393.869 114.559 395.9 114.559 395.9 C 114.559 395.9 117.846 393.154 117.826 391.286 C 117.805 389.418 115.896 387.397 115.896 387.397 L 115.906 387.397 Z" fill="#3C4713"/><path d="M 62.507 352.219 C 62.507 352.219 59.312 353.618 59.077 355.833 C 58.852 358.038 59.342 360.233 59.342 360.233 C 59.342 360.233 63.14 358.263 63.538 356.435 C 63.926 354.608 62.507 352.219 62.507 352.219 Z" fill="#3C4713"/><path d="M 69.061 367.899 C 69.061 367.899 66.243 369.961 66.498 372.166 C 66.754 374.371 67.713 376.403 67.713 376.403 C 67.713 376.403 71 373.657 70.98 371.788 C 70.959 369.92 69.051 367.899 69.051 367.899 L 69.061 367.899 Z" fill="#3C4713"/><path d="M 88.231 381.966 C 88.231 381.966 85.69 384.355 86.21 386.519 C 86.731 388.673 87.935 390.572 87.935 390.572 C 87.935 390.572 90.855 387.448 90.61 385.59 C 90.365 383.742 88.221 381.966 88.221 381.966 L 88.231 381.966 Z" fill="#3C4713"/><path d="M 88.425 381.864 C 88.425 381.864 84.944 382.14 84.005 384.151 C 83.066 386.162 82.821 388.397 82.821 388.397 C 82.821 388.397 87.057 387.785 88.027 386.182 C 88.997 384.579 88.435 381.864 88.435 381.864 L 88.425 381.864 Z" fill="#3C4713"/><path d="M 136.843 387.672 C 136.843 387.672 136.057 384.886 137.343 383.579 C 138.63 382.272 140.304 381.435 140.304 381.435 C 140.304 381.435 141.049 384.906 140.089 386.121 C 139.13 387.336 136.843 387.672 136.843 387.672 Z" fill="#3C4713"/><path d="M 72.051 371.197 C 72.051 371.197 74.001 368.144 76.308 368.267 C 78.605 368.389 80.769 369.257 80.769 369.257 C 80.769 369.257 78.135 372.84 76.206 372.942 C 74.277 373.044 72.061 371.197 72.061 371.197 L 72.051 371.197 Z" fill="#3C4713"/><path d="M 181.241 358.322 C 181.241 358.322 178.641 355.057 176.025 355.464 C 173.4 355.875 171.038 357.129 171.038 357.129 C 171.038 357.129 174.474 360.922 176.704 360.813 C 178.934 360.703 181.25 358.317 181.25 358.317 L 181.241 358.322 Z" fill="#3C4713"/><path d="M 60.919 345.721 C 60.584 345.816 39.069 354.474 31.654 353.021 C 24.293 351.58 13.334 345.902 13.004 345.743 C 13.266 345.702 30.913 345.801 40.449 345.743 C 50.06 345.687 60.919 345.721 60.919 345.721 Z" fill="#6F1832"/><path d="M 60.919 345.721 C 60.677 345.97 45.179 361.686 38.028 364.134 C 30.93 366.565 19.238 367.521 18.873 367.55 C 19.086 367.385 32.76 356.859 40.992 352.041 C 49.288 347.186 60.945 345.721 60.945 345.721 L 60.919 345.721 Z" fill="#6F1832"/><path d="M 60.919 345.721 C 60.837 346.06 55.381 367.476 50.414 373.173 C 45.481 378.829 35.835 385.502 35.534 385.708 C 35.633 385.46 42.214 369.509 46.936 361.222 C 51.691 352.87 60.616 345.722 60.616 345.722 L 60.768 345.722 L 60.919 345.721 Z" fill="#6F1832"/><path d="M 61.071 345.721 C 61.166 346.056 67.117 367.38 65.664 374.795 C 64.223 382.156 59.203 392.761 59.044 393.091 C 59.005 392.825 56.728 375.718 56.67 366.182 C 56.614 356.571 60.92 345.721 60.92 345.721 L 61.071 345.721 Z" fill="#6F1832"/><path d="M 61.071 345.721 C 61.32 345.963 77.228 361.436 79.676 368.587 C 82.107 375.685 83.062 387.377 83.092 387.742 C 82.927 387.528 72.401 373.854 67.583 365.622 C 62.727 357.327 61.071 345.721 61.071 345.721 Z" fill="#6F1832"/><path d="M 61.223 345.721 C 61.566 345.806 83.019 351.23 88.717 356.197 C 94.372 361.131 101.045 370.776 101.251 371.077 C 101.004 370.978 85.053 364.397 76.765 359.676 C 68.413 354.92 61.071 345.721 61.071 345.721 L 61.223 345.721 Z" fill="#6F1832"/><path d="M 61.223 345.721 C 61.558 345.626 82.3 345.721 89.578 345.721 C 97.766 345.721 109.111 345.562 109.442 345.721 C 109.179 345.762 92.139 354.155 82.603 354.213 C 72.992 354.269 61.223 345.721 61.223 345.721 Z" fill="#6F1832"/><path d="M 64.915 351.305 C 67.174 344.535 57.925 346.658 53.072 346.355 C 55.77 347.348 57.823 349.083 60.535 350.148 C 60.554 349.989 46.968 348.624 45.592 348.04 C 49.219 349.778 52.912 352.246 56.962 352.779 C 57.143 351.122 46.594 355.42 46.327 355.39 C 49.583 356.174 55.081 359.198 58.216 357.511 C 53.443 360.974 53.433 367.75 48.085 370.991 C 53.665 369.517 63.112 369.49 65.044 362.63 C 64.584 366.836 66.8 372.278 65.082 376.067 C 67.202 373.197 73.784 366.701 70.92 362.935 C 72.861 365.788 76.887 365.82 78.746 368.655 C 78.219 366.411 78.078 364.099 77.57 361.847 C 77.29 360.594 79.31 360.814 78.678 359.699 C 78.077 358.644 79.077 357.886 79.129 356.56 C 79.198 354.825 76.393 352.292 77.155 350.864 C 78.134 349.023 79.492 347.59 81.427 346.506 C 75.988 349.433 69.933 346.733 64.912 351.3 L 64.915 351.305 Z" fill="#C83155"/><path d="M 54.961 367.342 C 59.047 362.987 62.735 357.843 64.485 352.073 C 61.956 353.132 59.34 353.874 56.676 354.486 C 59.318 353.7 61.89 352.756 64.47 351.787 C 64.541 351.117 55.158 350.233 54.385 350.159 C 57.781 350.351 61.286 350.395 64.554 351.436 C 63.581 349.655 61.876 347.619 59.796 347.139 C 62.121 347.653 63.796 349.267 64.817 351.362 C 66.669 352.125 69.701 351.276 71.415 350.633 C 69.556 351.764 67.244 352.258 65.103 351.701 C 67.505 354.2 70.229 356.531 73.255 358.231 C 73.248 358.293 65.464 352.498 64.903 351.995 C 65.587 353.016 68.837 362.369 68.555 362.336 C 67.918 358.692 66.564 355.483 64.796 352.261 C 62.831 358.04 59.32 363.095 54.965 367.339 L 54.961 367.342 Z" fill="#7B1619"/></svg>