<svg width="114" height="154" viewBox="0 0 114 154" fill="none" xmlns="http://www.w3.org/2000/svg">
<path d="M32.8473 67.7093C39.9798 65.7541 44.1767 58.3871 42.2215 51.2547C40.2663 44.1223 32.8993 39.9254 25.7669 41.8806C18.6345 43.8358 14.4375 51.2027 16.3928 58.3351C18.348 65.4676 25.7149 69.6645 32.8473 67.7093Z" fill="black"/>
<rect x="26.4873" y="21.4868" width="7.30408" height="31.651" transform="rotate(-15.3299 26.4873 21.4868)" fill="black"/>
<rect x="24.5566" y="14.4426" width="45.3423" height="14.6082" rx="2" transform="rotate(-15.3299 24.5566 14.4426)" fill="black"/>
<path d="M69.9416 112.821C74.8394 114.228 79.9503 111.398 81.3572 106.5C82.764 101.602 79.934 96.4911 75.0362 95.0842C70.1384 93.6774 65.0275 96.5074 63.6207 101.405C62.2138 106.303 65.0438 111.414 69.9416 112.821Z" fill="black"/>
<rect x="82.7715" y="83.3428" width="5.03283" height="21.8089" transform="rotate(16.0261 82.7715 83.3428)" fill="black"/>
<rect x="84.1621" y="78.5056" width="16.4879" height="10.0657" rx="2" transform="rotate(16.0261 84.1621 78.5056)" fill="black"/>
<path d="M48.2314 148.873C51.8984 147.193 53.5089 142.858 51.8286 139.191C50.1483 135.524 45.8135 133.913 42.1465 135.594C38.4795 137.274 36.869 141.609 38.5493 145.276C40.2296 148.943 44.5645 150.553 48.2314 148.873Z" fill="black"/>
<rect x="40.7393" y="124.553" width="3.98375" height="17.2629" transform="rotate(-24.6186 40.7393 124.553)" fill="black"/>
<rect x="39.0801" y="120.931" width="13.051" height="7.9675" rx="2" transform="rotate(-24.6186 39.0801 120.931)" fill="black"/>
<path d="M69.3913 57.6069C76.5237 55.6517 80.7206 48.2847 78.7654 41.1523C76.8102 34.0199 69.4433 29.8229 62.3109 31.7781C55.1784 33.7333 50.9815 41.1003 52.9367 48.2327C54.8919 55.3651 62.2589 59.5621 69.3913 57.6069Z" fill="black"/>
<rect x="63.0312" y="11.3844" width="7.30408" height="31.651" transform="rotate(-15.3299 63.0312 11.3844)" fill="black"/>
</svg>
