<?xml version="1.0" encoding="utf-8"?>
<svg xmlns="http://www.w3.org/2000/svg" viewBox="433.137 433.138 112.69 192.735" xmlns:bx="https://boxy-svg.com" width="112.69px" height="192.735px"><defs><bx:export><bx:file format="svg"/></bx:export></defs><path d="M 545.069 433.434 L 546.843 434.67 C 546.734 434.812 536.493 449.604 531.704 464.898 C 529.487 471.992 528.962 483.257 528.364 496.302 C 527.661 511.554 526.862 528.845 523.088 544.205 C 516.166 572.356 498.422 607.9 498.243 608.257 L 496.309 607.288 C 496.483 606.936 514.128 571.602 520.988 543.689 C 524.716 528.536 525.506 511.359 526.202 496.206 C 526.81 483.012 527.332 471.616 529.642 464.255 C 534.534 448.633 544.972 433.584 545.075 433.438 L 545.069 433.434 Z" fill="#51651B"/><path d="M 491.567 612.406 C 488.54 617.017 486.532 622.955 488.72 628.016 C 489.042 624.348 492.893 622.238 495.399 619.54 C 497.507 617.273 498.719 614.39 499.529 611.442 C 499.99 609.776 501.961 604.192 501.204 602.625 C 499.931 599.987 492.674 610.767 491.567 612.406 Z" fill="#51651B"/><path d="M 514.003 597.673 C 513.791 596.558 513.562 595.421 512.991 594.447 C 511.47 591.862 507.983 591.055 506.213 588.626 C 506.364 591.427 506.126 595.177 507.501 597.624 C 508.176 598.824 508.982 599.944 509.633 601.152 C 510.584 602.92 512.226 603.874 512.825 605.796 C 513.623 608.374 514.416 614.896 516.597 616.436 C 516.542 613.284 515.971 610.059 515.532 606.933 C 515.216 604.699 513.355 599.741 514.003 597.673 Z" fill="#51651B"/><path d="M 493.108 601.39 C 489.048 603.028 484.637 604.467 481.814 607.815 C 483.867 603.877 486.482 600.145 490.007 597.43 C 491.863 596.002 499.308 591.559 501.66 593.827 C 504.237 596.311 494.867 600.675 493.102 601.385 L 493.108 601.39 Z" fill="#51651B"/><path d="M 499.691 588.76 C 496.316 589.572 492.705 589.796 489.722 591.566 C 488.117 592.519 486.79 593.868 485.485 595.199 C 486.27 593.721 487.647 592.67 488.757 591.424 C 490.028 589.989 490.95 588.287 492.073 586.73 C 493.196 585.173 494.596 583.717 496.413 583.098 C 498.375 582.435 505.052 582.618 506.486 584.331 C 508.493 586.733 501.397 588.343 499.695 588.755 L 499.691 588.76 Z" fill="#51651B"/><path d="M 520.092 593.681 C 518.899 590.42 520.27 586.672 519.204 583.37 C 518.546 581.333 517.029 579.704 515.484 578.227 C 514.433 577.223 513.344 576.259 512.215 575.335 C 512.433 580.628 513.975 585.776 515.502 590.852 C 515.819 591.908 516.137 592.975 516.65 593.957 C 518.049 596.656 520.691 598.453 522.666 600.762 C 522.154 600.163 522.323 598.369 522.068 597.594 C 521.614 596.207 520.597 595.047 520.096 593.676 L 520.092 593.681 Z" fill="#51651B"/><path d="M 507.7 578.401 C 506.072 579.181 504.198 579.219 502.394 579.302 C 496.694 579.563 490.735 580.604 486.323 584.217 C 488.618 581.028 491.976 578.723 495.561 577.128 C 499.152 575.538 502.998 574.61 506.833 573.752 C 508.148 573.46 511.288 572.391 511.534 574.355 C 511.708 575.735 508.733 577.901 507.7 578.401 Z" fill="#51651B"/><path d="M 511.187 568.667 C 509.831 569.127 508.375 569.173 506.947 569.284 C 503.802 569.535 500.69 570.115 497.589 570.703 C 495.665 571.066 493.746 571.424 491.827 571.792 C 490.511 572.04 489.126 572.322 488.143 573.233 C 489.034 571.446 490.737 570.229 492.37 569.08 C 493.9 568.009 495.459 566.924 497.237 566.354 C 499.731 565.552 502.432 565.836 505.018 565.434 C 507.84 564.995 510.604 563.647 513.495 563.695 C 518.028 563.77 513.226 567.984 511.189 568.676 L 511.187 568.667 Z" fill="#51651B"/><path d="M 517.193 572.952 C 518.383 574.452 519.913 575.632 521.365 576.882 C 526.164 581.032 530.116 586.154 532.923 591.845 C 531.862 586.442 530.127 581.173 527.755 576.205 C 527.122 574.871 526.436 573.549 525.496 572.414 C 523.788 570.344 521.361 569.023 519 567.752 C 514.191 565.163 515.141 570.359 517.193 572.952 Z" fill="#51651B"/><path d="M 506.333 560.264 C 501.516 560.933 496.51 560.808 491.979 562.563 C 494.066 561.354 495.924 559.797 498 558.58 C 499.805 557.511 501.758 556.702 503.703 555.904 C 506.884 554.589 510.074 553.272 513.255 551.957 C 516.701 550.533 520.442 552.323 517.084 555.668 C 514.246 558.493 510.21 559.725 506.338 560.269 L 506.333 560.264 Z" fill="#51651B"/><path d="M 519.459 544.952 C 515.946 546.464 512.228 547.497 508.44 548.01 C 506.536 548.268 504.606 548.401 502.79 549.02 C 500.129 549.928 497.842 551.841 495.075 552.355 C 496.644 551.097 498.223 549.838 499.793 548.579 C 501.602 547.132 503.467 545.658 505.671 544.929 C 508.584 543.963 511.921 544.379 514.598 542.885 C 515.927 542.144 517.049 540.951 518.532 540.631 C 522.559 539.773 522.842 543.498 519.455 544.958 L 519.459 544.952 Z" fill="#51651B"/><path d="M 519.567 536.348 C 517.259 537.552 514.664 538.068 512.127 538.655 C 506.376 539.978 500.719 541.71 495.213 543.835 C 500.07 540.511 504.238 538.471 507.503 533.574 C 508.542 532.013 511.232 530.219 512.828 529.232 C 514.923 527.943 517.592 528.236 520.031 528.579 C 522.306 528.9 524.634 527.625 524.449 530.627 C 524.297 533.11 521.569 535.317 519.577 536.356 L 519.567 536.348 Z" fill="#51651B"/><path d="M 522.127 522.38 C 520.513 523.266 518.692 523.665 516.908 524.118 C 512.143 525.329 507.494 527.001 503.038 529.099 C 501.192 529.972 499.331 530.955 498.007 532.514 C 499.389 527.734 504.056 524.794 508.365 522.299 C 511.559 520.447 514.752 518.596 517.945 516.744 C 518.537 516.401 519.139 516.056 519.799 515.894 C 521.172 515.56 524.46 516.379 525.146 517.814 C 525.975 519.548 523.554 521.602 522.119 522.391 L 522.127 522.38 Z" fill="#51651B"/><path d="M 524.151 508.945 C 523.013 509.685 521.675 510.029 520.385 510.436 C 517.744 511.272 515.202 512.409 512.664 513.541 C 507.751 515.739 502.76 517.981 498.689 521.499 C 500.011 517.929 503.299 515.535 506.418 513.35 C 509.762 511.008 513.106 508.665 516.449 506.322 C 517.818 505.361 519.233 504.383 520.851 503.967 C 522.08 503.652 525.405 503.313 526.26 504.583 C 527.208 505.993 525.235 508.242 524.151 508.945 Z" fill="#51651B"/><path d="M 534.071 575.705 C 532.942 574.035 531.802 572.356 530.398 570.909 C 529.08 569.554 527.55 568.417 526.145 567.142 C 524.599 565.733 523.217 564.156 521.831 562.584 C 520.623 561.208 519.388 559.778 518.79 558.047 C 518.197 556.311 518.398 554.17 519.766 552.948 C 523.149 554.628 526.157 556.966 529.144 559.287 C 530.083 560.006 531.026 560.754 531.705 561.724 C 532.297 562.567 532.667 563.544 533.017 564.513 C 534.752 569.306 537.415 575.173 537.695 580.272 C 536.425 580.244 534.81 576.799 534.06 575.697 L 534.071 575.705 Z" fill="#51651B"/><path d="M 530.116 553.103 C 528.293 551.638 526.147 550.593 524.456 548.978 C 522.765 547.363 521.568 544.888 522.371 542.696 C 525.578 542.57 528.293 544.951 530.413 547.363 C 533.84 551.26 540.166 558.225 541.153 563.475 C 538.319 561.089 536.849 561.142 536.023 560.016 C 534.231 557.57 532.504 555.018 530.11 553.099 L 530.116 553.103 Z" fill="#51651B"/><path d="M 539.635 548.308 C 536.697 545.651 533.427 543.373 530.558 540.648 C 527.684 537.92 525.175 534.613 524.304 530.75 C 528.373 531.769 532.538 533.243 535.367 536.335 C 536.699 537.797 537.663 539.548 538.618 541.275 C 539.848 543.516 541.076 545.747 542.306 547.987 C 543.16 549.542 545.479 552.383 545.307 554.079 C 543.296 552.34 541.631 550.113 539.639 548.302 L 539.635 548.308 Z" fill="#51651B"/><path d="M 543.482 531.574 C 538.203 527.472 530.459 526.342 526.933 520.663 C 526.309 519.657 525.894 518.23 526.717 517.371 C 531.001 518.416 535.148 520.014 539.028 522.118 C 541.402 523.407 543.723 524.924 545.389 527.058 C 546.548 528.542 547.346 530.271 548.133 531.982 C 549.354 534.64 550.865 537.555 551.109 540.505 C 549.724 539.973 548.78 537.483 547.882 536.258 C 546.611 534.524 545.188 532.897 543.492 531.573 L 543.482 531.574 Z" fill="#51651B"/><path d="M 530.569 510.403 C 532.515 511.832 534.916 512.475 537.203 513.255 C 544.845 515.875 551.81 520.445 557.263 526.412 C 556.313 523.546 555.193 520.653 553.182 518.404 C 551.834 516.895 550.125 515.734 548.785 514.214 C 547.416 512.664 546.443 510.767 544.864 509.437 C 543.505 508.292 541.797 507.661 540.126 507.049 C 536.841 505.841 533.381 504.5 529.848 504.342 C 525.622 504.147 528.542 508.92 530.565 510.408 L 530.569 510.403 Z" fill="#51651B"/><path d="M 523.366 498.79 C 520.779 499.771 517.917 499.651 515.228 500.312 C 509.19 501.796 504.805 506.936 499.276 509.779 C 502.312 504.897 506.749 501.07 511.113 497.326 C 512.254 496.346 513.404 495.364 514.676 494.562 C 517.053 493.065 521.144 491.476 524.016 492.194 C 527.988 493.182 526.369 497.651 523.366 498.79 Z" fill="#51651B"/><path d="M 520.066 485.541 C 512.887 489.001 505.572 492.175 498.149 495.05 C 499.485 492.66 500.847 490.247 502.766 488.295 C 507.717 483.276 515.594 482.117 520.641 477.199 C 522.487 475.399 526.77 471.896 527.221 476.546 C 527.606 480.513 523.076 484.087 520.066 485.541 Z" fill="#51651B"/><path d="M 510.127 475.784 C 508.345 476.222 506.312 476.615 505.321 478.159 C 507.124 474.898 511.09 473.542 513.682 470.858 C 515.131 469.361 516.121 467.468 517.543 465.95 C 519.936 463.39 523.326 462.062 526.639 460.925 C 527.718 460.556 528.911 460.197 529.984 460.594 C 535.058 462.486 524.666 468.639 523.228 469.6 C 519.2 472.294 514.865 474.63 510.121 475.78 L 510.127 475.784 Z" fill="#51651B"/><path d="M 551.269 431.094 L 552.115 432.714 C 551.978 432.778 538.513 439.86 528.939 449.452 C 524.501 453.903 519.7 462.142 514.148 471.688 C 507.654 482.847 500.289 495.497 491.45 505.536 C 475.247 523.932 448.038 543.635 447.765 543.833 L 446.694 542.35 C 446.962 542.154 474.014 522.569 490.078 504.328 C 498.801 494.426 506.114 481.858 512.565 470.771 C 518.183 461.117 523.033 452.778 527.645 448.163 C 537.424 438.366 551.137 431.168 551.272 431.099 L 551.269 431.094 Z" fill="#51651B"/><path d="M 441.136 544.332 C 437.062 546.605 433.234 550.27 432.894 554.921 C 434.571 552.297 438.283 552.222 441.218 551.18 C 443.685 550.305 445.721 548.618 447.482 546.725 C 448.479 545.657 452.142 542.241 452.187 540.77 C 452.265 538.295 442.607 543.537 441.136 544.332 Z" fill="#51651B"/><path d="M 463.72 542.065 C 463.998 541.146 464.27 540.204 464.224 539.25 C 464.095 536.718 461.797 534.748 461.42 532.235 C 460.438 534.394 458.792 537.112 458.865 539.484 C 458.901 540.648 459.067 541.803 459.083 542.964 C 459.104 544.661 459.962 546.019 459.659 547.694 C 459.249 549.938 457.291 555.138 458.324 557.146 C 459.516 554.762 460.35 552.12 461.243 549.605 C 461.88 547.806 462.426 543.362 463.72 542.065 Z" fill="#51651B"/><path d="M 446.601 536.675 C 442.916 536.315 439.047 535.668 435.621 537.073 C 438.7 534.925 442.12 533.15 445.825 532.494 C 447.776 532.149 455.095 531.732 455.971 534.352 C 456.931 537.222 448.2 536.828 446.599 536.67 L 446.601 536.675 Z" fill="#51651B"/><path d="M 456.479 529.784 C 453.631 529.072 450.837 527.828 447.908 527.987 C 446.331 528.074 444.809 528.566 443.31 529.053 C 444.476 528.253 445.919 528.003 447.239 527.503 C 448.754 526.925 450.111 526.01 451.561 525.282 C 453.012 524.554 454.633 524.01 456.236 524.257 C 457.967 524.528 462.901 527.277 463.306 529.122 C 463.87 531.708 457.921 530.139 456.484 529.782 L 456.479 529.784 Z" fill="#51651B"/><path d="M 469.846 541.454 C 470.227 538.542 472.722 536.268 473.215 533.376 C 473.518 531.591 473.019 529.777 472.438 528.065 C 472.043 526.902 471.604 525.753 471.119 524.618 C 469.211 528.672 468.353 533.134 467.512 537.537 C 467.336 538.453 467.158 539.377 467.158 540.314 C 467.151 542.884 468.428 545.266 469.005 547.769 C 468.856 547.12 469.685 545.841 469.797 545.16 C 469.999 543.943 469.691 542.675 469.851 541.451 L 469.846 541.454 Z" fill="#51651B"/><path d="M 466.536 525.151 C 465.01 525.099 463.59 524.395 462.205 523.751 C 457.83 521.716 452.955 520.165 448.234 521.148 C 451.202 519.654 454.622 519.24 457.933 519.448 C 461.248 519.66 464.493 520.47 467.704 521.327 C 468.804 521.623 471.577 522.049 470.993 523.618 C 470.583 524.72 467.505 525.18 466.536 525.151 Z" fill="#51651B"/><path d="M 472.957 519.217 C 471.76 519.031 470.65 518.496 469.537 518.021 C 467.08 516.978 464.521 516.195 461.966 515.423 C 460.381 514.943 458.802 514.46 457.22 513.985 C 456.137 513.656 454.988 513.326 453.895 513.624 C 455.262 512.634 457.014 512.387 458.688 512.165 C 460.255 511.96 461.847 511.757 463.404 512.025 C 465.587 512.4 467.501 513.67 469.597 514.38 C 471.884 515.155 474.484 515.226 476.632 516.393 C 480.001 518.223 474.752 519.503 472.954 519.225 L 472.957 519.217 Z" fill="#51651B"/><path d="M 475.783 524.779 C 476.088 526.369 476.774 527.853 477.373 529.357 C 479.347 534.347 480.306 539.733 480.183 545.097 C 481.502 540.632 482.263 536.003 482.428 531.35 C 482.475 530.103 482.479 528.843 482.218 527.624 C 481.748 525.405 480.445 523.465 479.172 521.588 C 476.58 517.765 475.259 522.033 475.783 524.779 Z" fill="#51651B"/><path d="M 472.606 511.02 C 468.733 509.637 465.029 507.584 460.947 507.127 C 462.984 507.037 464.986 506.597 467.018 506.496 C 468.79 506.401 470.571 506.559 472.341 506.722 C 475.24 506.98 478.147 507.242 481.046 507.5 C 484.187 507.781 486.291 510.586 482.465 511.78 C 479.232 512.787 475.724 512.132 472.609 511.025 L 472.606 511.02 Z" fill="#51651B"/><path d="M 488.437 504.676 C 485.212 504.435 482.02 503.754 478.98 502.657 C 477.452 502.105 475.953 501.45 474.349 501.204 C 471.999 500.843 469.536 501.382 467.26 500.685 C 468.929 500.356 470.606 500.03 472.275 499.7 C 474.198 499.324 476.172 498.948 478.11 499.264 C 480.672 499.68 483.011 501.297 485.602 501.224 C 486.888 501.189 488.196 500.733 489.433 501.074 C 492.788 502.005 491.543 504.909 488.432 504.679 L 488.437 504.676 Z" fill="#51651B"/><path d="M 491.884 498.268 C 489.683 498.268 487.535 497.639 485.404 497.087 C 480.575 495.829 475.657 494.914 470.697 494.352 C 475.639 493.761 479.562 493.863 483.926 491.468 C 485.315 490.705 488.034 490.412 489.617 490.296 C 491.692 490.15 493.577 491.414 495.272 492.626 C 496.852 493.756 499.096 493.711 497.782 495.889 C 496.698 497.691 493.788 498.278 491.889 498.278 L 491.884 498.268 Z" fill="#51651B"/><path d="M 499.269 488.798 C 497.712 488.831 496.191 488.418 494.676 488.059 C 490.63 487.103 486.49 486.537 482.329 486.367 C 480.604 486.299 478.824 486.308 477.221 486.959 C 480.127 483.916 484.777 483.538 488.984 483.353 C 492.102 483.214 495.22 483.076 498.338 482.937 C 498.917 482.911 499.503 482.888 500.061 483.025 C 501.221 483.312 503.366 485.213 503.319 486.556 C 503.261 488.181 500.643 488.773 499.258 488.803 L 499.269 488.798 Z" fill="#51651B"/><path d="M 506.042 479.517 C 504.899 479.627 503.762 479.361 502.635 479.162 C 500.328 478.755 497.977 478.613 495.632 478.469 C 491.089 478.194 486.47 477.922 482.042 478.967 C 484.429 476.808 487.831 476.299 491.024 475.882 C 494.447 475.434 497.871 474.986 501.294 474.538 C 502.696 474.352 504.14 474.173 505.515 474.494 C 506.56 474.739 509.185 475.786 509.329 477.073 C 509.488 478.5 507.129 479.414 506.042 479.517 Z" fill="#51651B"/><path d="M 487.358 533.447 C 487.165 531.753 486.967 530.048 486.481 528.414 C 486.023 526.882 485.321 525.432 484.766 523.926 C 484.159 522.265 483.74 520.542 483.316 518.821 C 482.948 517.317 482.582 515.762 482.811 514.23 C 483.046 512.696 484.034 511.17 485.538 510.789 C 487.417 513.372 488.757 516.302 490.088 519.211 C 490.511 520.117 490.925 521.047 491.054 522.039 C 491.169 522.904 491.064 523.78 490.947 524.643 C 490.373 528.916 490.073 534.356 488.288 538.288 C 487.347 537.771 487.484 534.556 487.354 533.436 L 487.358 533.447 Z" fill="#51651B"/><path d="M 493.238 514.957 C 492.445 513.145 491.245 511.523 490.609 509.65 C 489.973 507.778 490.045 505.454 491.504 504.125 C 493.957 505.285 495.061 508.133 495.707 510.77 C 496.751 515.032 498.769 522.729 497.454 527.051 C 496.263 524.154 495.141 523.618 494.962 522.45 C 494.576 519.916 494.279 517.327 493.236 514.952 L 493.238 514.957 Z" fill="#51651B"/><path d="M 502.25 515.085 C 501.087 511.945 499.527 508.957 498.442 505.792 C 497.355 502.622 496.768 499.161 497.626 495.924 C 500.278 498.281 502.824 501.015 503.735 504.44 C 504.162 506.057 504.199 507.747 504.239 509.416 C 504.284 511.576 504.332 513.729 504.378 515.89 C 504.41 517.39 505.037 520.428 504.245 521.631 C 503.417 519.54 503.04 517.22 502.256 515.083 L 502.25 515.085 Z" fill="#51651B"/><path d="M 511.681 504.045 C 509.328 498.905 503.965 495.028 503.544 489.391 C 503.469 488.392 503.716 487.161 504.67 486.838 C 507.472 489.298 509.956 492.118 512.041 495.214 C 513.317 497.109 514.463 499.154 514.878 501.406 C 515.165 502.972 515.088 504.58 515.008 506.171 C 514.883 508.642 514.875 511.417 513.904 513.725 C 513.074 512.784 513.341 510.548 513.146 509.278 C 512.873 507.481 512.442 505.705 511.689 504.048 L 511.681 504.045 Z" fill="#51651B"/><path d="M 510.284 483.122 C 511.184 484.955 512.732 486.376 514.141 487.856 C 518.845 492.811 522.279 498.961 524.032 505.568 C 524.441 503.048 524.733 500.441 524.106 497.968 C 523.686 496.309 522.859 494.77 522.449 493.107 C 522.029 491.409 522.042 489.606 521.378 487.991 C 520.807 486.601 519.774 485.46 518.761 484.347 C 516.771 482.157 514.701 479.798 512.114 478.296 C 509.023 476.497 509.344 481.218 510.279 483.124 L 510.284 483.122 Z" fill="#51651B"/><path d="M 509.427 471.599 C 507.103 471.322 505.005 470.112 502.731 469.556 C 497.624 468.306 492.325 470.443 487.068 470.412 C 491.254 467.939 496.078 466.806 500.814 465.707 C 502.053 465.419 503.299 465.133 504.566 465.029 C 506.934 464.836 510.623 465.246 512.495 466.908 C 515.086 469.203 512.124 471.919 509.427 471.599 Z" fill="#51651B"/><path d="M 512.137 460.375 C 505.402 460.16 498.676 459.678 491.987 458.928 C 493.923 457.659 495.888 456.383 498.091 455.671 C 503.766 453.845 510.124 456.059 515.832 454.346 C 517.921 453.719 522.502 452.769 521.021 456.431 C 519.757 459.555 514.963 460.463 512.137 460.375 Z" fill="#51651B"/><path d="M 508.503 449.171 C 506.997 448.802 505.319 448.301 503.971 449.071 C 506.6 447.332 510.103 447.867 513.096 446.869 C 514.769 446.314 516.251 445.282 517.911 444.7 C 520.707 443.718 523.768 444.048 526.696 444.492 C 527.649 444.638 528.685 444.835 529.334 445.553 C 532.397 448.956 522.198 449.503 520.745 449.661 C 516.671 450.104 512.507 450.16 508.501 449.166 L 508.503 449.171 Z" fill="#51651B"/></svg>