<svg width="43" height="42" viewBox="0 0 43 42" fill="none" xmlns="http://www.w3.org/2000/svg">
<g id="ig">
<path id="Vector" d="M21.5001 0C15.661 0 14.9288 0.0241951 12.6356 0.126352C10.3471 0.228322 8.78424 0.583371 7.41664 1.10241C6.00282 1.63908 4.80382 2.35718 3.60859 3.52461C2.4133 4.69204 1.67811 5.86329 1.12872 7.24422C0.597197 8.57996 0.233822 10.1065 0.129297 12.3417C0.0247072 14.5816 0 15.2968 0 21.0001C0 26.7032 0.0247072 27.4184 0.129297 29.6583C0.233822 31.8935 0.597197 33.42 1.12872 34.7558C1.67817 36.1367 2.41337 37.3078 3.60859 38.4754C4.80389 39.6428 6.00282 40.3609 7.41664 40.8976C8.78424 41.4166 10.3471 41.7716 12.6356 41.8736C14.9288 41.9758 15.661 42 21.5001 42C27.339 42 28.0712 41.9758 30.3644 41.8736C32.6529 41.7717 34.2158 41.4166 35.5833 40.8976C36.9971 40.3609 38.1961 39.6428 39.3915 38.4754C40.5867 37.3078 41.3219 36.1367 41.8713 34.7558C42.4027 33.42 42.7662 31.8935 42.8706 29.6583C42.9752 27.4184 43 26.7032 43 21.0001C43 15.2968 42.9752 14.5816 42.8706 12.3417C42.7662 10.1065 42.4027 8.57996 41.8713 7.24422C41.3219 5.86329 40.5867 4.69204 39.3915 3.52461C38.1961 2.35718 36.9971 1.63908 35.5833 1.10241C34.2158 0.583371 32.6529 0.228322 30.3644 0.126352C28.0712 0.0241951 27.339 0 21.5001 0ZM21.5001 3.78376C27.2407 3.78376 27.9207 3.8052 30.1878 3.90623C32.2841 3.99957 33.4225 4.34168 34.18 4.62927C35.1837 5.01027 35.8999 5.46529 36.6522 6.20014C37.4046 6.935 37.8704 7.6346 38.2605 8.61478C38.5549 9.35476 38.9052 10.4667 39.0008 12.5142C39.1042 14.7286 39.1262 15.3928 39.1262 21C39.1262 26.6072 39.1042 27.2714 39.0008 29.4858C38.9052 31.5333 38.5549 32.6452 38.2605 33.3852C37.8704 34.3655 37.4046 35.065 36.6522 35.7998C35.8999 36.5347 35.1836 36.9897 34.1801 37.3707C33.4225 37.6583 32.284 38.0004 30.1878 38.0938C27.9211 38.1948 27.2412 38.2162 21.5 38.2162C15.7588 38.2162 15.079 38.1948 12.8122 38.0937C10.7159 38.0004 9.5775 37.6583 8.81996 37.3707C7.81631 36.9897 7.10012 36.5347 6.34783 35.7998C5.59548 35.065 5.12956 34.3654 4.73949 33.3852C4.44506 32.6452 4.09487 31.5333 3.99924 29.4858C3.8958 27.2714 3.87385 26.6072 3.87385 21C3.87385 15.3928 3.8958 14.7286 3.99924 12.5142C4.09487 10.4667 4.44506 9.35476 4.73949 8.61484C5.12956 7.63453 5.59548 6.935 6.34776 6.20021C7.10012 5.46529 7.81637 5.01027 8.81989 4.62927C9.57749 4.34168 10.7159 3.99957 12.8122 3.90623C15.0793 3.8052 15.7593 3.78376 21.5 3.78376" fill="#100F0D"/>
<path id="Vector_2" d="M21.5001 28C17.5419 28 14.3333 24.866 14.3333 21.0001C14.3333 17.134 17.5419 14 21.5001 14C25.4581 14 28.6667 17.134 28.6667 21.0001C28.6667 24.866 25.4581 28 21.5001 28ZM21.5001 10.2162C15.4024 10.2162 10.4595 15.0442 10.4595 21.0001C10.4595 26.9558 15.4024 31.7838 21.5001 31.7838C27.5976 31.7838 32.5405 26.9558 32.5405 21.0001C32.5405 15.0442 27.5976 10.2162 21.5001 10.2162ZM35.5568 9.79016C35.5568 11.182 34.4016 12.3101 32.9768 12.3101C31.5519 12.3101 30.3968 11.182 30.3968 9.79016C30.3968 8.3984 31.5519 7.27011 32.9768 7.27011C34.4016 7.27011 35.5568 8.3984 35.5568 9.79016Z" fill="#100F0D"/>
</g>
</svg>
