<svg width="211" height="1131" viewBox="0 0 211 1131" fill="none" xmlns="http://www.w3.org/2000/svg">
    <mask id="path-1-outside-1_1463_14698" maskUnits="userSpaceOnUse" x="0" y="0" width="211" height="1131" fill="black">
        <rect fill="white" width="211" height="1131"/>
        <path d="M196 1119.58H11.816V1067.48H154.69V979.602H196V1119.58ZM196 958.986H11.816V906.888H196V958.986ZM196 869.823H11.816V826.935L134.43 725.37V745.631H11.816V694.585H196V737.474L73.3861 839.038V818.778H196V869.823ZM83.1215 609.949V524.435H122.063V609.949H83.1215ZM155.743 606.265V509.963H196V657.837H11.816V513.384H52.0733V606.265H155.743ZM140.219 491.981H101.803V415.15H140.219V491.981ZM199.684 299.194C199.684 326.383 192.229 347.608 177.318 362.869C162.408 378.13 141.271 385.76 113.907 385.76H11.816V333.663H112.328C128.115 333.663 139.429 330.593 146.27 324.454C153.111 318.139 156.532 309.543 156.532 298.668C156.532 287.792 153.111 279.285 146.27 273.145C139.429 267.006 128.115 263.936 112.328 263.936H11.816V212.628H113.907C141.271 212.628 162.408 220.258 177.318 235.519C192.229 250.78 199.684 272.005 199.684 299.194ZM196 177.335H11.816V93.1361C11.816 76.2964 14.5349 61.8248 19.9727 49.7213C25.4105 37.4424 33.3041 27.9701 43.6535 21.3044C53.8275 14.6387 65.931 11.3058 79.9641 11.3058C93.8217 11.3058 105.838 14.6387 116.012 21.3044C126.185 27.9701 134.079 37.4424 139.692 49.7213C145.13 61.8248 147.849 76.2964 147.849 93.1361V148.391L125.221 125.237H196V177.335ZM130.746 125.237L106.802 148.391V96.2936C106.802 85.4179 104.434 77.3489 99.6981 72.0865C94.9619 66.6487 88.3839 63.9298 79.9641 63.9298C71.3688 63.9298 64.7031 66.6487 59.967 72.0865C55.2308 77.3489 52.8627 85.4179 52.8627 96.2936V148.391L28.9188 125.237H130.746Z"/>
    </mask>
    <path d="M196 1119.58V1130.58H207V1119.58H196ZM11.816 1119.58H0.81599V1130.58H11.816V1119.58ZM11.816 1067.48V1056.48H0.81599V1067.48H11.816ZM154.69 1067.48V1078.48H165.69V1067.48H154.69ZM154.69 979.602V968.602H143.69V979.602H154.69ZM196 979.602H207V968.602H196V979.602ZM196 1108.58H11.816V1130.58H196V1108.58ZM22.816 1119.58V1067.48H0.81599V1119.58H22.816ZM11.816 1078.48H154.69V1056.48H11.816V1078.48ZM165.69 1067.48V979.602H143.69V1067.48H165.69ZM154.69 990.602H196V968.602H154.69V990.602ZM185 979.602V1119.58H207V979.602H185ZM196 958.986V969.986H207V958.986H196ZM11.816 958.986H0.81599V969.986H11.816V958.986ZM11.816 906.888V895.888H0.81599V906.888H11.816ZM196 906.888H207V895.888H196V906.888ZM196 947.986H11.816V969.986H196V947.986ZM22.816 958.986V906.888H0.81599V958.986H22.816ZM11.816 917.888H196V895.888H11.816V917.888ZM185 906.888V958.986H207V906.888H185ZM196 869.823V880.823H207V869.823H196ZM11.816 869.823H0.81599V880.823H11.816V869.823ZM11.816 826.935L4.79903 818.463L0.81599 821.763V826.935H11.816ZM134.43 725.37H145.43V701.975L127.413 716.899L134.43 725.37ZM134.43 745.631V756.631H145.43V745.631H134.43ZM11.816 745.631H0.81599V756.631H11.816V745.631ZM11.816 694.585V683.585H0.81599V694.585H11.816ZM196 694.585H207V683.585H196V694.585ZM196 737.474L203.017 745.945L207 742.646V737.474H196ZM73.3861 839.038H62.3861V862.433L80.403 847.509L73.3861 839.038ZM73.3861 818.778V807.778H62.3861V818.778H73.3861ZM196 818.778H207V807.778H196V818.778ZM196 858.823H11.816V880.823H196V858.823ZM22.816 869.823V826.935H0.81599V869.823H22.816ZM18.833 835.406L141.447 733.842L127.413 716.899L4.79903 818.463L18.833 835.406ZM123.43 725.37V745.631H145.43V725.37H123.43ZM134.43 734.631H11.816V756.631H134.43V734.631ZM22.816 745.631V694.585H0.81599V745.631H22.816ZM11.816 705.585H196V683.585H11.816V705.585ZM185 694.585V737.474H207V694.585H185ZM188.983 729.003L66.3691 830.567L80.403 847.509L203.017 745.945L188.983 729.003ZM84.3861 839.038V818.778H62.3861V839.038H84.3861ZM73.3861 829.778H196V807.778H73.3861V829.778ZM185 818.778V869.823H207V818.778H185ZM83.1215 609.949H72.1215V620.949H83.1215V609.949ZM83.1215 524.435V513.435H72.1215V524.435H83.1215ZM122.063 524.435H133.063V513.435H122.063V524.435ZM122.063 609.949V620.949H133.063V609.949H122.063ZM155.743 606.265V617.265H166.743V606.265H155.743ZM155.743 509.963V498.963H144.743V509.963H155.743ZM196 509.963H207V498.963H196V509.963ZM196 657.837V668.837H207V657.837H196ZM11.816 657.837H0.81599V668.837H11.816V657.837ZM11.816 513.384V502.384H0.81599V513.384H11.816ZM52.0733 513.384H63.0733V502.384H52.0733V513.384ZM52.0733 606.265H41.0733V617.265H52.0733V606.265ZM94.1215 609.949V524.435H72.1215V609.949H94.1215ZM83.1215 535.435H122.063V513.435H83.1215V535.435ZM111.063 524.435V609.949H133.063V524.435H111.063ZM122.063 598.949H83.1215V620.949H122.063V598.949ZM166.743 606.265V509.963H144.743V606.265H166.743ZM155.743 520.963H196V498.963H155.743V520.963ZM185 509.963V657.837H207V509.963H185ZM196 646.837H11.816V668.837H196V646.837ZM22.816 657.837V513.384H0.81599V657.837H22.816ZM11.816 524.384H52.0733V502.384H11.816V524.384ZM41.0733 513.384V606.265H63.0733V513.384H41.0733ZM52.0733 617.265H155.743V595.265H52.0733V617.265ZM140.219 491.981V502.981H151.219V491.981H140.219ZM101.803 491.981H90.803V502.981H101.803V491.981ZM101.803 415.15V404.15H90.803V415.15H101.803ZM140.219 415.15H151.219V404.15H140.219V415.15ZM140.219 480.981H101.803V502.981H140.219V480.981ZM112.803 491.981V415.15H90.803V491.981H112.803ZM101.803 426.15H140.219V404.15H101.803V426.15ZM129.219 415.15V491.981H151.219V415.15H129.219ZM177.318 362.869L169.45 355.182L177.318 362.869ZM11.816 385.76H0.81599V396.76H11.816V385.76ZM11.816 333.663V322.663H0.81599V333.663H11.816ZM146.27 324.453L153.617 332.64L153.675 332.589L153.731 332.536L146.27 324.453ZM11.816 263.936H0.81599V274.936H11.816V263.936ZM11.816 212.628V201.628H0.81599V212.628H11.816ZM177.318 235.519L169.45 243.206L177.318 235.519ZM188.684 299.194C188.684 324.334 181.842 342.498 169.45 355.182L185.187 370.556C202.615 352.718 210.684 328.432 210.684 299.194H188.684ZM169.45 355.182C157.153 367.768 139.189 374.76 113.907 374.76V396.76C143.353 396.76 167.664 388.492 185.187 370.556L169.45 355.182ZM113.907 374.76H11.816V396.76H113.907V374.76ZM22.816 385.76V333.663H0.81599V385.76H22.816ZM11.816 344.663H112.328V322.663H11.816V344.663ZM112.328 344.663C129.039 344.663 143.737 341.507 153.617 332.64L138.923 316.267C135.122 319.679 127.191 322.663 112.328 322.663V344.663ZM153.731 332.536C163.212 323.785 167.532 312.049 167.532 298.668H145.532C145.532 307.038 143.011 312.492 138.809 316.371L153.731 332.536ZM167.532 298.668C167.532 285.294 163.212 273.569 153.617 264.958L138.923 281.332C143.011 285 145.532 290.29 145.532 298.668H167.532ZM153.617 264.958C143.737 256.091 129.039 252.936 112.328 252.936V274.936C127.191 274.936 135.122 277.92 138.923 281.332L153.617 264.958ZM112.328 252.936H11.816V274.936H112.328V252.936ZM22.816 263.936V212.628H0.81599V263.936H22.816ZM11.816 223.628H113.907V201.628H11.816V223.628ZM113.907 223.628C139.189 223.628 157.153 230.62 169.45 243.206L185.187 227.832C167.664 209.896 143.353 201.628 113.907 201.628V223.628ZM169.45 243.206C181.842 255.89 188.684 274.054 188.684 299.194H210.684C210.684 269.956 202.615 245.67 185.187 227.832L169.45 243.206ZM196 177.335V188.335H207V177.335H196ZM11.816 177.335H0.81599V188.335H11.816V177.335ZM19.9727 49.7213L30.0066 54.2292L30.0186 54.2024L30.0306 54.1755L19.9727 49.7213ZM43.6535 21.3043L49.6098 30.5522L49.6459 30.5289L49.6818 30.5055L43.6535 21.3043ZM116.012 21.3043L122.04 12.1033L116.012 21.3043ZM139.692 49.7213L149.726 45.2134L149.711 45.1807L149.697 45.1479L139.692 49.7213ZM147.849 148.391L139.982 156.08L158.849 175.385V148.391H147.849ZM125.221 125.237V114.237H99.0901L117.354 132.925L125.221 125.237ZM196 125.237H207V114.237H196V125.237ZM130.746 125.237L138.393 133.144L157.945 114.237H130.746V125.237ZM106.802 148.391H95.8023V174.331L114.449 156.299L106.802 148.391ZM99.6981 72.0865L91.4032 79.3112L91.462 79.3787L91.5218 79.4452L99.6981 72.0865ZM59.967 72.0865L68.1432 79.4452L68.2031 79.3787L68.2619 79.3112L59.967 72.0865ZM52.8627 148.391L45.216 156.299L63.8627 174.331V148.391H52.8627ZM28.9188 125.237V114.237H1.72005L21.272 133.144L28.9188 125.237ZM196 166.335H11.816V188.335H196V166.335ZM22.816 177.335V93.1361H0.81599V177.335H22.816ZM22.816 93.1361C22.816 77.4468 25.3526 64.5883 30.0066 54.2292L9.93886 45.2134C3.71725 59.0614 0.81599 75.1461 0.81599 93.1361H22.816ZM30.0306 54.1755C34.681 43.6746 41.2301 35.9492 49.6098 30.5522L37.6972 12.0565C25.3781 19.9908 16.1401 31.2102 9.91487 45.2671L30.0306 54.1755ZM49.6818 30.5055C57.8014 25.1857 67.7351 22.3058 79.9641 22.3058V0.305786C64.1269 0.305786 49.8536 4.09155 37.6252 12.1033L49.6818 30.5055ZM79.9641 22.3058C91.9871 22.3058 101.841 25.1711 109.983 30.5055L122.04 12.1033C109.834 4.1062 95.6564 0.305786 79.9641 0.305786V22.3058ZM109.983 30.5054C118.235 35.9117 124.839 43.688 129.688 54.2947L149.697 45.1479C143.319 31.1968 134.136 20.0284 122.04 12.1033L109.983 30.5054ZM129.658 54.2292C134.312 64.5883 136.849 77.4468 136.849 93.1361H158.849C158.849 75.1461 155.948 59.0614 149.726 45.2134L129.658 54.2292ZM136.849 93.1361V148.391H158.849V93.1361H136.849ZM155.716 140.703L133.088 117.549L117.354 132.925L139.982 156.08L155.716 140.703ZM125.221 136.237H196V114.237H125.221V136.237ZM185 125.237V177.335H207V125.237H185ZM123.1 117.329L99.1556 140.484L114.449 156.299L138.393 133.144L123.1 117.329ZM117.802 148.391V96.2936H95.8023V148.391H117.802ZM117.802 96.2936C117.802 84.1047 115.188 72.8547 107.874 64.7279L91.5218 79.4452C93.6801 81.8431 95.8023 86.7312 95.8023 96.2936H117.802ZM107.993 64.8619C100.81 56.6146 90.976 52.9298 79.9641 52.9298V74.9298C85.7918 74.9298 89.114 76.6827 91.4032 79.3112L107.993 64.8619ZM79.9641 52.9298C68.8579 52.9298 58.9003 56.5629 51.6721 64.8619L68.2619 79.3112C70.5059 76.7346 73.8798 74.9298 79.9641 74.9298V52.9298ZM51.7907 64.7279C44.4766 72.8547 41.8627 84.1047 41.8627 96.2936H63.8627C63.8627 86.7312 65.985 81.8431 68.1432 79.4452L51.7907 64.7279ZM41.8627 96.2936V148.391H63.8627V96.2936H41.8627ZM60.5095 140.484L36.5655 117.329L21.272 133.144L45.216 156.299L60.5095 140.484ZM28.9188 136.237H130.746V114.237H28.9188V136.237Z" fill="white" mask="url(#path-1-outside-1_1463_14698)"/>
</svg>
