<svg width="147" height="113" viewBox="0 0 147 113" fill="none" xmlns="http://www.w3.org/2000/svg">
<path d="M24.3442 41.068L27.3779 44.0661L73.015 88.8921L121.686 41.068H109.513L73.015 76.936L36.4979 41.068H24.3442Z" fill="#274276"/>
<path d="M0 41.068L3.0338 44.0661L15.2062 56.0222L21.2923 50.0442L12.1724 41.0863H0V41.068ZM133.877 41.068L103.465 70.9764L109.533 76.936L146.031 41.068H133.877ZM27.3785 56.0038L21.2923 61.9818L33.4647 73.9379L39.5509 67.96L27.3785 56.0038ZM45.6371 73.9379L39.5509 79.9159L73.0156 112.786L91.2742 94.8517L87.44 91.0859L85.188 88.8921L73.0156 100.848L45.6371 73.9561V73.9379ZM97.3604 76.936L91.2927 82.8958L97.3789 88.8738L103.465 82.8958L100.431 79.9159L97.3789 76.936H97.3604Z" fill="#203560"/>
<path d="M73.0152 0.428345L53.9749 19.1119L53.8818 19.2032H54.068L59.1864 24.2307L64.3977 29.3678L72.9223 37.7407L76.4213 41.1775L81.6328 46.2963L73.0152 54.7606L64.3047 46.2049L69.5162 41.0861H59.0933L53.8818 46.2049L73.0152 64.9798L91.9625 46.1866L86.8441 41.1592L81.6328 36.0404L69.6278 24.249L64.4165 19.1302L73.0339 10.6842L81.7444 19.2399L76.5329 24.3586H86.9557L92.1672 19.2399L73.0152 0.428345Z" fill="#80B3FF"/>
<path d="M81.6327 46.2961L76.4214 51.4148L81.5956 56.4971L86.8442 51.3052L81.6327 46.3143V46.2961Z" fill="#6583C8"/>
<path d="M64.3974 19.1118L69.6461 13.9747L64.3974 8.89252L59.186 14.0113L64.3788 19.1301L64.3974 19.1118Z" fill="#6583C8"/>
</svg>
