<svg width="310" height="624" viewBox="0 0 310 624" fill="none" xmlns="http://www.w3.org/2000/svg">
<path d="M99.2496 540.544C82.8016 546.498 37.8501 524.73 -1.04925 501.059C-0.854023 500.961 -0.658669 500.864 -0.46344 500.717C44.7808 504.573 93.6368 513.505 103.349 527.952C104.862 530.197 105.253 532.442 104.521 534.931L104.423 535.273C103.545 537.908 101.885 539.568 99.2496 540.544Z" fill="#9C7C58"/>
<path d="M181.245 457.672C167.921 468.165 119.651 461.771 76.554 451.815C119.553 441.419 167.726 434.537 181.196 444.982C183.344 446.641 184.369 448.642 184.369 451.278C184.369 452.108 184.271 452.888 184.076 453.669C183.637 455.182 182.71 456.5 181.294 457.672H181.245Z" fill="#9C7C58"/>
<path d="M26.8182 335.459C41.3628 344.195 52.4908 391.587 58.3965 435.465C33.456 398.908 9.93092 356.397 14.9093 340.047C15.6902 337.411 17.2519 335.752 19.6923 334.824C22.1326 333.897 24.3778 334.092 26.7694 335.508L26.8182 335.459Z" fill="#9C7C58"/>
<path d="M135.416 371.332C109.353 339.559 84.315 302.27 87.5363 286.944C88.0244 284.504 89.2933 282.894 91.4408 281.869C93.5883 280.795 95.6383 280.795 97.8834 281.869C112.037 288.702 126.24 331.213 135.416 371.332Z" fill="#9C7C58"/>
<path d="M245.328 367.085C234.981 378.946 190.224 381.386 149.129 379.727C186.71 362.937 229.173 348.636 243.18 355.762C245.377 356.885 246.597 358.495 247.036 360.887C247.28 362.058 247.231 363.181 246.938 364.206C246.646 365.231 246.109 366.158 245.328 367.085Z" fill="#9C7C58"/>
<path d="M154.303 210.07C155.767 208.997 157.182 208.801 158.939 209.29C169.14 212.218 184.758 236.719 200.523 273.959C170.067 247.359 151.716 224.81 152.106 214.219C152.155 212.364 152.838 211.095 154.303 210.07Z" fill="#9C7C58"/>
<path d="M271.345 170.637C268.221 175.761 252.31 180.935 229.615 184.449C249.04 172.15 264.414 165.561 270.124 167.367C270.905 167.611 271.296 167.952 271.589 168.684C271.735 169.124 271.784 169.563 271.686 169.953C271.638 170.197 271.54 170.393 271.345 170.637Z" fill="#9C7C58"/>
<path d="M221.804 181.081C204.819 165.609 194.423 152.528 194.618 146.525C194.618 145.695 194.911 145.256 195.545 144.768C196.18 144.329 196.668 144.231 197.498 144.475C203.257 146.183 212.433 160.142 221.804 181.081Z" fill="#9C7C58"/>
<path d="M207.16 277.278C240.886 254.924 267.486 243.113 277.589 246.334C279.346 246.871 280.42 247.896 281.054 249.556C281.493 250.678 281.542 251.703 281.249 252.728C281.103 253.216 280.908 253.704 280.566 254.241C275.051 263.27 247.28 271.909 207.16 277.278Z" fill="#9C7C58"/>
<path d="M-90.9511 497.297C41.9509 460.642 180.075 372.35 212.142 229.882C222.733 187.712 223.904 143.054 231.372 99.9083C239.034 51.9797 263.877 17.3754 310 0C245.623 29.1867 238.254 80.4831 236.008 144.665C233.568 281.666 192.375 371.96 82.0216 455.859C32.9215 492.221 -21.2545 520.87 -79.2863 540.345L-91 497.297H-90.9511Z" fill="#3B2507"/>
<path fill-rule="evenodd" clip-rule="evenodd" d="M-10.5032 452.329C-19.9784 457.023 -32.3749 466.651 -37.6916 474.763C-48.2817 490.947 -54.4771 507.932 -52.5889 527.81C-52.4918 528.846 -52.1727 530.019 -51.8812 531.456L-51.885 531.472C-51.7233 532.304 -51.5483 533.224 -51.4351 534.265C-51.3202 534.934 -51.1955 535.706 -51.0499 536.535C-49.6376 536.204 -48.2302 535.821 -46.8227 535.438C-44.6485 534.811 -42.0865 533.969 -39.9861 533.223C-25.6392 528.004 -12.0462 521.157 1.58519 514.216C5.61646 512.144 9.65147 510.056 13.6742 507.948C17.4594 501.407 20.1733 498.894 23.6205 489.08C26.107 482.017 28.3149 472.371 28.4367 463.846C28.4991 459.432 28.8342 453.408 27.8388 448.308C25.8173 437.95 -6.01507 450.109 -10.5192 452.325L-10.5032 452.329Z" fill="#8DA635"/>
<path fill-rule="evenodd" clip-rule="evenodd" d="M41.835 505.551L38.1865 505.903C22.2176 513.737 6.28676 521.699 -9.96493 528.858L-14.255 530.735C-11.7418 537.522 7.11311 550.728 14.5246 554.986C23.8917 560.358 36.7635 564.177 48.2367 565.069C57.3382 565.764 66.6409 564.867 75.34 562.493C88.8022 558.827 92.9603 556.936 90.5314 547.531C87.8927 537.283 85.9855 532.834 80.6528 525.813C72.4739 515.038 55.1737 504.307 41.7955 505.576L41.835 505.551Z" fill="#8DA635"/>
<path fill-rule="evenodd" clip-rule="evenodd" d="M96.0412 414.141C90.408 415.469 82.4449 419.112 77.8398 421.98C63.665 430.823 54.7121 444.107 50.3043 459.801C47.4613 469.924 48.4178 476.283 49.659 489.198C60.0027 483.894 70.4005 478.721 80.9547 473.82C86.2934 471.359 91.6691 468.957 97.1075 466.722L96.6891 466.777C97.2558 463.393 107.67 449.129 104.336 429.946C103.859 427.199 103.258 424.473 102.797 421.729C102.101 417.595 101.384 412.898 96.0535 414.161L96.0572 414.145L96.0412 414.141Z" fill="#8DA635"/>
<path fill-rule="evenodd" clip-rule="evenodd" d="M117.999 472.693C102.495 477.22 87.5432 483.076 72.8339 489.563C74.3641 491.998 75.6795 494.484 77.5245 496.874C91.3741 514.815 112.867 524.526 137.857 522.17C146.602 521.345 155.073 521.117 152.133 511.001C144.663 485.245 124.902 476.596 117.999 472.693Z" fill="#8DA635"/>
<path fill-rule="evenodd" clip-rule="evenodd" d="M142.632 427.065C136.76 433.932 127.94 446.791 127.152 456.801C131.576 455.801 136.14 455.002 140.742 454.618C142.585 454.471 144.643 454.273 146.486 454.195C156.881 453.618 167.42 454.09 177.644 456.212C182.222 453.896 186.397 448.443 189.25 444.897C197.247 434.923 200.203 413.111 195.833 407.988C192.725 404.341 159.267 407.637 142.636 427.049L142.632 427.065Z" fill="#8DA635"/>
<path fill-rule="evenodd" clip-rule="evenodd" d="M150.579 467.282C151.537 476.616 152.552 481.703 155.863 489.133C158.787 495.678 162.008 501.311 166.538 506.404C171.202 511.646 175.686 515.41 181.687 519.12C186.832 522.294 199.996 530.745 204.051 522.391C205.21 520.023 205.258 517.194 205.467 514.623C206.643 499.598 203.533 487.161 196.196 474.655C181.678 468.171 166.427 466.587 150.559 467.295L150.563 467.278L150.579 467.282Z" fill="#8DA635"/>
<path fill-rule="evenodd" clip-rule="evenodd" d="M209.396 443.747C197.131 447.861 191.865 455.173 188.188 459.068C200.332 463.108 210.7 469.557 219.713 477.686C231.416 476.282 240.058 470.227 245.673 463.739C247.107 462.078 253.07 453.44 253.401 451.506C254.003 447.825 251.536 446.948 249.319 445.942C236.782 440.172 224.186 438.8 209.408 443.766L209.396 443.747Z" fill="#8DA635"/>
<path fill-rule="evenodd" clip-rule="evenodd" d="M228.643 486.76C233.992 492.838 238.828 499.523 243.231 506.615C244.383 508.421 245.063 509.424 246.061 511.092C251.959 511.026 261.016 513.875 271.805 506.003C280.474 499.685 274.984 496.904 267.747 490.878C257.691 482.507 239.23 480.769 228.639 486.776L228.643 486.76Z" fill="#8DA635"/>
<path fill-rule="evenodd" clip-rule="evenodd" d="M218.335 488.928C212.287 500.403 209.637 510.792 216.536 524.38C217.936 527.156 220.626 533.038 224.158 533.115C229.036 533.218 232.828 528.25 234.977 524.456C236.32 522.098 237.355 519.532 238.083 516.912C238.418 515.689 239.693 512.165 239.026 510.962C238.766 510.479 237.561 508.829 236.155 507.167C234.628 505.376 232.95 503.431 231.359 501.692L230.131 500.358L229.525 499.693L228.899 499.041C227.358 497.381 224.828 494.883 223.184 493.301C222.397 492.543 220.63 490.983 219.895 490.288C219.357 489.842 218.834 489.399 218.315 488.941L218.335 488.928Z" fill="#8DA635"/>
<path d="M20.2399 453.219C5.8696 464.721 -5.56957 479.321 -16.3266 494.113C-26.9739 509.016 -36.6511 524.617 -45.1974 540.735L-50.7571 537.6C-41.1362 521.732 -30.4651 506.582 -18.8707 492.187C-7.21371 477.958 5.17729 463.918 20.2361 453.235L20.2399 453.219Z" fill="#1A412C"/>
<path d="M83.0532 551.709C67.6816 550.791 52.7301 546.319 38.2064 541.389C23.6643 536.319 9.42606 530.305 -4.38493 523.326L-1.8466 518.659C11.3044 526.296 25.0281 533.069 39.1358 538.917C53.2733 544.636 67.7989 549.922 83.0335 551.722L83.0372 551.706L83.0532 551.709Z" fill="#1A412C"/>
<path d="M-163.69 513.602C-130.351 532.709 -90.4217 545.86 -52.0372 536.711C-42.6082 534.761 -33.6576 530.941 -24.791 527.119C2.1088 514.946 27.6932 500.286 54.1456 486.91C79.9368 474.124 106.131 460.333 134.859 455.346C198.02 446.799 232.299 478.228 257.213 533.004L256.101 533.642C250.289 525.631 244.742 517.496 238.463 510.036C226.576 495.289 212.438 481.641 195.049 474.203C181.251 468.038 165.841 466.705 150.834 467.274C137.822 467.766 125.488 470.14 112.784 474.253C61.256 490.355 14.9821 521.014 -35.978 539.107C-59.9 547.341 -86.3366 546.539 -110.423 539.623C-129.671 534.22 -147.675 525.353 -164.315 514.691L-163.654 513.594L-163.686 513.586L-163.69 513.602Z" fill="#1A412C"/>
<path d="M55.877 487.465C61.0999 476.12 66.6866 465.028 72.764 454.151C78.956 443.436 85.1583 432.386 93.9821 423.585C89.789 428.172 86.5302 433.466 83.4601 438.821C77.3446 449.57 72.1921 460.83 67.3209 472.19C64.9032 477.866 62.5705 483.612 60.3773 489.339L55.8572 487.477L55.861 487.461L55.877 487.465Z" fill="#1A412C"/>
<path d="M77.6195 479.587C87.7964 486.347 98.3306 492.734 109.13 498.489C119.967 503.864 131.155 510.2 143.474 510.798C137.293 511.136 131.172 509.325 125.338 507.445C107.768 501.367 91.2692 492.716 75.1329 483.522L77.6195 479.587Z" fill="#1A412C"/>
<path d="M189.979 416.449C180.582 422.48 171.979 429.676 164.001 437.457C156.05 445.194 148.87 453.684 142.463 462.709L138.754 459.903C153.034 442.532 170.308 427.412 189.979 416.449Z" fill="#1A412C"/>
<path d="M163.809 461.703C163.934 461.529 164.02 461.16 164.005 461.004L163.99 461.069C166.632 470.574 171.532 479.387 176.114 488.109C181.129 497.151 186.631 505.986 193.388 513.861C186.064 506.463 179.892 497.963 174.228 489.243C168.833 480.45 162.968 471.649 159.7 461.779C159.569 461.106 159.597 460.335 159.901 459.679L163.805 461.719L163.809 461.703Z" fill="#1A412C"/>
<path d="M246.225 451.258C232.908 454.08 209.072 459.105 200.387 469.713L197.839 467.803C207.599 456.937 232.133 453.342 246.225 451.258Z" fill="#1A412C"/>
<path d="M271.199 500.538C260.565 497.491 246.389 493.825 236.267 499.705L234.955 497.642C246.127 491.972 260.186 496.575 271.215 500.541L271.199 500.538Z" fill="#1A412C"/>
<path d="M225.289 526.938C223.909 516.442 222.976 504.815 228.525 495.269L230.51 496.694C224.639 505.37 224.75 516.823 225.289 526.938Z" fill="#1A412C"/>
</svg>
