<svg width="157" height="435" viewBox="0 0 157 435" fill="none" xmlns="http://www.w3.org/2000/svg">
<path d="M211.306 375.458L207.01 375.649C207.01 375.293 205.3 339.548 194.37 309.603C189.295 295.718 176.504 277.291 161.675 255.964C144.343 231.025 124.699 202.749 112.086 173.926C88.9805 121.094 74.0284 43.5019 73.8779 42.7222L78.105 41.915C78.2555 42.6811 93.1118 119.822 116.026 172.202C128.461 200.643 147.982 228.727 165.205 253.502C180.198 275.075 193.153 293.707 198.406 308.125C209.569 338.713 211.278 375.102 211.292 375.458H211.306Z" fill="#51651B"/>
<path d="M79.4041 28.0982C78.6106 17.1543 74.6024 5.34858 65.0265 -0.000244141C68.9526 6.18305 65.4232 14.1721 64.7256 21.4635C64.1373 27.592 65.7105 33.6112 67.995 39.2473C69.281 42.4347 72.9198 53.6385 76.0114 55.198C81.2098 57.8245 79.6366 32.0243 79.4041 28.0982Z" fill="#51651B"/>
<path d="M61.7852 78.4949C63.4678 79.9997 65.2051 81.5181 67.2845 82.3663C72.8112 84.6098 79.2954 81.6686 85.0273 83.3649C81.4021 79.1242 77.2434 72.9135 72.1135 70.711C69.5964 69.6303 66.9698 68.8369 64.4801 67.7151C60.8413 66.0736 57.093 66.5524 53.8235 64.2405C49.4459 61.1351 40.3078 51.7918 35 51.997C38.8988 56.9081 43.7004 61.313 48.1737 65.7179C51.3748 68.8643 60.3078 74.4456 61.7852 78.4949Z" fill="#51651B"/>
<path d="M90.2938 47.3601C94.7261 39.8635 99.9518 32.2575 100.362 23.5571C101.881 32.2575 102.264 41.3136 99.9791 49.8635C98.7753 54.3642 92.3868 70.3833 85.9299 69.6446C78.8574 68.8375 88.3786 50.6159 90.3075 47.3601H90.2938Z" fill="#51651B"/>
<path d="M95.1637 75.266C99.5139 69.9035 104.945 65.1839 107.517 58.7817C108.898 55.3344 109.363 51.5998 109.815 47.9199C110.362 51.2031 109.459 54.5273 109.213 57.8378C108.939 61.6408 109.541 65.4438 109.651 69.2605C109.76 73.0772 109.309 77.0717 107.188 80.2454C104.89 83.6654 94.1241 91.4493 89.7875 90.478C83.7137 89.11 92.975 77.9883 95.1637 75.2797V75.266Z" fill="#51651B"/>
<path d="M56.9971 92.161C62.8247 95.8682 65.1914 103.447 70.8685 107.373C74.3706 109.794 78.7344 110.533 82.9615 110.998C85.8343 111.313 88.7207 111.518 91.6209 111.614C84.8767 103.515 76.2173 97.2499 67.6674 91.0803C65.889 89.7943 64.097 88.4948 62.0997 87.5645C56.6278 84.9927 50.2803 85.3484 44.3706 84.0898C45.9028 84.4182 47.8043 87.4551 49.1449 88.3716C51.5389 90.0132 54.5484 90.6151 56.9971 92.1746V92.161Z" fill="#51651B"/>
<path d="M95.0407 101.313C96.6686 98.1123 99.5825 95.7868 102.332 93.4749C111.019 86.1698 119.172 77.3189 121.771 66.2793C122.004 74.0905 119.487 81.7923 115.752 88.6459C112.004 95.4995 107.052 101.614 102.031 107.606C100.307 109.658 96.6413 115.144 93.878 112.339C91.9354 110.37 94.0148 103.352 95.0407 101.313Z" fill="#51651B"/>
<path d="M101.305 120.902C102.892 118.536 105.136 116.703 107.256 114.801C111.921 110.601 116.134 105.923 120.321 101.244C122.92 98.3442 125.519 95.4578 128.104 92.5577C129.883 90.5741 131.73 88.4537 132.181 85.8271C132.933 89.7259 131.716 93.7068 130.526 97.4961C129.404 101.039 128.255 104.637 126.134 107.688C123.166 111.969 118.556 114.787 114.958 118.549C111.032 122.653 108.296 128.125 103.672 131.545C96.4218 136.908 98.9115 124.445 101.292 120.889L101.305 120.902Z" fill="#51651B"/>
<path d="M86.6416 121.394C82.9481 120.464 79.104 120.451 75.301 120.232C62.7019 119.479 50.2669 116.169 38.9536 110.574C47.1615 117.824 56.2723 124.048 66.0261 129.028C68.6389 130.368 71.3202 131.627 74.1793 132.284C79.3776 133.488 84.8085 132.639 90.0753 131.791C100.8 130.068 93.0164 123.009 86.6416 121.394Z" fill="#51651B"/>
<path d="M119.131 128.304C125.93 121.423 133.987 115.568 139.021 107.319C137.188 111.751 136.135 116.457 134.329 120.889C132.77 124.76 130.663 128.399 128.556 132.011C125.123 137.934 121.675 143.871 118.242 149.795C114.521 156.21 106.449 157.907 107.708 148.563C108.775 140.67 113.659 133.844 119.117 128.304H119.131Z" fill="#51651B"/>
<path d="M116.915 168.358C120.635 161.723 125.259 155.594 130.622 150.204C133.317 147.496 136.203 144.951 138.324 141.778C141.429 137.126 142.728 131.34 146.477 127.181C145.519 131.066 144.548 134.965 143.59 138.85C142.482 143.323 141.319 147.906 138.72 151.723C135.287 156.771 129.514 160.15 127.092 165.745C125.889 168.522 125.56 171.764 123.604 174.062C118.283 180.286 113.33 174.746 116.915 168.344V168.358Z" fill="#51651B"/>
<path d="M127.148 182.079C129.336 177.387 132.811 173.434 136.108 169.439C143.591 160.397 150.431 150.821 156.559 140.807C152.907 151.929 148.789 160.192 149.555 171.874C149.801 175.595 147.722 181.683 146.395 185.171C144.644 189.74 140.075 192.503 135.807 194.911C131.826 197.154 129.692 201.983 126.354 197.018C123.591 192.914 125.232 186.129 127.12 182.079H127.148Z" fill="#51651B"/>
<path d="M139.993 207.236C141.47 203.884 143.864 201.052 146.135 198.18C152.195 190.505 157.517 182.242 162.017 173.542C163.878 169.931 165.629 166.128 165.834 162.065C169.432 171.285 165.615 181.572 161.826 190.724C159.022 197.509 156.217 204.294 153.413 211.08C152.893 212.338 152.36 213.61 151.511 214.664C149.747 216.853 143.563 219.534 140.745 218.097C137.339 216.36 138.68 210.19 139.993 207.208V207.236Z" fill="#51651B"/>
<path d="M153.043 230.902C153.946 228.358 155.643 226.196 157.188 223.994C160.348 219.479 162.989 214.609 165.629 209.753C170.731 200.341 175.902 190.765 178.078 180.287C180.307 187.523 178.009 195.28 175.725 202.503C173.276 210.246 170.827 217.988 168.379 225.731C167.38 228.905 166.327 232.161 164.275 234.774C162.715 236.757 157.872 241.312 154.986 240.341C151.785 239.261 152.182 233.323 153.043 230.902Z" fill="#51651B"/>
<path d="M56.6554 137.455C60.4584 138.727 64.2887 139.999 68.2559 140.588C71.9768 141.135 75.7661 141.08 79.5281 141.395C83.6731 141.75 87.7634 142.571 91.8537 143.378C95.4241 144.09 99.104 144.856 102.141 146.867C105.178 148.891 107.449 152.516 106.765 156.101C99.3913 157.537 91.8126 157.482 84.2887 157.427C81.9358 157.427 79.5418 157.386 77.2983 156.675C75.3421 156.06 73.5774 154.965 71.8537 153.857C63.3175 148.385 52.0179 142.339 45.4105 134.623C47.4488 133.132 54.1656 136.62 56.6827 137.455H56.6554Z" fill="#51651B"/>
<path d="M90.226 168.372C94.8772 168.481 99.5283 167.537 104.152 168.043C108.776 168.55 113.66 171.012 115.041 175.444C110.13 179.521 102.962 179.042 96.6966 177.797C86.5735 175.786 68.1604 172.435 60.2534 165.335C67.6132 165.677 69.8704 163.816 72.5379 164.596C78.3245 166.292 84.1385 168.235 90.2397 168.372H90.226Z" fill="#51651B"/>
<path d="M80.9918 187.455C88.8441 188.098 96.7647 187.743 104.59 188.577C112.428 189.412 120.39 191.6 126.436 196.648C118.776 199.959 110.417 202.667 102.209 201.204C98.3379 200.506 94.6991 198.905 91.1013 197.332C86.4501 195.28 81.8126 193.242 77.1615 191.19C73.933 189.767 66.8332 188.085 65.0548 185.198C70.3352 185.513 75.6567 187.018 80.9918 187.469V187.455Z" fill="#51651B"/>
<path d="M95.1501 218.536C108.447 218.632 122.045 211.053 134.48 215.759C136.682 216.594 139.062 218.345 138.803 220.698C130.772 224.227 122.291 226.717 113.618 228.085C108.31 228.919 102.811 229.33 97.5988 227.975C93.9736 227.031 90.622 225.267 87.3115 223.516C82.1679 220.793 76.2582 218.016 72.3047 213.652C75.1364 212.818 79.6371 215.609 82.5372 216.457C86.6412 217.661 90.8546 218.509 95.1364 218.55L95.1501 218.536Z" fill="#51651B"/>
<path d="M141.142 236.361C136.341 236.456 131.772 238.344 127.216 239.876C111.977 244.979 95.4515 246.183 79.6239 243.351C84.5897 246.73 89.8564 249.945 95.7525 251.066C99.7059 251.819 103.81 251.586 107.763 252.366C111.799 253.159 115.629 254.979 119.733 255.17C123.263 255.335 126.724 254.268 130.103 253.214C136.751 251.149 143.837 249.083 149.61 245.061C156.518 240.259 146.135 236.251 141.142 236.347V236.361Z" fill="#51651B"/>
<path d="M215.451 323.078C216.725 313.119 202.456 288.189 181.455 267.587C171.725 258.018 158.471 250.731 144.598 245.012L140.492 255.295L129.758 239.509C128.385 239.042 126.981 238.579 125.611 238.142L137.283 267.051C137.283 267.051 114.732 234.906 114.718 234.883C104.883 232.081 95.8508 229.87 88.778 228.026C85.0793 227.053 80.3178 225.642 74.9292 224.064L87.2701 252.901L57.0528 218.822C30.3283 211.249 0.429461 204.254 3.04794 215.841C6.89264 232.852 41.1762 258.609 87.9645 301.112C93.6613 306.281 99.3391 310.762 104.905 314.665L143.045 312.85L125.65 326.975C156.641 342.197 180.634 340.662 180.634 340.662C185.539 339.135 190.413 337.433 195.206 335.604C197.795 334.622 200.471 333.878 202.995 332.744C206.275 331.269 206.879 330.084 210.568 330.965C214.794 331.973 218.873 333.563 222.663 335.664C226.453 337.764 228.505 340.299 231.472 343.32C237.576 349.528 244.397 356.217 253.175 358.235C262.444 360.359 262.007 358.997 256.661 351.944C252.621 346.621 214.652 329.121 215.424 323.062L215.439 323.085L215.451 323.078Z" fill="#8DA635"/>
</svg>
