<svg width="111" height="238" viewBox="0 0 111 238" fill="none" xmlns="http://www.w3.org/2000/svg">
<path d="M17.461 149.185C14.2713 138.308 -7.01805 129.868 2.37428 110.374C10.8311 92.8102 32.4372 85.7844 48.8056 79.7042C46.1979 68.9734 45.277 58.9499 50.9124 49.0263C56.9382 38.4185 68.4006 32.2076 78.3454 26.3119C81.0931 19.0402 83.8482 12.4911 88.0324 5.98805C93.6015 3.42836 99.0821 1.62959 104.961 1.05079e-06C110.463 1.95244 115.738 3.62819 120.511 7.19486C127.767 21.1771 128.32 38.5722 128.57 54.2225C129.064 84.9619 128.725 115.786 128.71 146.533C128.696 166.795 129.955 188.111 127.333 208.196C126.265 216.352 123.841 230.088 117.55 235.799C115.495 237.66 113.579 238.298 110.898 237.875C106.22 237.137 103.576 232.125 101.16 228.374C98.9349 221.202 96.1945 214.2 93.572 207.182C87.2957 206.359 79.6713 205.598 73.8665 202.931C63.8186 198.319 60.2606 190.594 56.2016 180.539C45.7043 180.778 36.4372 179.655 26.2861 176.757C22.1755 173.852 18.1829 170.931 16.0613 166.019C13.5788 160.277 15.3467 154.619 17.4683 149.162L17.461 149.185Z" fill="#3E6437"/>
<path d="M17.461 149.189C14.2713 138.313 -7.01805 129.873 2.37428 110.379C10.8311 92.8146 32.4372 85.7889 48.8056 79.7087C46.1979 68.9779 45.277 58.9544 50.9124 49.0308C56.9382 38.423 68.4006 32.2121 78.3454 26.3163C81.0931 19.0446 83.8482 12.4955 88.0324 5.99252C93.6015 3.43283 99.0821 1.63408 104.961 0.00447188C110.463 1.95691 115.738 3.63268 120.511 7.19933C85.9697 37.7927 101.609 46.7939 82.6769 73.4286C84.4007 79.6318 86.4338 85.7659 88.3417 91.9076C76.6658 97.6957 69.3876 104.66 61.6528 115.429C54.0579 116.82 40.9602 118.919 35.4501 125.076C33.4169 127.344 33.8294 128.189 34.021 131.072C37.137 135.607 41.9253 136.744 46.7577 138.566C38.242 150.796 32.0025 162.979 26.2861 176.77C22.1756 173.864 18.1829 170.943 16.0613 166.031C13.5788 160.289 15.3467 154.632 17.4683 149.174L17.461 149.189Z" fill="#479651"/>
</svg>
