<svg width="262" height="327" viewBox="0 0 262 327" fill="none" xmlns="http://www.w3.org/2000/svg">
<path d="M259.235 170.4L274.193 190.271C275.007 191.351 276.721 190.903 276.902 189.563L279.288 171.772C279.419 170.796 280.446 170.172 281.347 170.564C295.473 176.707 301.219 193.008 304.549 206.953C304.574 207.056 304.588 207.162 304.592 207.269C305.089 220.675 303.42 231.078 299.811 243.937C299.728 244.234 299.554 244.506 299.316 244.703C294.157 248.995 299.107 290.773 283.848 302.869C277.098 308.219 245.191 291.64 242.788 290.874C222.689 284.467 213.447 268.485 191.604 265.255C190.076 263.491 191.477 263.365 193.056 263.123C204.694 261.347 231.624 260.924 208.699 244.745C208.619 244.688 208.539 244.619 208.473 244.549C197.331 232.665 186.446 235.038 179.633 214.348C192.89 225.11 210.723 218.723 223.746 229.549C224.94 230.541 226.669 229.253 226.09 227.812L211.898 192.476C211.427 191.304 212.518 190.095 213.732 190.444C221.025 192.543 227.521 197.352 233.496 202.041C234.586 202.896 236.153 201.942 235.918 200.578C235.206 196.459 233.167 192.737 231.282 188.996C230.593 187.629 232.162 186.223 233.444 187.057C237.843 189.923 244.301 194.669 245.02 195.392C249.006 199.415 251.496 204.293 254.726 208.677C255.627 209.901 257.573 209.211 257.487 207.696C256.365 187.92 246.285 170.196 235.996 153.559C245.044 159.137 250.816 163.334 258.992 170.141C259.083 170.217 259.169 170.306 259.241 170.4L259.235 170.4Z" fill="#FFF1B9"/>
<path d="M235.725 153.389C235.884 153.49 236.031 153.644 236.139 153.794C236.154 153.803 236.145 153.817 236.159 153.827C236.174 153.836 236.164 153.85 236.179 153.859C237.406 155.836 238.624 157.826 239.824 159.846C240.449 160.912 241.083 161.964 241.699 163.045C242.31 164.102 242.935 165.168 243.527 166.255C244.233 167.514 244.915 168.779 245.597 170.044C246.23 171.258 246.854 172.486 247.478 173.715C247.593 173.95 247.708 174.185 247.823 174.421C248.213 175.217 248.609 176.036 248.975 176.837C249.255 177.421 249.536 178.005 249.783 178.609C250.169 179.442 250.532 180.282 250.894 181.121C250.975 181.314 251.056 181.507 251.137 181.701C251.147 181.748 251.182 181.79 251.192 181.838C251.354 182.224 251.501 182.602 251.648 182.979C252.078 184.065 252.484 185.155 252.891 186.246C253.207 187.157 253.524 188.069 253.826 188.971C254.14 189.983 254.455 190.995 254.745 192.012C255.03 193.005 255.301 193.989 255.539 194.993C255.544 195.017 255.549 195.041 255.56 195.088C255.812 196.101 256.046 197.144 256.242 198.182C256.451 199.168 256.612 200.164 256.774 201.16C256.795 201.255 256.807 201.364 256.814 201.45C256.966 202.46 257.095 203.477 257.209 204.483C257.324 205.552 257.416 206.626 257.47 207.697C257.563 209.218 255.626 209.902 254.716 208.675C251.495 204.298 249.004 199.409 245.005 195.393C244.307 194.666 237.843 189.922 233.442 187.054C232.161 186.222 230.584 187.621 231.278 188.995C233.152 192.742 235.205 196.46 235.907 200.582C236.148 201.934 234.585 202.894 233.498 202.044C227.507 197.355 221.027 192.54 213.725 190.435C212.517 190.096 211.422 191.313 211.897 192.487L226.082 227.804C226.669 229.252 224.932 230.55 223.737 229.55C222.848 228.804 221.928 228.14 221 227.552C220.623 227.313 220.251 227.098 219.879 226.883C219.624 226.741 219.368 226.6 219.112 226.458C218.818 226.312 218.524 226.167 218.245 226.031C217.937 225.876 217.619 225.736 217.301 225.596C216.349 225.175 215.397 224.816 214.419 224.501C214.135 224.403 213.838 224.296 213.545 224.212C212.212 223.815 210.842 223.475 209.473 223.198C209.172 223.129 208.847 223.065 208.545 222.996C207.507 222.806 206.46 222.63 205.428 222.464C204.6 222.326 203.75 222.194 202.904 222.085C202.479 222.019 202.068 221.962 201.633 221.91C200.797 221.787 199.961 221.664 199.125 221.54C198.288 221.417 197.461 221.279 196.62 221.132L196.596 221.138C195.353 220.919 194.104 220.677 192.874 220.406C191.495 220.081 190.105 219.709 188.761 219.264C188.315 219.103 187.868 218.942 187.421 218.781C186.969 218.596 186.532 218.421 186.08 218.236C185.209 217.847 184.342 217.42 183.478 216.954C182.383 216.342 181.319 215.648 180.281 214.848L180.238 214.82C180.165 214.775 180.116 214.723 180.044 214.677C180.034 214.671 180.028 214.66 180.024 214.645C179.787 214.474 179.605 214.216 179.503 213.928C179.452 213.815 179.411 213.687 179.388 213.531C179.213 212.973 179.048 212.401 178.944 211.827C178.777 211.193 178.671 210.557 178.566 209.921C178.522 209.67 178.478 209.419 178.463 209.186C178.389 208.692 178.316 208.199 178.281 207.709C178.129 206.312 178.086 204.904 178.067 203.49C178.066 202.209 178.112 200.917 178.211 199.639C178.254 198.833 178.311 198.036 178.383 197.249C178.515 195.95 180.068 195.39 180.985 196.316C183.443 198.787 186.718 203.787 189.565 205.611C190.658 206.324 192.069 205.348 191.844 204.067C191.596 202.63 191.338 201.207 191.063 199.814C190.793 198.444 190.513 197.088 190.201 195.753C188.98 190.367 187.464 185.221 185.484 180.005C185.226 179.354 184.977 178.689 184.719 178.038C184.203 176.735 183.634 175.42 183.05 174.096C182.754 173.441 182.453 172.762 182.142 172.098C182.091 171.985 182.046 171.895 181.996 171.782C176.242 159.502 168.9 148.412 160.879 137.561C159.915 136.26 161.376 134.563 162.808 135.349L225.595 169.608C226.772 170.252 228.18 169.152 227.778 167.862C227.458 166.826 227.073 165.83 226.626 164.836C226.35 164.214 226.035 163.588 225.711 162.977C225.542 162.666 225.373 162.356 225.189 162.036C224.831 161.383 224.434 160.725 224.029 160.082C223.654 159.52 223.279 158.957 222.889 158.385C222.687 158.095 222.47 157.795 222.254 157.495C221.619 156.605 220.951 155.735 220.273 154.88C220.048 154.594 219.807 154.3 219.582 154.015C217.055 150.85 214.355 147.799 211.967 144.641C211.524 144.056 211.096 143.48 210.692 142.899C210.333 142.407 209.983 141.901 209.652 141.366C209.193 140.71 208.782 140.043 208.381 139.362C208.287 139.222 208.217 139.076 208.138 138.944C216.704 142.968 224.271 146.643 232.233 151.299C233.179 151.858 234.126 152.417 235.092 153.009C235.295 153.137 235.507 153.251 235.725 153.389Z" fill="#F9D441"/>
<path d="M286.352 147.576C293.828 162.724 299.845 175.87 302.761 191.035C303.105 192.827 300.568 193.59 299.874 191.901C296.135 182.793 290.501 174.545 281.346 170.566C280.444 170.174 279.418 170.799 279.287 171.773L276.9 189.564C276.72 190.905 275.006 191.353 274.192 190.273L259.127 170.259C263.966 174.293 268.725 176.365 272.277 181.684C273.088 182.899 274.996 182.283 275.006 180.822C275.041 176.257 274.835 170.179 274.826 169.173C276.985 166.152 279.486 168.051 279.727 167.858C282.033 166 279.706 151.446 280.272 150.799C280.749 150.255 286.501 151.224 286.351 147.578L286.352 147.576Z" fill="#F9D441"/>
<path d="M286.352 147.577C286.501 151.225 280.747 150.255 280.272 150.797C279.705 151.444 282.031 165.998 279.726 167.856C279.487 168.048 276.985 166.15 274.825 169.171C274.659 152.187 272.559 135.708 266.186 120.074C265.563 118.546 267.473 117.246 268.645 118.409C276.876 126.564 281.266 137.271 286.351 147.576L286.352 147.577Z" fill="#FDAD21"/>
<path d="M180.623 258.722C190.522 255.996 200.097 250.733 210.651 251.169C211.915 251.222 212.724 249.871 212.026 248.817C210.926 247.154 209.122 245.251 208.574 244.662C231.718 260.926 204.713 261.346 193.054 263.126C192.022 263.283 191.065 263.392 190.953 263.941C190.805 264.662 190.057 265.113 189.321 265.104C183.507 265.028 174.676 266.565 171.82 261.444C174.612 261.309 177.881 259.478 180.622 258.723L180.623 258.722Z" fill="#F9D441"/>
<path d="M290.338 125.805C291.741 127.567 295.091 131.294 295.796 132.33C303.241 143.384 312.146 165.929 315.116 179.879C315.523 181.803 316.241 185.225 316.465 187.053C316.736 189.094 316.692 192.886 316.749 195.137C316.77 196.613 316.937 197.247 316.831 199.659C316.352 211.323 312.943 222.737 309.21 233.701C309.076 234.104 308.444 234.557 308.267 235.157C308.245 235.224 308.232 235.276 308.219 235.329C308.202 235.42 308.194 235.496 308.216 235.591C308.203 235.644 308.213 235.691 308.238 235.748C308.254 235.819 308.265 235.866 308.305 235.932C308.299 235.942 308.3 235.949 308.31 235.956C308.481 236.552 308.348 237.179 307.843 237.59C306.344 238.835 304.859 240.089 303.36 241.334C302.229 242.284 300.556 241.204 300.923 239.791C301.102 239.091 301.272 238.406 301.432 237.736C301.602 237.051 301.763 236.381 301.908 235.701C302.069 235.03 302.215 234.351 302.352 233.686C302.489 233.02 302.625 232.355 302.753 231.705C302.914 230.872 303.067 230.054 303.204 229.227C303.495 227.582 303.737 225.948 303.936 224.286C304.027 223.47 304.126 222.639 304.202 221.813C304.277 221.149 304.338 220.477 304.374 219.809C304.42 219.127 304.481 218.454 304.503 217.777C304.546 217.195 304.566 216.619 304.601 216.051C304.611 215.875 304.612 215.713 304.607 215.527C304.631 214.912 304.649 214.274 304.653 213.626C304.673 212.825 304.687 212.001 304.686 211.168C304.672 210.549 304.657 209.93 304.643 209.312C304.631 208.593 304.613 207.85 304.581 207.099C304.368 201.437 303.753 196.151 302.777 191.083L302.311 188.837C302.155 188.088 301.966 187.359 301.802 186.625C301.616 185.796 301.42 184.981 301.201 184.172L301.153 183.959C301.107 183.808 301.061 183.656 301.023 183.491C300.872 182.927 300.712 182.379 300.56 181.816C300.275 180.822 299.981 179.843 299.663 178.87C299.343 177.834 299.009 176.79 298.642 175.765C298.442 175.151 298.233 174.551 298.014 173.965C297.993 173.871 297.963 173.79 297.932 173.71C297.714 173.125 297.495 172.539 297.277 171.954C296.458 169.749 295.564 167.537 294.622 165.335C294.187 164.288 293.744 163.255 293.277 162.228C292.819 161.186 292.347 160.136 291.866 159.099C291.379 158.039 290.892 156.979 290.391 155.91C289.099 153.202 287.753 150.419 286.343 147.576C281.268 137.27 276.874 126.563 268.649 118.408C267.47 117.254 265.557 118.542 266.189 120.08C272.56 135.717 274.665 152.188 274.82 169.17C274.834 170.175 275.043 176.261 275.007 180.809C274.989 182.281 273.075 182.898 272.28 181.683C268.721 176.361 263.963 174.282 259.131 170.267C259.102 170.248 259.082 170.215 259.053 170.197C257.679 169.062 256.382 167.998 255.135 166.984C255.106 166.966 255.071 166.923 255.042 166.905C254.213 166.258 253.412 165.629 252.612 165C252.175 164.663 251.753 164.334 251.331 164.006C250.522 163.392 249.712 162.777 248.908 162.187C248.132 161.614 247.348 161.057 246.563 160.499C246.132 160.185 245.692 159.886 245.251 159.587C244.84 159.306 244.438 159.01 244.003 158.735C243.557 158.412 243.088 158.094 242.609 157.791C242.024 157.4 241.424 157 240.8 156.605C239.287 155.626 237.692 154.616 235.986 153.556L235.725 153.39C235.507 153.253 235.295 153.138 235.092 153.01C234.126 152.418 233.179 151.859 232.233 151.301C224.271 146.644 216.703 142.969 208.137 138.945C208.041 138.905 207.954 138.85 207.849 138.824C207.791 138.787 207.747 138.759 207.68 138.737C206.982 138.396 206.288 138.079 205.586 137.777C204.325 137.201 203.093 136.645 201.866 136.111C197.646 134.272 193.56 132.639 189.596 131.103C188.966 130.847 188.327 130.604 187.702 130.371C185.727 129.608 183.795 128.872 181.884 128.17C180.956 127.806 180.043 127.451 179.121 127.11C178.155 126.743 177.189 126.375 176.238 126.016C175.555 125.746 174.873 125.477 174.205 125.216C173.431 124.929 172.667 124.628 171.926 124.322C167.586 122.609 163.444 120.839 159.455 118.861C157.499 117.907 155.566 116.886 153.693 115.801C140.586 108.231 129.35 97.3561 119.443 76.7776C118.983 75.836 115.823 65.7477 113.262 59.7169C112.633 58.2411 110.461 58.6538 110.384 60.251C110.208 64.5077 109.61 68.8838 109.723 72.8766C109.771 74.5327 109.856 76.1308 109.974 77.709C110.215 80.8892 110.581 83.9046 111.068 86.7933C111.292 88.2358 111.568 89.6294 111.862 90.994C112.175 92.3915 112.508 93.76 112.867 95.085C113.123 96.0599 113.403 97.0296 113.701 97.9703C113.695 97.9799 113.697 97.9878 113.707 97.994C113.996 98.9491 114.318 99.8845 114.634 100.796C114.64 100.82 114.645 100.844 114.66 100.853C115.298 102.7 116.006 104.469 116.766 106.189C117.293 107.377 117.84 108.536 118.419 109.675C119.248 111.317 120.119 112.925 121.065 114.48C121.387 115.029 121.733 115.573 122.079 116.118C122.397 116.644 122.737 117.164 123.073 117.661C124.766 120.217 126.589 122.631 128.506 124.963C133.152 130.588 138.453 135.692 144.184 140.663C145.084 141.456 146.007 142.244 146.939 143.018C148.567 144.394 150.213 145.741 151.888 147.107C153.242 148.208 154.606 149.295 155.998 150.401C157.018 151.229 158.061 152.053 159.119 152.885C160.604 154.069 162.089 155.254 163.603 156.456C165.117 157.659 166.66 158.88 168.184 160.13C172.664 163.74 177.205 167.51 181.748 171.565C181.904 171.704 182.046 171.896 182.141 172.099C182.452 172.763 182.754 173.442 183.05 174.097C183.634 175.421 184.202 176.737 184.719 178.039C184.977 178.69 185.226 179.356 185.484 180.007C187.463 185.222 188.979 190.368 190.201 195.754C190.513 197.09 190.792 198.445 191.063 199.815C191.338 201.209 191.595 202.631 191.843 204.068C192.068 205.349 190.658 206.325 189.565 205.612C186.717 203.788 183.443 198.789 180.985 196.318C180.068 195.391 178.514 195.952 178.383 197.25C178.311 198.038 178.253 198.834 178.21 199.64C178.112 200.919 178.066 202.21 178.067 203.491C178.086 204.905 178.128 206.314 178.28 207.71C178.316 208.2 178.374 208.684 178.462 209.187C178.477 209.42 178.521 209.671 178.565 209.923C178.671 210.558 178.776 211.194 178.943 211.828C179.047 212.402 179.213 212.974 179.388 213.532C179.411 213.689 179.452 213.816 179.502 213.929C179.534 214.072 179.566 214.214 179.622 214.35C186.198 234.283 196.54 232.807 207.259 243.314C207.658 243.709 208.073 244.114 208.468 244.547C208.512 244.575 208.546 244.617 208.581 244.659C209.123 245.246 210.92 247.157 212.026 248.812C212.722 249.862 211.92 251.224 210.652 251.173C210.19 251.165 209.737 251.142 209.266 251.148C208.933 251.161 208.585 251.164 208.262 251.162C207.843 251.182 207.439 251.21 207.035 251.239C206.654 251.262 206.279 251.309 205.904 251.355C205.087 251.427 204.28 251.546 203.478 251.689C203.08 251.741 202.686 251.817 202.307 251.902C201.914 251.978 201.511 252.068 201.132 252.153C200.706 252.249 200.27 252.359 199.849 252.478C199.035 252.674 198.249 252.887 197.445 253.13C197.033 253.235 196.618 253.378 196.211 253.507C196.14 253.522 196.093 253.533 196.036 253.558C191.635 254.957 187.309 256.687 182.936 258.042C182.354 258.222 181.782 258.388 181.21 258.553C181.162 258.564 181.106 258.589 181.058 258.6L181.035 258.605C180.75 258.669 180.479 258.68 180.187 258.596C175.571 257.319 172.527 256.061 169.337 252.436C166.686 249.436 164.366 246.138 162.407 242.622C159.265 236.995 157.059 230.823 155.991 224.457C155.189 219.723 156.262 215.303 156.145 210.515C155.935 202.762 155.178 194.236 152.964 186.759C152.433 185 151.872 184.056 151.319 182.588C149.659 178.184 148.181 173.876 145.428 169.978C130.499 148.86 108.565 142.14 96.7465 115.983C81.8487 82.9777 106.885 55.0156 91.0375 21.9067C94.6119 23.045 115.456 31.807 122.707 46.3759C127.515 56.0447 129.022 69.129 134.875 78.6876C153.845 109.721 190.754 112.047 220.433 127.166C221.542 127.726 222.83 126.815 222.639 125.577C219.678 107.121 191.232 69.8979 191.741 69.6578C192.332 69.3797 246.162 103.739 258.221 130.415C259.4 131.344 258.718 130.303 258.767 129.968C260.235 119.215 245.518 95.5487 236.807 89.2191C237.554 89.0016 238.133 88.9213 238.356 88.859C259.367 94.567 276.995 108.759 290.338 125.805Z" fill="#FFA045"/>
<path d="M171.044 261.435C171.53 261.469 171.954 261.711 172.247 262.102C175.956 267.076 186.37 264.486 191.603 265.258C212.814 268.394 224.919 284.128 243.848 290.869C246.716 291.888 246.787 291.789 245.848 292.572C243.942 294.164 210.801 293.473 206.982 292.572C187.461 287.97 177.04 277.081 164.664 262.724C163.685 261.588 164.782 259.879 166.227 260.282C167.854 260.736 169.489 261.326 171.046 261.432L171.044 261.435Z" fill="#F9D441"/>
<path d="M113.57 60.4496C116.131 66.4804 118.985 75.8363 119.445 76.778C129.352 97.3564 140.588 108.232 153.694 115.801C155.567 116.886 157.501 117.907 159.457 118.862C163.446 120.84 167.588 122.609 171.928 124.322C172.669 124.629 173.433 124.93 174.206 125.216C174.874 125.477 175.557 125.747 176.239 126.016C177.191 126.375 178.157 126.743 179.122 127.111C180.045 127.451 180.958 127.806 181.885 128.17C183.797 128.873 185.729 129.609 187.704 130.372C188.329 130.605 188.968 130.847 189.597 131.104C193.562 132.639 197.648 134.272 201.868 136.112C203.095 136.645 204.327 137.202 205.588 137.777C206.29 138.08 206.983 138.397 207.682 138.738C207.749 138.76 207.793 138.787 207.851 138.824C208.068 138.962 208.234 139.148 208.382 139.364C208.784 140.045 209.195 140.712 209.653 141.368C209.985 141.903 210.335 142.409 210.694 142.9C211.089 143.496 211.517 144.072 211.968 144.642C214.356 147.801 217.057 150.852 219.583 154.017C219.809 154.302 220.049 154.596 220.275 154.881C220.952 155.737 221.62 156.607 222.255 157.497C222.472 157.797 222.688 158.096 222.891 158.387C223.28 158.959 223.655 159.521 224.03 160.084C224.436 160.727 224.832 161.384 225.19 162.038C225.374 162.357 225.543 162.668 225.713 162.978C226.036 163.59 226.351 164.216 226.628 164.838C227.075 165.832 227.46 166.828 227.779 167.863C228.181 169.154 226.773 170.254 225.596 169.61L162.81 135.351C161.377 134.565 159.917 136.261 160.881 137.562C168.902 148.413 176.243 159.504 181.998 171.784C181.92 171.714 181.828 171.635 181.75 171.566C177.207 167.51 172.666 163.74 168.186 160.13C166.661 158.88 165.118 157.659 163.604 156.457C162.09 155.254 160.605 154.07 159.121 152.885C158.063 152.053 157.02 151.23 156 150.401C154.608 149.296 153.244 148.209 151.89 147.107C150.215 145.741 148.569 144.394 146.941 143.018C146.009 142.244 145.085 141.456 144.186 140.663C138.455 135.693 133.154 130.588 128.508 124.963C126.591 122.632 124.768 120.217 123.075 117.662C122.739 117.165 122.398 116.644 122.081 116.118C121.735 115.574 121.389 115.029 121.067 114.48C120.121 112.926 119.25 111.318 118.421 109.675C117.842 108.536 117.295 107.377 116.767 106.19C116.017 104.455 115.309 102.686 114.661 100.853C114.647 100.844 114.642 100.82 114.636 100.797C114.305 99.8757 113.998 98.9495 113.709 97.9943C113.699 97.9882 113.697 97.9803 113.703 97.9706C113.405 97.0299 113.125 96.0603 112.869 95.0853C112.509 93.7603 112.177 92.3918 111.864 90.9944C111.57 89.6297 111.294 88.2361 111.07 86.7937C110.583 83.905 110.217 80.8896 109.976 77.7094C109.858 76.1311 109.773 74.533 109.725 72.8769C109.612 68.8842 109.676 61.8861 110.839 55.4948C111.48 56.3722 112.94 58.9753 113.57 60.4511L113.57 60.4496Z" fill="white"/>
</svg>
