<svg width="138" height="209" viewBox="0 0 138 209" fill="none" xmlns="http://www.w3.org/2000/svg">
<path d="M105.405 106.677C106.131 97.1332 105.704 87.396 104.064 77.4508C102.625 68.746 100.333 58.1621 95.8015 47.5039C91.3895 37.1206 85.1273 27.5171 76.925 19.6813C72.2583 15.2249 67.0299 11.3775 61.4119 8.19121C56.0336 5.13116 47.1796 -0.209071 40.9549 0.00632135C40.9249 3.9725 44.3631 8.95622 45.4118 12.9373C46.7002 17.8467 47.3744 22.9121 47.5092 27.9776C47.7789 38.2198 45.8613 48.4918 42.2058 58.0581C35.1496 76.515 22.2057 92.2386 7.67387 105.734C-0.977844 113.77 -10.2813 121.168 -18.109 129.999C-25.9367 138.83 -32.3188 149.414 -33.7195 161.09C-35.0903 172.491 -31.3824 184.397 -23.7794 193.049C-11.255 207.295 5.67385 207.228 23.2245 207.369C30.85 207.429 38.483 207.399 46.1159 207.169C58.116 206.805 67.0074 202.957 75.6441 195.842C86.3108 187.056 91.0899 169.007 105.24 160.993C96.0187 161.379 91.3445 163.444 86.2134 165.769C87.8764 162.397 89.1198 159.76 90.4756 157.168C98.9625 140.925 104.094 124.124 105.405 106.677ZM82.4157 48.618C75.2171 34.1571 63.689 19.9041 49.7564 6.4458C64.2059 13.2789 79.6666 30.6291 88.6854 48.1353C91.4194 53.4309 93.5543 58.7415 94.9026 63.7772C95.5093 66.0574 95.9588 68.3895 96.2959 69.8824C96.5056 72.1626 95.8539 73.3435 94.5206 73.6481C93.2996 73.9303 92.5056 72.8236 92.0262 71.7838C90.5805 68.6049 88.8202 65.5152 87.8314 62.1951C86.4906 57.6645 84.6629 53.1264 82.4157 48.618Z" fill="#FF742E"/>
<path d="M88.6853 48.1355C86.5954 48.2989 84.5055 48.4549 82.4156 48.6183C75.2171 34.1573 63.689 19.9043 49.7563 6.44604C64.2058 13.2792 79.6666 30.6294 88.6853 48.1355Z" fill="white"/>
<path d="M137 70.4695C132.64 84.6928 124.52 96.5096 110.992 103.558C109.082 104.553 107.217 105.593 105.404 106.678C95.2692 112.716 86.5426 120.218 79.6062 129.977C73.8684 138.065 70.8196 147.156 68.7148 156.7C67.2166 163.482 65.6211 170.307 62.9769 176.754C59.8683 184.315 57.2691 185.823 49.0144 186.566C36.5274 187.68 23.5236 183.624 14.2202 175.217C2.13779 164.291 -3.14313 146.51 1.03666 130.839C2.42842 125.616 5.50485 121.006 7.47264 116.009C9.53257 110.777 11.8217 105.634 14.3184 100.594C19.1993 90.7416 24.8892 81.2829 31.3162 72.3449C36.7207 64.8284 41.4945 59.2773 50.1207 55.3802C57.6698 51.9688 65.8743 50.3073 74.0781 49.3841C76.8496 49.0722 79.6287 48.8419 82.4152 48.6191C84.5051 48.4557 86.595 48.2997 88.6849 48.1363C91.0594 47.9581 93.434 47.7575 95.801 47.505C98.3104 47.245 100.805 46.9257 103.299 46.5172C114.146 44.7346 131.809 28.7808 131.809 28.7808C131.809 28.7808 140.977 57.4866 137 70.4695Z" fill="#FFA045"/>
<path d="M107.721 95.2389C127.242 68.8423 131.512 45.0601 131.512 45.0601C131.512 45.0601 140.523 73.6923 107.721 95.2389Z" fill="white"/>
<path d="M-20.807 198.033C-20.7501 198.971 -20.5493 199.961 -20.1613 201.018C-15.5208 213.672 3.42377 207.466 13.4126 207.56C17.5189 207.599 21.265 205.352 24.9235 203.478C29.6224 201.073 33.707 197.811 37.7003 194.421C41.731 191 46.4644 189.329 51.7146 189.065C59.1131 188.693 66.042 190.523 72.654 193.671C78.6952 196.547 84.7671 198.218 94.027 205.337C95.1432 199.354 94.8952 194.84 93.9357 191.375C90.8218 180.131 82.0195 174.808 71.639 171.441C66.8599 169.891 61.824 169.619 55.9618 169.476C65.5416 157.143 69.6652 143.428 73.3042 129.49C75.254 122.022 76.4285 114.346 79.2952 107.117C81.4982 101.562 84.1514 96.2978 89.2555 92.7513C90.9551 91.5703 92.7544 90.4733 91.9199 88.0951C91.1072 85.7785 88.9798 85.7399 86.9252 85.8884C75.9513 86.6817 66.3026 90.535 58.1198 97.9489C49.2262 106.007 43.4494 116.088 38.555 126.805C34.9317 134.739 31.6373 142.863 26.4531 149.988C24.3639 152.859 22.3227 155.858 18.7796 157.834C18.7796 155.998 18.88 154.587 18.7609 153.193C18.3729 148.648 17.2785 144.334 14.2635 140.709C13.1661 139.39 11.7511 138.708 10.1234 139.36C8.25975 140.106 8.5047 141.833 8.7871 143.366C9.06575 144.881 9.58859 146.35 9.91593 147.858C11.1466 153.517 9.10394 158.156 5.23052 162.893C4.64625 156.799 4.47996 151.258 1.82228 146.281C-0.57099 141.798 -4.39573 141.558 -6.90884 145.932C-9.40173 150.268 -12.3733 154.164 -16.0527 157.51C-20.0355 161.132 -20.4003 165.388 -18.7448 170.132C-17.7261 173.051 -16.5636 175.931 -15.7433 178.904C-13.5583 186.826 -21.234 190.99 -20.807 198.032V198.033Z" fill="#D12E2A"/>
</svg>
