<svg width="185" height="143" viewBox="0 0 185 143" fill="none" xmlns="http://www.w3.org/2000/svg">
<path d="M116.494 46.922C112.235 60.3335 88.4107 72.6466 70.7389 70.2885C53.067 67.9304 17.8013 88.7488 4.09042 105.882C-9.62041 123.016 15.8701 105.933 28.4628 101.824C41.0564 97.7155 68.0771 93.5586 86.2623 108.014C94.489 114.234 110.042 107.878 110.042 107.878C98.5182 101.297 106.96 87.144 119.164 94.995C131.368 102.846 137.436 103.196 137.436 103.196C130.184 97.2709 129.493 93.2299 129.493 93.2299C151.927 102.799 179.766 79.0908 178.655 55.0152C177.33 26.3093 130.615 2.44828 116.494 46.921L116.494 46.922Z" fill="#E86F2D"/>
<path d="M47.2462 91.0453C63.7027 67.9619 98.6112 69.3898 108.525 76.0149C118.439 82.6401 129.929 80.9069 129.929 80.9069C116.916 76.4296 113.365 69.1789 113.365 69.1789C126.916 76.7999 142.274 70.997 146.928 64.4246C151.582 57.8522 144.926 48.9945 139.787 53.7441C137.972 55.5424 139.368 57.1235 139.368 57.1235C141.457 56.1602 141.691 58.5461 140.469 60.2714C139.248 61.9966 134.777 64.234 129.651 60.6038C124.525 56.9736 125.479 48.6205 128.377 44.5291C131.273 40.4375 144.116 32.1617 155.158 39.9806C166.2 47.7995 167.279 64.2531 159.275 75.5591C151.27 86.864 132.338 91.025 107.698 86.8009C83.0578 82.5778 73.1669 80.064 47.2473 91.0445L47.2462 91.0453Z" fill="url(#paint0_linear_3576_39804)"/>
<path d="M142.823 80.8841C163.17 73.2407 166.517 45.7556 145.95 41.8639C141.691 41.1139 137.307 42.4181 134.19 45.425C131.33 48.1848 129.818 52.4522 131.915 56.1693C132.835 57.8006 134.396 59.0585 136.185 59.6102C134.92 58.5648 134.326 56.8397 134.44 55.2016C134.554 53.5635 135.311 52.0185 136.349 50.7462C137.315 49.5618 138.714 48.1491 140.124 47.5353C141.644 46.8729 143.394 46.6044 145.043 46.7102C149.56 47.0021 157.044 51.9015 156.507 60.2194C155.97 68.5374 148.167 76.8703 142.824 80.8833L142.823 80.8841Z" fill="#F19A42"/>
<defs>
<linearGradient id="paint0_linear_3576_39804" x1="80.9097" y1="114.876" x2="141.028" y2="29.9715" gradientUnits="userSpaceOnUse">
<stop stop-color="#C31432"/>
<stop offset="1" stop-color="#240B36"/>
</linearGradient>
</defs>
</svg>
