<svg width="197" height="123" viewBox="0 0 197 123" fill="none" xmlns="http://www.w3.org/2000/svg">
<mask id="mask0_3576_39832" style="mask-type:alpha" maskUnits="userSpaceOnUse" x="0" y="-12" width="207" height="102">
<rect width="207" height="101" transform="matrix(1 0 0 -1 0 89.7881)" fill="white"/>
</mask>
<g mask="url(#mask0_3576_39832)">
<path d="M92.2544 28.9819C94.3626 42.8946 115.967 58.7834 133.79 59.2191C151.613 59.6548 183.188 85.7341 194.049 104.802C204.91 123.869 182.406 103.009 170.612 96.9807C155.88 94.2451 133.79 88.2451 113.88 96.9807C104.782 101.837 89.0896 90.1966 89.0896 90.1966C101.501 85.4998 95.3777 70.2002 82.0955 76.0451C68.8143 81.89 62.766 81.2862 62.766 81.2862C70.8558 76.569 72.1701 72.6857 72.1701 72.6857C48.515 78.6276 24.7285 50.8556 29.5922 27.2502C35.3917 -0.894969 85.2647 -17.1535 92.2544 28.9809L92.2544 28.9819Z" fill="#E86F2D"/>
<path d="M153.746 83.3956C141.103 58.0219 106.401 53.9707 95.5728 58.9632C84.7443 63.9557 73.6671 60.4462 73.6671 60.4462C87.221 58.0601 91.8618 51.4541 91.8618 51.4541C77.2859 56.8613 63.0245 48.727 59.4564 41.5075C55.8884 34.2879 63.8477 26.5805 68.1801 32.0756C69.6918 34.1358 68.0658 35.4791 68.0658 35.4791C66.1534 34.2008 65.5483 36.5207 66.4852 38.4158C67.422 40.3109 71.4878 43.2202 77.1186 40.4367C82.7494 37.6532 83.1136 29.2537 80.8918 24.7593C78.671 20.2649 67.2817 10.0818 55.1522 16.0769C43.0228 22.072 39.3826 38.1541 45.5197 50.5731C51.6568 62.9911 69.7054 70.0629 94.7027 69.7458C119.7 69.4297 129.862 68.4943 153.745 83.3946L153.746 83.3956Z" fill="url(#paint0_linear_3576_39832)"/>
<path d="M60.936 58.4062C42.0351 47.6735 43.0291 20.0033 63.9524 19.3774C68.2758 19.3028 72.4024 21.2769 75.0104 24.7344C77.4035 27.9077 78.2294 32.3591 75.5767 35.7023C74.4128 37.1696 72.6737 38.1677 70.82 38.4327C72.2339 37.5982 73.0902 35.9872 73.234 34.3515C73.3778 32.7158 72.8714 31.0713 72.0458 29.6523C71.2769 28.3314 70.1159 26.7172 68.8194 25.8904C67.4219 24.9984 65.7353 24.4594 64.0894 24.3057C59.5825 23.8874 51.4246 27.5556 50.6536 35.8551C49.8826 44.1547 56.2855 53.6057 60.935 58.4052L60.936 58.4062Z" fill="#F19A42"/>
</g>
<defs>
<linearGradient id="paint0_linear_3576_39832" x1="116.768" y1="101.667" x2="70.6738" y2="8.4016" gradientUnits="userSpaceOnUse">
<stop stop-color="#C31432"/>
<stop offset="1" stop-color="#240B36"/>
</linearGradient>
</defs>
</svg>
