<svg width="172" height="208" viewBox="0 0 172 208" fill="none" xmlns="http://www.w3.org/2000/svg">
<path d="M30.8449 119.888C29.9898 117.969 28.6426 114.429 26.6805 113.677L26.1417 114.359C20.7533 122.427 17.6608 131.234 15.482 140.711C14.865 143.406 11.3587 163.325 11.3587 163.325C11.3587 163.325 10.7534 169.247 10.404 170.829C9.35634 169.166 6.70937 163.189 5.25372 163.113C3.79807 163.037 1.0055 169.461 0 176.511C1.57358 183.363 3.8129 186.268 4.55478 193.265C5.05263 197.849 5.21662 202.754 6.06002 207.258C6.73358 205.612 7.35247 204.353 9.04319 203.575C11.3821 202.5 14.213 203.113 16.4738 204.098C18.3421 204.914 19.6736 205.949 21.0246 207.481C23.3713 204.469 25.1109 200.715 26.9109 197.348C32.2974 189.68 33.8378 178.71 36.1044 169.736C37.3852 164.663 38.9978 159.461 39.7085 154.273C38.5488 142.727 35.5559 130.454 30.8449 119.888Z" fill="#467943"/>
<path d="M39.7084 154.271C38.9977 159.459 37.3851 164.661 36.1043 169.734C33.8377 178.708 32.2973 189.679 26.9108 197.346C26.2412 189.565 26.6453 181.518 26.6668 173.697L26.7156 134.713C26.7215 129.056 27.559 119.597 26.1416 114.355L26.6804 113.673C28.6425 114.425 29.9897 117.965 30.8448 119.884C35.5558 130.45 38.5487 142.726 39.7084 154.271Z" fill="#609E51"/>
<path d="M105.781 128.022C103.453 135.343 102.227 145.096 99.3717 151.815C97.1671 152.6 95.0958 153.696 92.864 154.404C89.862 155.354 86.6596 155.696 83.5655 156.254C77.5015 157.324 69.1759 189.747 63.0868 190.646C61.4024 191.633 30.7049 190.549 30.7049 190.549C30.7049 190.549 28.5244 188.525 26.6102 187.248C25.5697 186.988 24.4228 187.041 23.4401 186.622L23.2698 186.043C23.2041 183.431 23.1288 180.825 22.6748 178.243C24.3404 176.404 25.6377 174.062 26.9589 171.971C30.813 167.264 32.2769 160.27 34.1356 154.591C35.1859 151.381 36.4595 148.102 37.1401 144.794C39.5238 141.513 41.6566 134.349 43.2154 130.318L51.1047 126.08C55.6237 123.6 60.2102 121.251 64.8642 119.036C66.2155 118.766 67.5797 118.255 68.9045 117.857C70.6503 115.026 73.2081 112.648 74.6301 109.625C76.8093 104.994 77.4736 99.4461 78.7193 94.5116C80.6136 87.1507 82.6155 79.8186 84.7261 72.518C86.0913 66.9842 87.7052 59.3167 89.9336 54.2196C91.2841 55.6721 92.6028 57.1174 93.6277 58.8287C93.6386 58.9002 93.6482 58.9717 93.6618 59.0409C94.2988 62.6656 97.5806 65.3887 98.4423 68.9852C99.1587 71.9745 91.9794 97.3569 90.4158 101.404L90.0297 101.703C90.0798 102.488 90.3396 102.996 90.7009 103.668C92.3413 106.303 105.662 126.941 105.781 128.022Z" fill="url(#paint0_linear_3576_39706)"/>
<path d="M53.5923 131.19C56.4056 130.25 59.1524 129.041 61.9033 127.93L53.2618 169.328C51.0753 171.84 48.315 174.085 45.8781 176.366C42.1442 179.859 38.4879 183.446 34.7168 186.896C33.4146 188.088 31.8413 189.169 30.6232 190.415L30.2117 190.145C30.096 188.432 37.2834 175.572 38.5205 173.205C40.117 170.152 41.8799 167.094 43.2078 163.914C45.6929 157.963 47.4145 151.529 49.4131 145.396C50.9324 140.734 52.73 136.028 53.5909 131.191L53.5923 131.19Z" fill="#3E6437"/>
<path d="M65.3585 159.096C65.4467 158.504 65.5553 157.914 65.726 157.34C66.6182 154.347 68.0146 151.382 69.1901 148.488C71.4556 142.892 73.7536 137.31 76.0818 131.74C79.4666 123.525 82.5607 115.223 86.2655 107.139C86.8926 105.772 87.3837 104.336 88.0557 102.992C88.3747 102.353 88.7066 101.775 89.3544 101.432L90.0285 101.703C90.0788 102.487 90.3386 102.995 90.6998 103.667C89.71 106.295 88.6713 116.924 88.1974 120.263C86.7368 130.544 84.9273 140.844 83.7022 151.147C83.5516 152.413 83.0565 154.936 83.4951 156.111C83.5137 156.161 79.8987 189.099 79.9228 189.146C74.9478 189.472 68.9724 189.879 62.8847 190.775L65.3585 159.096Z" fill="#467943"/>
<path d="M79.9228 189.146L83.493 156.111C83.0544 154.936 83.5495 152.413 83.7001 151.147C84.9252 140.844 86.7359 130.544 88.1953 120.263C88.6692 116.924 89.7079 106.295 90.6977 103.667C92.3381 106.303 106.315 125.972 106.434 127.053C104.107 134.375 95.3943 188.848 95.3943 188.848C95.3943 188.848 91.7003 188.143 88.9821 188.437C85.2432 188.842 83.0157 188.586 79.9228 189.146Z" fill="#3E6437"/>
<path d="M225.398 164.154C225.447 163.99 225.499 163.815 225.522 163.644C226.024 159.801 221.294 134.259 219.168 131.356C219.221 131.192 219.246 131.035 219.246 130.862C219.232 128.85 217.195 124.425 215.735 122.931C215.734 123.087 215.745 123.164 215.715 123.309C215.556 124.054 214.859 124.591 214.281 125.012C214.208 126.612 212.502 129.536 211.371 130.614C211.179 130.797 210.689 130.803 210.422 130.848C210.771 131.335 210.842 131.352 210.739 131.977C210.497 133.396 206.057 144.508 205.372 145.018C205.309 145.066 205.239 145.109 205.171 145.153C204.785 142.152 196.4 133.045 194.235 129.743C191.96 125.463 187.854 120.232 186.879 115.533C186.739 112.537 185.962 109.62 185.275 106.713C184.983 102.008 183.859 97.1842 183.024 92.5391C182.46 89.6241 181.938 86.7014 181.461 83.77C180.926 80.3568 180.568 76.8866 179.436 73.6065C177.664 70.5393 172.474 64.9517 169.918 62.1965C168.917 59.1426 168.073 56.0446 167.221 52.9475C165.972 42.1816 149.22 16.759 142.232 8.24683L141.869 8.18621C140.744 9.06906 139.892 10.5326 139.078 11.6983C134.695 17.9822 131.6 24.5084 128.634 31.5365L118.497 34.8952C117.793 37.7328 117.193 40.6468 116.356 43.4425C116.12 44.3295 115.922 45.2486 115.638 46.1183L98.1356 52.5196C95.3747 53.5065 92.5799 54.6806 89.7696 55.4929C91.1201 56.9454 92.4389 58.3908 93.4637 60.102C93.4746 60.1736 93.4842 60.2451 93.4978 60.3143C94.1349 63.9389 97.4167 66.6621 98.2783 70.2586C98.9947 73.2478 91.8154 98.6303 90.2518 102.677L89.8657 102.976C89.9158 103.761 90.1756 104.269 90.5369 104.942C92.1774 107.576 106.968 118.712 105.711 128.297C101.148 149.268 95.3104 188.844 95.3104 188.844C95.3104 188.844 185.127 192.912 218.983 193.376C218.983 193.376 218.594 194.168 219.168 193.592C219.742 193.017 219.913 192.197 220.103 191.43C221.024 187.658 221.37 183.743 222.116 179.931C222.938 175.743 224.176 171.706 225.203 167.577C225.428 166.677 225.905 164.983 225.402 164.148L225.398 164.154Z" fill="#8EA352"/>
<path d="M122.941 80.4313C127.419 83.5815 132.325 87.1999 135.861 91.4149C138.078 94.0582 139.722 97.2035 141.468 100.166C143.434 103.536 145.437 106.884 147.475 110.212C149.205 113.081 150.614 116.282 152.776 118.847C156.756 123.572 162.071 127.838 166.925 131.663C169.13 133.4 171.663 135.057 173.618 137.063C175.049 143.765 175.827 150.673 177.462 157.314C182.025 159.696 204.531 173.166 207.603 173.638L207.787 173.854C208.823 175.368 214.356 181.05 214.245 182.878C215.53 184.032 219.355 193.565 219.355 193.565L206.577 192.746L167.976 191.563L141.171 190.491C141.171 190.491 142.923 162.422 143.16 157.669L143.284 157.495C143.155 151.329 143.688 145.054 144.072 138.905C140.978 142.091 137.652 145.086 134.381 148.088C134.371 140.361 131.719 132.513 130.749 124.84L130.672 124.573C129.284 118.461 128.542 112.247 127.494 106.075L122.945 80.429L122.941 80.4313Z" fill="#B0CE5D"/>
<path d="M142.4 6.97021C149.385 15.4809 166.139 40.905 167.388 51.6695C168.239 54.7679 169.083 57.8646 170.084 60.9185C172.639 63.6736 177.83 69.2613 179.602 72.3285C178.041 76.5624 178.257 87.6126 177.83 92.82C174.706 88.3453 170.559 84.9804 166.74 81.1494C164.971 89.2129 164.058 99.6045 163.052 107.945C162.05 103.177 161.606 98.2941 161.014 93.4623C160.43 88.5678 159.714 83.6944 158.862 78.8395C156.846 76.4139 154.519 74.1747 152.388 71.8448C148.483 67.5985 144.707 63.2393 141.058 58.7697L141.06 58.235C141.829 55.2816 140.297 39.4821 140.182 35.0429C139.947 25.9683 141.756 16.1032 142.4 6.97021Z" fill="#B0CE5D"/>
<path d="M154.884 35.4434C157.483 40.3934 162.281 49.8118 166.416 53.2764C166.463 53.3168 166.513 53.3534 166.56 53.3926L166.418 53.4415L166.979 53.2429C166.958 52.6655 167.039 52.333 167.308 51.818C167.334 51.7681 167.361 51.7196 167.388 51.6698C168.239 54.7681 169.084 57.8649 170.084 60.9187C165.623 58.6935 161.195 56.607 156.816 54.2016C155.98 47.9765 155.576 41.6876 154.884 35.4434Z" fill="#8BBF56"/>
<path d="M141.398 98.9055C138.855 96.9384 136.423 94.8831 133.97 92.8085C129.45 98.6236 125.904 105.39 122.118 111.71C120.435 114.517 118.652 118.215 116.28 120.475C113.976 122.666 106.517 125.771 105.752 127.655C105.632 126.573 92.278 106.817 89.8781 104.086C89.5169 103.413 90.0809 102.488 90.0308 101.702L90.4169 101.404C91.9806 97.3556 99.1611 71.9745 98.4434 68.9851C97.5817 65.3886 94.2999 62.6655 93.6629 59.0408C93.6493 58.9704 93.6397 58.9002 93.6288 58.8286C92.6039 57.1186 91.2864 55.6721 89.9347 54.2195C92.7462 53.4073 95.541 52.2331 98.3007 51.2461L115.803 44.8449C116.087 43.9751 116.285 43.0561 116.521 42.1691C117.358 39.3734 117.958 36.4594 118.662 33.6217L128.799 30.263C131.764 23.2349 134.861 16.7075 139.243 10.4248C140.057 9.25785 140.909 7.79563 142.034 6.91277L142.398 6.97339C141.755 16.1064 139.946 25.9728 140.181 35.0474C140.296 39.4879 141.828 55.2849 141.059 58.2396L141.057 58.7755C140.76 65.182 140.954 71.5824 141.044 77.9905C141.144 84.9777 141.176 91.9245 141.398 98.9093L141.398 98.9055Z" fill="#698646"/>
<path d="M141.06 58.2358C136.697 59.5002 129.411 65.2297 125.445 67.9887C124.214 71.12 123.052 74.2751 121.957 77.4589C119.247 79.3266 116.522 81.1934 113.616 82.747C112.749 88.4159 111.846 94.0773 110.909 99.734C110.386 102.961 109.749 106.218 109.432 109.472C108.72 105.965 108.971 102.125 108.86 98.5434C108.659 92.1451 108.317 85.7454 108.454 79.3404C105.469 74.8347 102.374 70.4057 99.1667 66.0546C97.4324 63.6586 95.6869 60.954 93.6288 58.8286C92.6039 57.1186 91.2864 55.6721 89.9347 54.2195C92.7462 53.4072 95.541 52.2331 98.3007 51.2461L115.803 44.8449C116.087 43.9751 116.285 43.0561 116.521 42.1691C117.358 39.3734 117.958 36.4594 118.662 33.6217L128.799 30.263C131.764 23.2349 134.861 16.7075 139.243 10.4248C140.057 9.25785 140.909 7.79563 142.034 6.91277L142.398 6.97339C141.755 16.1064 139.946 25.9728 140.181 35.0474C140.296 39.4879 141.828 55.2849 141.059 58.2396L141.06 58.2358Z" fill="#8BBF56"/>
<path d="M127.344 42.8462L118.81 52.4353C116.72 54.7706 114.332 57.1113 112.702 59.7917C113.271 54.6773 115.025 49.8887 115.804 44.8444C116.088 43.9746 116.286 43.0556 116.522 42.1686C117.359 39.3729 117.959 36.4589 118.663 33.6212L128.8 30.2625C128.685 34.4099 127.843 38.7144 127.344 42.8462Z" fill="#609E51"/>
<defs>
<linearGradient id="paint0_linear_3576_39706" x1="22.0352" y1="123.241" x2="87.4721" y2="121.785" gradientUnits="userSpaceOnUse">
<stop stop-color="#55723D"/>
<stop offset="1" stop-color="#799449"/>
</linearGradient>
</defs>
</svg>
