<svg width="540" height="245" viewBox="0 0 540 245" fill="none" xmlns="http://www.w3.org/2000/svg">
<path d="M326.91 71.4743C325.485 69.3324 323.137 65.334 320.596 64.8227L320.076 65.7541C315.121 76.5718 313.11 87.8166 312.347 99.6856C312.133 103.06 311.837 127.791 311.837 127.791C311.837 127.791 312.282 135.055 312.171 137.033C310.583 135.262 306.569 128.21 304.356 128.767C302.143 129.323 302.595 137.074 301.144 140.915C304.429 148.861 307.222 156.983 309.523 165.272C311.044 170.7 312.223 176.583 314.15 181.845C314.642 179.724 315.145 178.082 317.05 176.802C319.685 175.034 323.257 175.202 326.208 175.934C328.647 176.541 337.818 174.933 339.77 176.508C342.028 172.402 337.578 165.689 337.578 165.689C337.578 165.689 342.298 141.813 343.268 130.532C343.816 124.156 344.743 117.557 344.573 111.157C340.856 97.4662 334.759 83.2673 326.91 71.4743Z" fill="#467943"/>
<path d="M345.787 113.446C347.73 124.884 347.687 136.303 346.93 145.106C345.959 156.387 344.583 163.431 339.55 173.765C337.181 164.515 334.094 146.65 332.559 137.213L324.838 90.186C323.716 83.3622 322.848 71.7854 320.075 65.749L320.595 64.8176C323.136 65.3289 325.484 69.3274 326.909 71.4692C334.758 83.2623 343.844 102.009 345.787 113.446Z" fill="#609E51"/>
<path d="M169.624 17.5163C173.654 20.0368 177.65 22.5332 181.786 24.8772L182.038 25.0462C189.635 30.0859 200.663 33.5191 207.333 39.2648C213.028 44.1715 217.276 50.8111 222.042 56.5825C227.567 63.2731 233.868 69.2373 240.063 75.2902C243.639 78.7826 247.151 82.5762 251.144 85.5828C255.995 88.9794 261.49 91.4385 266.943 93.6889C268.805 98.3263 271.39 106.745 274.8 110.184C277.178 112.696 281.031 114.803 283.855 116.856C291.69 122.551 302.204 129.732 309.199 136.26C311.533 138.016 314.585 142.148 315.276 144.967L315.592 145.245C317.429 147.244 321.993 151.534 322.217 154.236C324.341 155.655 333.582 165.671 333.933 167.898C333.945 168 333.932 168.104 333.931 168.207C336.059 169.157 339.055 171.617 340.009 173.8L339.956 174.671C339.444 175.793 338.268 176.681 337.206 177.277L336.894 176.873C330.434 176.61 324.027 175.643 317.572 175.397C298.921 174.829 280.275 174.908 261.63 175.632C261.266 174.076 259.843 171.939 258.623 170.889C256.229 168.828 253.482 168.925 250.526 169.189C249.136 167.44 248.3 165.289 246.994 163.472C245.388 161.238 242.775 159.563 240.044 159.16C237.562 158.794 234.902 159.553 232.917 161.069C229.859 163.404 229.356 166.446 228.903 170.022C227.472 170.005 226.288 170.091 225.211 171.191C222.87 173.584 224.571 178.379 221.854 180.23C219.631 180.102 217.534 180.769 215.359 180.725C209.296 180.246 198.307 183.156 191.824 184.106C180.608 185.657 169.305 187.402 158.006 188.153C151.563 188.816 145.152 189.716 138.716 190.418C137.028 189.468 135.358 188.889 133.509 188.322C131.854 185.876 130.088 183.043 127.349 181.701C124.788 180.444 122.337 180.878 119.747 181.761C117.912 177.664 115.74 172.238 111.236 170.402C106.238 168.366 104.596 174.018 101.983 175.051C100.594 174.612 99.166 174.267 97.8003 175.02C96.6335 175.663 95.9975 176.746 95.3642 177.864C94.8587 180.538 94.7723 182.946 95.0465 185.645C92.6526 186.89 90.8221 187.958 89.8919 190.636C89.3538 192.183 89.3228 194.162 89.249 195.795C87.5717 196.609 85.9044 197.452 84.1829 198.166C80.8435 196.803 68.1417 200.253 63.7803 200.799C63.4424 199.334 63.0472 197.939 62.39 196.58C61.0801 193.874 58.9004 191.469 55.9994 190.49C53.1553 189.53 52.0527 191.956 49.4366 193.236C49.0931 193.517 46.7468 195.36 46.7468 195.36C46.7468 195.36 49.544 169.617 58.3911 158.557C61.4748 154.702 65.0372 150.828 67.7072 146.685C72.5875 140.929 77.3593 133.838 83.2442 129.137C91.9631 126.536 100.641 123.971 109.287 121.12C113.694 119.646 118.312 118.468 122.502 116.44C125.618 114.931 128.416 112.89 131.476 111.273C134.234 100.825 133.963 86.279 135.821 75.0602C136.278 70.7478 146.681 65.4804 149.587 61.7827C152.584 57.9687 154.41 52.1742 156.278 47.7055C160.481 37.646 164.239 26.9843 169.621 17.5089L169.624 17.5163Z" fill="#8BBF56"/>
<path d="M97.7122 140.836C98.2913 148.414 99.3712 155.984 100.362 163.517C100.859 167.28 101.984 175.058 101.984 175.058C101.984 175.058 106.335 189.655 106.869 196.366C102.246 197.741 88.9556 198.8 85.2238 199.097C78.5383 199.63 63.7812 200.806 63.7812 200.806C63.7812 200.806 52.8879 200.668 48.6497 202.012C45.0795 198.357 46.7467 195.359 47.8098 191.476C50.0787 186.989 53.1283 182.587 56.4514 178.817C63.7058 170.589 73.5707 162.756 81.7315 155.282C86.917 150.533 91.8692 144.724 97.7101 140.835L97.7122 140.836Z" fill="#609E51"/>
<path d="M159.91 63.3586C160.624 59.3314 161.455 55.3292 162.401 51.3503C163.332 47.5597 168.732 28.1083 171.67 26.3272L183.753 62.9384C186.592 71.7604 188.992 80.7072 192.317 89.3665C185.267 93.3201 179.639 100.63 173.451 105.854L160.089 86.9621C153.409 93.8025 146.102 99.9881 139.009 106.388C138.316 95.8534 140.839 82.9086 143.648 72.7655C148.931 69.3786 154.397 66.3361 159.914 63.3564L159.91 63.3586Z" fill="#698646"/>
<path d="M165.695 130.655L166.643 131.003C177.332 139.679 187.075 149.452 197.595 158.326C200.604 154.204 203.776 150.212 207.115 146.354C210.454 142.495 213.947 138.781 217.593 135.212C218.251 142.225 219.885 176.835 221.853 180.238C219.629 180.11 217.533 180.777 215.358 180.733C209.295 180.253 198.305 183.163 191.822 184.113C180.607 185.664 169.303 187.409 158.005 188.161C159.106 180.545 160.089 172.908 161.267 165.305C162.295 158.669 163.53 152.058 164.394 145.397C165.029 140.494 165.09 135.552 165.695 130.655Z" fill="#698646"/>
<path d="M97.7122 140.837C116.811 139.379 120.673 135.667 136.364 126.37C132.204 140.299 127.304 154.033 123.08 167.95C127.254 161.924 130.499 155.142 135.18 149.467C140.077 143.533 147.749 140.956 154.4 137.453C158.322 135.387 162.034 133.151 165.695 130.653C165.088 135.549 165.029 140.49 164.394 145.393C163.532 152.055 162.295 158.665 161.267 165.302C160.089 172.906 159.108 180.541 158.005 188.158C151.562 188.82 145.151 189.721 138.715 190.423C132.279 191.125 114.364 194.745 106.864 196.297C105.946 192.307 101.982 175.055 101.982 175.055C101.982 175.055 100.856 167.277 100.36 163.514C99.3691 155.981 98.2892 148.411 97.71 140.833L97.7122 140.837Z" fill="#698646"/>
<path d="M171.67 26.3256C178.889 29.9936 186.834 34.257 192.901 39.684C196.705 43.0877 199.776 47.348 202.957 51.3188C206.548 55.8394 210.188 60.3218 213.874 64.766C217.012 68.6028 219.75 72.9946 223.458 76.2952C230.282 82.3761 238.961 87.5015 246.874 92.0786C250.469 94.1564 254.525 96.0484 257.81 98.5747C261.323 108.09 263.924 118.046 267.721 127.43C274.903 129.955 310.686 144.928 315.281 144.969L315.597 145.247C317.433 147.246 321.997 151.536 322.222 154.238C324.346 155.657 333.587 165.672 333.938 167.9C333.949 168.002 333.937 168.106 333.936 168.209C336.064 169.159 339.06 171.619 340.014 173.802L339.961 174.673C339.448 175.795 338.272 176.683 337.211 177.279L336.898 176.875C330.439 176.612 324.031 175.645 317.577 175.399C298.926 174.831 261.635 175.634 261.635 175.634C261.635 175.634 231.47 176.817 221.859 180.232C219.893 176.829 218.257 142.22 217.599 135.206L217.744 134.925C216.251 125.919 215.704 116.613 214.964 107.522C211.111 112.844 206.877 117.937 202.725 123.027C201.076 111.708 195.534 100.771 192.491 89.7348L192.322 89.3606C188.998 80.6994 186.598 71.7526 183.758 62.9325L171.676 26.3213L171.67 26.3256Z" fill="#8EA352"/>
<path d="M192.486 89.7427C200.035 92.3646 211.492 97.2055 217.452 102.305C220.629 105.023 223.276 108.414 225.823 111.714C228.588 115.297 231.297 119.6 235.1 122.15C241.039 126.132 247.904 128.854 254.387 131.823C257.39 133.199 260.614 134.522 263.295 136.472C267.506 139.532 269.402 145.291 273.995 147.792C279.233 150.645 304.325 157.675 306.305 160.857C306.352 160.934 306.381 161.019 306.42 161.1C295.413 158.649 279.924 161.13 268.845 163.014C260.926 158.6 253.307 153.663 245.356 149.327C241.725 149.707 238.082 150.092 234.441 150.348C229.923 144.078 224.345 138.688 219.827 132.456L217.741 134.933C216.247 125.927 215.7 116.621 214.96 107.53C211.107 112.852 206.874 117.945 202.722 123.035C201.072 111.715 195.529 100.779 192.486 89.7427Z" fill="#B0CE5D"/>
<path d="M329.951 165.401C329.951 165.401 359.45 167.681 374.127 169.588C379.203 170.286 384.185 171.552 389.263 172.264L389.478 172.608C389.467 172.656 389.458 172.705 389.444 172.754C388.801 175.211 386.917 177.421 388.37 180.035C388.803 180.813 389.382 181.464 390.009 182.091C393.769 182.223 413.924 185.488 416.745 186.791L420.936 187.778C421.935 188.051 423.031 188.426 424.075 188.388C424.953 188.357 425.499 188.109 426.078 187.456C426.943 185.498 426.409 183.628 425.848 181.677C431.606 182.487 437.258 184.627 442.738 186.522C456.006 191.108 468.626 196.381 481.339 202.297C483.218 203.17 487.199 204.433 488.512 205.727C488.578 205.791 488.62 205.878 488.672 205.955C496.12 209.398 503.331 213.497 510.708 217.109C513.225 218.341 519.606 220.471 521.423 222.028C517.21 224.051 489.369 229.299 484.481 229.182C482.155 230.329 475.509 230.603 472.669 230.933C457.272 232.707 441.844 234.155 426.389 235.276C419.115 235.799 411.794 236.405 404.504 236.612C400.508 237.563 383.86 238.143 379.424 237.894C371.592 238.984 363.175 238.945 355.269 238.782C349.517 239.537 343.245 239.466 337.442 239.287C330.149 239.682 322.852 239.827 315.55 239.724C311.797 239.698 307.952 239.369 304.213 239.623C301.002 239.838 297.679 239.603 294.455 239.602C286.224 239.614 277.994 239.52 269.766 239.321C252.67 239.045 235.382 239.249 218.341 237.828C213.928 238.712 207.2 237.782 202.539 237.569C195.754 237.258 189.024 237.166 182.245 236.589C176.619 236.526 170.816 235.951 165.198 235.537C156.877 235.638 148.434 234.789 140.154 234.078C135.267 233.428 130.231 233.266 125.311 232.839C110.509 231.558 95.4397 230.501 80.7709 228.14C74.2026 228.168 67.1009 226.287 60.6349 225.14C46.4815 222.628 32.3474 220.133 18.3608 216.782C12.3599 215.435 6.3786 214.007 0.417003 212.494C12.1603 208.509 34.607 197.451 34.607 197.451L99.1921 178.148C99.1921 178.148 99.3482 178.107 99.427 178.083C101.619 177.423 106.121 176.68 106.121 176.68L171.818 169.83L188.128 169.345L231.779 167.484C231.779 167.484 242.046 167.222 247.182 167.202C256.16 167.491 265.218 166.995 274.192 166.646C279.384 166.404 288.285 164.963 293.034 165.814C294.747 166.018 298.199 165.931 298.199 165.931L329.951 165.401Z" fill="#609E51"/>
<path d="M329.951 165.401C329.951 165.401 359.45 167.681 374.127 169.588C379.203 170.286 383.377 171.088 389.263 172.264C403.729 175.154 416.605 179.203 425.848 181.677C435.091 184.151 437.258 184.627 442.738 186.522C456.006 191.108 468.626 196.381 481.339 202.296C483.218 203.17 487.199 204.433 488.512 205.727C488.578 205.791 488.62 205.878 488.672 205.955C496.12 209.398 503.331 213.497 510.708 217.109C513.225 218.341 519.606 220.471 521.423 222.028C517.21 224.051 489.369 229.299 484.481 229.182L484.418 228.707C482.29 227.05 473.066 225.509 469.931 224.858C450.971 220.922 439.717 219.153 420.39 223.957C414.301 225.471 408.38 228.365 402.017 228.076C398.128 227.899 394.217 227.271 390.356 226.801C384.733 226.106 379.103 225.475 373.464 224.913C361.414 223.682 349.309 222.763 337.335 220.911C316.557 217.696 297.075 211.299 277.909 202.735C275.439 201.337 272.463 200.424 269.816 199.374C260.355 195.622 251.157 192.06 241.04 190.526C238.429 191.02 235.325 190.681 232.647 190.663L218.58 190.672C207.372 190.727 196.183 191.203 185.01 192.097C157.118 194.152 129.909 199.967 102.446 204.957C99.943 205.411 97.4444 205.055 94.9326 205.318C90.4828 205.787 86.0438 206.882 81.6528 207.744C84.5975 205.729 88.0613 204.162 91.2772 202.63C108.501 194.42 145.281 183.847 145.281 183.847L171.815 169.829L188.125 169.343L231.776 167.482C231.776 167.482 242.043 167.22 247.18 167.2C256.157 167.489 265.215 166.994 274.189 166.645C279.381 166.402 288.282 164.961 293.031 165.812C294.744 166.016 296.453 165.654 298.196 165.929C307.306 166.086 329.951 165.401 329.951 165.401Z" fill="#8BBF56"/>
<path d="M241.042 190.521C234.786 188.789 228.388 188.104 221.957 187.375C217.462 186.837 212.957 186.41 208.441 186.092C203.925 185.773 199.403 185.565 194.879 185.466C190.352 185.366 185.827 185.377 181.301 185.498C176.775 185.618 172.256 185.848 167.741 186.187C161.755 186.62 155.758 187.167 149.78 187.692C147.995 187.849 145.713 188.56 143.994 188.259C148.863 185.726 168.254 184.166 174.503 183.876C196.299 182.861 218.108 183.301 239.911 183.732C260.464 184.057 281.013 184.526 301.558 185.139L339.261 186.201C355.959 186.622 372.738 187.077 389.357 188.853C392.973 189.276 396.576 189.786 400.167 190.384C403.759 190.983 407.333 191.668 410.89 192.442C414.446 193.216 417.982 194.076 421.498 195.023C425.016 195.97 428.506 197.002 431.971 198.119C437.876 199.998 443.68 202.151 449.533 204.185C454.748 205.998 459.988 207.678 465.1 209.774C471.97 212.59 478.536 216.078 485.466 218.763C489.197 220.208 492.975 221.483 496.77 222.752C499.221 223.572 502.45 224.285 504.607 225.645C503.281 226.008 501.554 225.662 500.169 225.553C491.79 224.888 483.736 222.886 475.593 220.933C469.807 219.547 463.972 218.28 458.241 216.694C444.478 212.884 430.886 208.52 416.903 205.551C405.479 203.124 393.508 201.769 381.904 203.65C374.583 204.836 367.403 206.81 359.924 206.61C349.924 206.342 340.407 202.925 330.824 200.409C318.601 197.2 305.515 197.533 293.148 199.671C288.044 200.553 283.009 201.812 277.913 202.733C275.444 201.334 272.468 200.421 269.821 199.371C260.36 195.619 251.162 192.057 241.044 190.523L241.042 190.521Z" fill="#B0CE5D"/>
<path d="M447.219 166.105C449.42 159.714 451.513 154.32 458.03 151.199C462.263 149.175 467.451 148.802 471.874 150.423C476.749 152.206 480.913 156.285 483.012 161.003C484.719 164.84 485.435 169.109 487.323 172.854C492.863 173.504 497.954 174.374 501.571 179.075C503.413 181.471 505.217 185.936 505.287 188.936C505.754 191.111 505.774 192.741 507.289 194.426C515.654 196.449 524.899 197.225 529.958 205.265C532.524 209.344 532.905 215.151 531.819 219.754C531.471 221.229 530.989 222.651 530.409 224.05C527.268 227.569 524.249 230.661 519.636 232.104C506.991 231.138 494.584 228.576 482.04 226.838C468.853 225.012 422.87 220.781 413.946 215.949C408.357 212.925 406.011 207.279 404.119 201.554C404.209 200.526 404.335 199.501 404.5 198.478C405.211 194.227 407.384 192.242 410.689 189.87C411.463 190.069 412.027 190.021 412.816 189.985C415.115 187.777 416.062 183.902 417.823 181.159L418.199 180.576C422.184 181.487 426.301 181.068 430.338 182.154C436.047 179.792 434.748 170.337 439.974 166.841C442.377 165.23 444.589 165.528 447.215 166.108L447.219 166.105Z" fill="#467943"/>
<path d="M447.221 166.105C449.422 159.714 451.515 154.32 458.032 151.199C462.265 149.175 467.452 148.802 471.876 150.423C476.751 152.206 480.914 156.285 483.014 161.003C484.721 164.84 485.437 169.109 487.324 172.854C492.864 173.504 497.956 174.374 501.572 179.075C503.415 181.471 505.218 185.936 505.289 188.936C505.755 191.111 505.776 192.741 507.291 194.426C515.655 196.449 524.901 197.225 529.96 205.265C532.525 209.344 532.907 215.151 531.821 219.754C531.472 221.229 530.99 222.651 530.41 224.05C527.269 227.569 524.251 230.661 519.638 232.104C519.979 229.008 520.176 225.286 518.518 222.51C516.435 219.029 512.556 218.024 508.919 217.042C508.121 215.807 507.289 214.593 506.42 213.407C502.204 207.752 495.486 207.227 489.063 206.353C488.274 204.792 487.475 203.176 486.468 201.742C484.797 199.357 483.327 198.742 480.571 198.282L479.911 198.177C477.448 194.486 479.633 189.1 477.898 184.889C476.691 183.765 476.592 183.864 475.029 183.753C471.222 185.539 469.157 190.256 467.131 193.757C464.512 186.202 462.485 178.232 457.607 171.781C455.822 171.609 453.917 171.498 452.192 170.999C449.496 170.226 448.515 168.367 447.214 166.104L447.221 166.105Z" fill="#609E51"/>
<path d="M223.799 150.04C227.39 148.784 229.918 141.25 236.561 144.268C242.547 146.986 245.191 154.427 247.448 160.054C250.998 159.004 254.335 158.55 257.729 160.385C261.356 162.346 263.589 166.261 265.696 169.651C268.164 170.513 270.39 171.388 272.621 172.761C273.553 174.669 274.229 176.557 274.855 178.585C274.278 180.53 273.79 182.391 272.664 184.102C268.091 186.817 262.286 187.238 257.06 187.532C246.795 188.109 236.49 188.397 226.215 188.797C219.444 189.059 212.338 189.779 205.59 189.129C202.85 188.864 198.227 188.2 196.232 186.081C195.582 185.389 195.342 184.73 195.447 183.789C195.629 182.148 197.267 181.16 198.488 180.268C200.854 179.398 203.156 178.35 205.465 177.343C205.654 175.144 205.803 172.475 206.615 170.416C208.018 166.852 210.55 165.509 213.854 163.962C213.63 160.304 213.878 157.058 214.707 153.48C215.621 152.009 216.543 150.578 218.155 149.774C220.039 148.832 221.954 149.374 223.807 150.042L223.799 150.04Z" fill="#3E6437"/>
<path d="M223.798 150.04C227.388 148.785 229.916 141.25 236.559 144.268C242.545 146.986 245.19 154.427 247.447 160.054C250.997 159.004 254.333 158.551 257.727 160.385C261.355 162.346 263.588 166.261 265.695 169.651C268.162 170.514 270.389 171.388 272.619 172.761C273.551 174.669 274.228 176.557 274.853 178.585C274.276 180.53 273.789 182.391 272.662 184.102C261.964 172.461 259.171 178.033 250.011 171.782C247.962 172.465 245.94 173.255 243.914 174.001C241.819 170.006 239.392 167.56 235.687 165.005C235.117 162.375 234.236 157.835 232.103 155.995C231.317 155.316 231.04 155.471 230.08 155.576C228.607 156.722 228.293 158.407 227.75 160.116C223.546 157.307 219.389 155.292 214.703 153.481C215.617 152.009 216.538 150.578 218.151 149.774C220.035 148.833 221.95 149.375 223.803 150.042L223.798 150.04Z" fill="#479651"/>
<path d="M350.828 139.527C353.672 139.12 356.644 133.905 361.127 137.111C365.167 139.998 366.041 145.899 366.893 150.398C369.677 150.138 372.216 150.289 374.464 152.143C376.866 154.126 377.95 157.353 379.017 160.173C380.72 161.172 382.242 162.145 383.695 163.488C384.107 165.038 384.333 166.535 384.501 168.13C383.79 169.487 383.157 170.795 382.072 171.899C378.288 173.244 373.924 172.709 370.008 172.164C362.316 171.095 354.637 169.805 346.964 168.602C341.907 167.808 336.536 167.305 331.63 165.839C329.638 165.243 326.309 164.077 325.139 162.216C324.759 161.608 324.677 161.084 324.892 160.402C325.266 159.213 326.625 158.72 327.659 158.237C329.54 157.937 331.399 157.496 333.257 157.087C333.718 155.484 334.218 153.529 335.119 152.121C336.679 149.684 338.752 149.058 341.426 148.393C341.794 145.65 342.451 143.281 343.587 140.75C344.48 139.793 345.371 138.867 346.683 138.506C348.217 138.083 349.557 138.764 350.833 139.53L350.828 139.527Z" fill="#467943"/>
<path d="M350.827 139.527C353.671 139.12 356.644 133.905 361.127 137.111C365.166 139.998 366.041 145.899 366.892 150.398C369.676 150.138 372.215 150.289 374.463 152.143C376.865 154.126 377.949 157.353 379.016 160.173C380.719 161.172 382.241 162.145 383.694 163.488C384.106 165.038 384.332 166.535 384.5 168.13C383.789 169.487 383.156 170.795 382.072 171.899C375.841 161.711 372.959 165.433 367.082 159.464C365.463 159.671 363.85 159.961 362.239 160.219C361.27 156.953 359.828 154.786 357.455 152.351C357.416 150.319 357.426 146.827 356.113 145.152C355.63 144.534 355.402 144.608 354.675 144.546C353.416 145.18 352.937 146.383 352.286 147.57C349.58 144.876 346.794 142.776 343.584 140.75C344.477 139.793 345.368 138.867 346.68 138.506C348.215 138.083 349.555 138.764 350.83 139.529L350.827 139.527Z" fill="#609E51"/>
</svg>
