<svg width="540" height="245" viewBox="0 0 540 245" fill="none" xmlns="http://www.w3.org/2000/svg">
<path d="M332.743 66.4349C331.405 64.2376 329.219 60.1481 326.701 59.5353L326.143 60.4451C320.758 71.0553 318.298 82.2104 317.06 94.0391C316.71 97.4024 315.422 122.101 315.422 122.101C315.422 122.101 315.575 129.378 315.385 131.35C313.869 129.516 310.141 122.309 307.908 122.776C305.675 123.243 305.815 131.006 304.211 134.786C307.174 142.857 309.64 151.085 311.606 159.46C312.909 164.944 313.85 170.87 315.564 176.205C316.141 174.106 316.71 172.484 318.664 171.283C321.368 169.621 324.93 169.932 327.85 170.783C330.263 171.487 339.491 170.248 341.378 171.9C343.799 167.888 339.622 161.001 339.622 161.001C339.622 161.001 345.296 137.334 346.718 126.102C347.522 119.753 348.712 113.196 348.799 106.794C345.634 92.9653 340.112 78.5333 332.743 66.4349Z" fill="#467943"/>
<path d="M349.92 109.131C351.403 120.637 350.902 132.045 349.792 140.811C348.37 152.044 346.712 159.027 341.269 169.15C339.273 159.813 336.905 141.839 335.75 132.348L329.921 85.0487C329.074 78.1854 328.672 66.5831 326.143 60.4403L326.7 59.5306C329.218 60.1434 331.404 64.2328 332.742 66.4301C340.112 78.5286 348.438 97.6245 349.92 109.131Z" fill="#609E51"/>
<path d="M177.747 6.20967C181.673 8.88981 185.566 11.5446 189.605 14.0526L189.849 14.2316C197.238 19.572 208.119 23.4449 214.553 29.4536C220.048 34.5849 224.026 41.3896 228.556 47.3475C233.809 54.2544 239.865 60.4666 245.812 66.7631C249.245 70.3962 252.602 74.3276 256.471 77.492C261.182 81.0805 266.574 83.7581 271.933 86.2255C273.607 90.9339 275.852 99.4492 279.121 103.022C281.397 105.628 285.162 107.888 287.902 110.053C295.501 116.057 305.719 123.654 312.447 130.457C314.708 132.306 317.591 136.557 318.169 139.401L318.474 139.692C320.229 141.763 324.617 146.233 324.733 148.941C326.799 150.445 335.63 160.823 335.891 163.062C335.899 163.165 335.882 163.269 335.877 163.372C337.965 164.406 340.86 166.984 341.726 169.203L341.638 170.072C341.081 171.172 339.87 172.012 338.785 172.566L338.489 172.149C332.045 171.627 325.682 170.404 319.243 169.899C300.63 168.583 281.995 167.914 263.336 167.889C263.034 166.32 261.699 164.128 260.522 163.029C258.212 160.874 255.464 160.861 252.5 161.006C251.181 159.202 250.431 157.02 249.2 155.152C247.685 152.855 245.141 151.077 242.428 150.565C239.963 150.1 237.275 150.751 235.23 152.186C232.081 154.396 231.456 157.416 230.861 160.971C229.431 160.896 228.245 160.935 227.124 161.991C224.69 164.288 226.197 169.147 223.408 170.888C221.191 170.671 219.069 171.254 216.898 171.122C210.859 170.4 199.762 172.866 193.246 173.556C181.977 174.655 170.613 175.946 159.294 176.243C152.829 176.647 146.387 177.289 139.928 177.733C138.279 176.715 136.634 176.07 134.81 175.429C133.254 172.918 131.603 170.017 128.92 168.566C126.411 167.208 123.945 167.543 121.321 168.321C119.653 164.153 117.699 158.645 113.273 156.63C108.361 154.395 106.493 159.976 103.841 160.904C102.471 160.409 101.058 160.007 99.6628 160.704C98.4712 161.3 97.7922 162.358 97.1146 163.449C96.5022 166.101 96.3193 168.503 96.485 171.211C94.043 172.359 92.1712 173.353 91.1342 175.991C90.5345 177.516 90.4242 179.492 90.2849 181.121C88.5763 181.866 86.8765 182.642 85.1278 183.286C81.8457 181.79 69.0158 184.727 64.6359 185.098C64.3571 183.621 64.0182 182.211 63.416 180.827C62.2158 178.07 60.1343 175.58 57.275 174.485C54.4717 173.412 53.2726 175.792 50.6072 176.965C50.2527 177.233 47.8343 178.98 47.8343 178.98C47.8343 178.98 51.6622 153.371 60.9459 142.674C64.1817 138.946 67.8968 135.218 70.7308 131.185C75.838 125.63 80.8905 118.736 86.9593 114.275C95.7756 112.026 104.549 109.811 113.302 107.309C117.766 106.013 122.427 105.022 126.695 103.163C129.869 101.781 132.747 99.8537 135.869 98.3607C139.044 88.0314 139.357 73.4863 141.664 62.351C142.293 58.0605 152.899 53.2147 155.951 49.6365C159.099 45.9459 161.155 40.2293 163.201 35.8391C167.805 25.9564 171.987 15.454 177.745 6.20214L177.747 6.20967Z" fill="#8BBF56"/>
<path d="M100.946 126.546C101.221 134.14 101.996 141.747 102.684 149.314C103.029 153.094 103.841 160.911 103.841 160.911C103.841 160.911 107.603 175.671 107.868 182.397C103.193 183.586 89.8712 184.111 86.1304 184.258C79.4289 184.523 64.6365 185.106 64.6365 185.106C64.6365 185.106 53.7576 184.531 49.4688 185.704C46.0481 181.908 47.8343 178.98 49.0523 175.143C51.4994 170.75 54.7232 166.473 58.1948 162.841C65.7735 154.91 75.9447 147.478 84.3989 140.338C89.7706 135.801 94.9519 130.196 100.944 126.544L100.946 126.546Z" fill="#609E51"/>
<path d="M166.203 51.6255C167.078 47.6301 168.068 43.6645 169.173 39.7267C170.256 35.9766 176.431 16.7575 179.439 15.0957L190.043 52.1622C192.526 61.091 194.565 70.1269 197.54 78.9126C190.337 82.5801 184.42 89.6587 178.028 94.6299L165.435 75.2172C158.485 81.784 150.936 87.6714 143.591 93.7813C143.322 83.2277 146.362 70.3945 149.576 60.3723C154.99 57.2001 160.574 54.3794 166.206 51.6235L166.203 51.6255Z" fill="#698646"/>
<path d="M169.283 119.1L170.216 119.486C180.549 128.583 189.892 138.739 200.047 148.029C203.219 144.03 206.549 140.169 210.04 136.447C213.531 132.726 217.17 129.155 220.956 125.735C221.332 132.769 221.576 167.417 223.406 170.896C221.19 170.678 219.068 171.261 216.897 171.13C210.857 170.407 199.76 172.874 193.244 173.563C181.975 174.663 170.611 175.953 159.292 176.251C160.697 168.685 161.986 161.094 163.468 153.544C164.762 146.954 166.26 140.399 167.391 133.777C168.222 128.904 168.482 123.968 169.283 119.1Z" fill="#698646"/>
<path d="M100.947 126.546C120.089 125.856 124.096 122.301 140.148 113.641C135.432 127.392 129.985 140.918 125.206 154.655C129.619 148.801 133.133 142.155 138.038 136.672C143.169 130.939 150.938 128.673 157.725 125.439C161.726 123.532 165.525 121.447 169.283 119.098C168.481 123.965 168.223 128.9 167.392 133.774C166.263 140.395 164.762 146.951 163.469 153.54C161.986 161.092 160.7 168.682 159.292 176.247C152.828 176.651 146.386 177.293 139.927 177.737C133.468 178.18 115.422 181.078 107.866 182.329C107.109 178.305 103.84 160.908 103.84 160.908C103.84 160.908 103.027 153.09 102.683 149.311C101.994 141.744 101.219 134.136 100.944 126.542L100.947 126.546Z" fill="#698646"/>
<path d="M179.439 15.0937C186.505 19.0484 194.273 23.627 200.117 29.2932C203.781 32.8467 206.678 37.2268 209.698 41.322C213.105 45.9831 216.562 50.6078 220.066 55.1964C223.048 59.1559 225.608 63.6541 229.18 67.1008C235.755 73.4506 244.221 78.92 251.944 83.811C255.453 86.0313 259.43 88.0845 262.611 90.7407C265.739 100.389 267.938 110.442 271.357 119.97C278.431 122.781 313.585 139.178 318.174 139.403L318.478 139.694C320.233 141.765 324.622 146.234 324.738 148.943C326.803 150.447 335.634 160.825 335.896 163.064C335.904 163.167 335.887 163.27 335.881 163.373C337.97 164.408 340.865 166.985 341.73 169.205L341.643 170.074C341.085 171.174 339.875 172.014 338.79 172.568L338.494 172.151C332.05 171.629 325.687 170.405 319.247 169.901C300.634 168.585 263.341 167.891 263.341 167.891C263.341 167.891 233.153 167.863 223.412 170.89C221.585 167.411 221.339 132.763 220.963 125.729L221.119 125.454C219.988 116.396 219.815 107.075 219.44 97.962C215.377 103.125 210.942 108.044 206.59 112.963C205.396 101.587 200.297 90.4367 197.699 79.2872L197.546 78.9065C194.571 70.1189 192.532 61.083 190.049 52.156L179.445 15.0896L179.439 15.0937Z" fill="#8EA352"/>
<path d="M197.693 79.2954C205.131 82.2181 216.384 87.5148 222.136 92.8493C225.201 95.6929 227.71 99.1872 230.122 102.586C232.741 106.278 235.275 110.686 238.973 113.386C244.747 117.603 251.498 120.599 257.857 123.825C260.802 125.321 263.97 126.772 266.571 128.828C270.655 132.054 272.319 137.885 276.808 140.568C281.927 143.629 306.717 151.66 308.568 154.919C308.611 154.997 308.637 155.084 308.673 155.166C297.774 152.275 282.197 154.134 271.052 155.571C263.316 150.843 255.901 145.604 248.13 140.953C244.487 141.187 240.832 141.426 237.183 141.536C232.921 135.089 227.564 129.48 223.299 123.071L221.115 125.462C219.984 116.404 219.81 107.083 219.436 97.9702C215.372 103.133 210.938 108.052 206.585 112.971C205.391 101.595 200.291 90.445 197.693 79.2954Z" fill="#B0CE5D"/>
<path d="M329.951 165.401C329.951 165.401 359.45 167.681 374.127 169.588C379.203 170.286 384.185 171.552 389.263 172.264L389.478 172.608C389.467 172.656 389.458 172.705 389.444 172.754C388.801 175.211 386.917 177.421 388.37 180.035C388.803 180.813 389.382 181.464 390.009 182.091C393.769 182.223 413.924 185.488 416.745 186.791L420.936 187.778C421.935 188.051 423.031 188.426 424.075 188.388C424.953 188.357 425.499 188.109 426.078 187.456C426.943 185.498 426.409 183.628 425.848 181.677C431.606 182.487 437.258 184.627 442.738 186.522C456.006 191.108 468.626 196.381 481.339 202.297C483.218 203.17 487.199 204.433 488.512 205.727C488.578 205.791 488.62 205.878 488.672 205.955C496.12 209.398 503.331 213.497 510.708 217.109C513.225 218.341 519.606 220.471 521.423 222.028C517.21 224.051 489.369 229.299 484.481 229.182C482.155 230.329 475.509 230.603 472.669 230.933C457.272 232.707 441.844 234.155 426.389 235.276C419.115 235.799 411.794 236.405 404.504 236.612C400.508 237.563 383.86 238.143 379.424 237.894C371.592 238.984 363.175 238.945 355.269 238.782C349.517 239.537 343.245 239.466 337.442 239.287C330.149 239.682 322.852 239.827 315.55 239.724C311.797 239.698 307.952 239.369 304.213 239.623C301.002 239.838 297.679 239.603 294.455 239.602C286.224 239.614 277.994 239.52 269.766 239.321C252.67 239.045 235.382 239.249 218.341 237.828C213.928 238.712 207.2 237.782 202.539 237.569C195.754 237.258 189.024 237.166 182.245 236.589C176.619 236.526 170.816 235.951 165.198 235.537C156.877 235.638 148.434 234.789 140.154 234.078C135.267 233.428 130.231 233.266 125.311 232.839C110.509 231.558 95.4397 230.501 80.7709 228.14C74.2026 228.168 67.1009 226.287 60.6349 225.14C46.4815 222.628 32.3474 220.133 18.3608 216.782C12.3599 215.435 6.3786 214.007 0.417003 212.494C12.1603 208.509 34.607 197.451 34.607 197.451L99.1921 178.148C99.1921 178.148 99.3482 178.107 99.427 178.083C101.619 177.423 106.121 176.68 106.121 176.68L171.818 169.83L188.128 169.345L231.779 167.484C231.779 167.484 242.046 167.222 247.182 167.202C256.16 167.491 265.218 166.995 274.192 166.646C279.384 166.404 288.285 164.963 293.034 165.814C294.747 166.018 298.199 165.931 298.199 165.931L329.951 165.401Z" fill="#609E51"/>
<path d="M329.951 165.401C329.951 165.401 359.45 167.681 374.127 169.588C379.203 170.286 383.377 171.088 389.263 172.264C403.729 175.154 416.605 179.203 425.848 181.677C435.091 184.151 437.258 184.627 442.738 186.522C456.006 191.108 468.626 196.381 481.339 202.296C483.218 203.17 487.199 204.433 488.512 205.727C488.578 205.791 488.62 205.878 488.672 205.955C496.12 209.398 503.331 213.497 510.708 217.109C513.225 218.341 519.606 220.471 521.423 222.028C517.21 224.051 489.369 229.299 484.481 229.182L484.418 228.707C482.29 227.05 473.066 225.509 469.931 224.858C450.971 220.922 439.717 219.153 420.39 223.957C414.301 225.471 408.38 228.365 402.017 228.076C398.128 227.899 394.217 227.271 390.356 226.801C384.733 226.106 379.103 225.475 373.464 224.913C361.414 223.682 349.309 222.763 337.335 220.911C316.557 217.696 297.075 211.299 277.909 202.735C275.439 201.337 272.463 200.424 269.816 199.374C260.355 195.622 251.157 192.06 241.04 190.526C238.429 191.02 235.325 190.681 232.647 190.663L218.58 190.672C207.372 190.727 196.183 191.203 185.01 192.097C157.118 194.152 129.909 199.967 102.446 204.957C99.943 205.411 97.4444 205.055 94.9326 205.318C90.4828 205.787 86.0438 206.882 81.6528 207.744C84.5975 205.729 88.0613 204.162 91.2772 202.63C108.501 194.42 145.281 183.847 145.281 183.847L171.815 169.829L188.125 169.343L231.776 167.482C231.776 167.482 242.043 167.22 247.18 167.2C256.157 167.489 265.215 166.994 274.189 166.645C279.381 166.402 288.282 164.961 293.031 165.812C294.744 166.016 296.453 165.654 298.196 165.929C307.306 166.086 329.951 165.401 329.951 165.401Z" fill="#8BBF56"/>
<path d="M241.042 190.521C234.786 188.789 228.388 188.104 221.957 187.375C217.462 186.837 212.957 186.41 208.441 186.092C203.925 185.773 199.403 185.565 194.879 185.466C190.352 185.366 185.827 185.377 181.301 185.498C176.775 185.618 172.256 185.848 167.741 186.187C161.755 186.62 155.758 187.167 149.78 187.692C147.995 187.849 145.713 188.56 143.994 188.259C148.863 185.726 168.254 184.166 174.503 183.876C196.299 182.861 218.108 183.301 239.911 183.732C260.464 184.057 281.013 184.526 301.558 185.139L339.261 186.201C355.959 186.622 372.738 187.077 389.357 188.853C392.973 189.276 396.576 189.786 400.167 190.384C403.759 190.983 407.333 191.668 410.89 192.442C414.446 193.216 417.982 194.076 421.498 195.023C425.016 195.97 428.506 197.002 431.971 198.119C437.876 199.998 443.68 202.151 449.533 204.185C454.748 205.998 459.988 207.678 465.1 209.774C471.97 212.59 478.536 216.078 485.466 218.763C489.197 220.208 492.975 221.483 496.77 222.752C499.221 223.572 502.45 224.285 504.607 225.645C503.281 226.008 501.554 225.662 500.169 225.553C491.79 224.888 483.736 222.886 475.593 220.933C469.807 219.547 463.972 218.28 458.241 216.694C444.478 212.884 430.886 208.52 416.903 205.551C405.479 203.124 393.508 201.769 381.904 203.65C374.583 204.836 367.403 206.81 359.924 206.61C349.924 206.342 340.407 202.925 330.824 200.409C318.601 197.2 305.515 197.533 293.148 199.671C288.044 200.553 283.009 201.812 277.913 202.733C275.444 201.334 272.468 200.421 269.821 199.371C260.36 195.619 251.162 192.057 241.044 190.523L241.042 190.521Z" fill="#B0CE5D"/>
<path d="M447.219 166.105C449.42 159.714 451.513 154.32 458.03 151.199C462.263 149.175 467.451 148.802 471.874 150.423C476.749 152.206 480.913 156.285 483.012 161.003C484.719 164.84 485.435 169.109 487.323 172.854C492.863 173.504 497.954 174.374 501.571 179.075C503.413 181.471 505.217 185.936 505.287 188.936C505.754 191.111 505.774 192.741 507.289 194.426C515.654 196.449 524.899 197.225 529.958 205.265C532.524 209.344 532.905 215.151 531.819 219.754C531.471 221.229 530.989 222.651 530.409 224.05C527.268 227.569 524.249 230.661 519.636 232.104C506.991 231.138 494.584 228.576 482.04 226.838C468.853 225.012 422.87 220.781 413.946 215.949C408.357 212.925 406.011 207.279 404.119 201.554C404.209 200.526 404.335 199.501 404.5 198.478C405.211 194.227 407.384 192.242 410.689 189.87C411.463 190.069 412.027 190.021 412.816 189.985C415.115 187.777 416.062 183.902 417.823 181.159L418.199 180.576C422.184 181.487 426.301 181.068 430.338 182.154C436.047 179.792 434.748 170.337 439.974 166.841C442.377 165.23 444.589 165.528 447.215 166.108L447.219 166.105Z" fill="#467943"/>
<path d="M447.221 166.105C449.422 159.714 451.515 154.32 458.032 151.199C462.265 149.175 467.452 148.802 471.876 150.423C476.751 152.206 480.914 156.285 483.014 161.003C484.721 164.84 485.437 169.109 487.324 172.854C492.864 173.504 497.956 174.374 501.572 179.075C503.415 181.471 505.218 185.936 505.289 188.936C505.755 191.111 505.776 192.741 507.291 194.426C515.655 196.449 524.901 197.225 529.96 205.265C532.525 209.344 532.907 215.151 531.821 219.754C531.472 221.229 530.99 222.651 530.41 224.05C527.269 227.569 524.251 230.661 519.638 232.104C519.979 229.008 520.176 225.286 518.518 222.51C516.435 219.029 512.556 218.024 508.919 217.042C508.121 215.807 507.289 214.593 506.42 213.407C502.204 207.752 495.486 207.227 489.063 206.353C488.274 204.792 487.475 203.176 486.468 201.742C484.797 199.357 483.327 198.742 480.571 198.282L479.911 198.177C477.448 194.486 479.633 189.1 477.898 184.889C476.691 183.765 476.592 183.864 475.029 183.753C471.222 185.539 469.157 190.256 467.131 193.757C464.512 186.202 462.485 178.232 457.607 171.781C455.822 171.609 453.917 171.498 452.192 170.999C449.496 170.226 448.515 168.367 447.214 166.104L447.221 166.105Z" fill="#609E51"/>
<path d="M223.799 150.04C227.39 148.784 229.918 141.25 236.561 144.268C242.547 146.986 245.191 154.427 247.448 160.054C250.998 159.004 254.335 158.55 257.729 160.385C261.356 162.346 263.589 166.261 265.696 169.651C268.164 170.513 270.39 171.388 272.621 172.761C273.553 174.669 274.229 176.557 274.855 178.585C274.278 180.53 273.79 182.391 272.664 184.102C268.091 186.817 262.286 187.238 257.06 187.532C246.795 188.109 236.49 188.397 226.215 188.797C219.444 189.059 212.338 189.779 205.59 189.129C202.85 188.864 198.227 188.2 196.232 186.081C195.582 185.389 195.342 184.73 195.447 183.789C195.629 182.148 197.267 181.16 198.488 180.268C200.854 179.398 203.156 178.35 205.465 177.343C205.654 175.144 205.803 172.475 206.615 170.416C208.018 166.852 210.55 165.509 213.854 163.962C213.63 160.304 213.878 157.058 214.707 153.48C215.621 152.009 216.543 150.578 218.155 149.774C220.039 148.832 221.954 149.374 223.807 150.042L223.799 150.04Z" fill="#3E6437"/>
<path d="M223.798 150.04C227.388 148.785 229.916 141.25 236.559 144.268C242.545 146.986 245.19 154.427 247.447 160.054C250.997 159.004 254.333 158.551 257.727 160.385C261.355 162.346 263.588 166.261 265.695 169.651C268.162 170.514 270.389 171.388 272.619 172.761C273.551 174.669 274.228 176.557 274.853 178.585C274.276 180.53 273.789 182.391 272.662 184.102C261.964 172.461 259.171 178.033 250.011 171.782C247.962 172.465 245.94 173.255 243.914 174.001C241.819 170.006 239.392 167.56 235.687 165.005C235.117 162.375 234.236 157.835 232.103 155.995C231.317 155.316 231.04 155.471 230.08 155.576C228.607 156.722 228.293 158.407 227.75 160.116C223.546 157.307 219.389 155.292 214.703 153.481C215.617 152.009 216.538 150.578 218.151 149.774C220.035 148.833 221.95 149.375 223.803 150.042L223.798 150.04Z" fill="#479651"/>
<path d="M350.828 139.527C353.672 139.12 356.644 133.905 361.127 137.111C365.167 139.998 366.041 145.899 366.893 150.398C369.677 150.138 372.216 150.289 374.464 152.143C376.866 154.126 377.95 157.353 379.017 160.173C380.72 161.172 382.242 162.145 383.695 163.488C384.107 165.038 384.333 166.535 384.501 168.13C383.79 169.487 383.157 170.795 382.072 171.899C378.288 173.244 373.924 172.709 370.008 172.164C362.316 171.095 354.637 169.805 346.964 168.602C341.907 167.808 336.536 167.305 331.63 165.839C329.638 165.243 326.309 164.077 325.139 162.216C324.759 161.608 324.677 161.084 324.892 160.402C325.266 159.213 326.625 158.72 327.659 158.237C329.54 157.937 331.399 157.496 333.257 157.087C333.718 155.484 334.218 153.529 335.119 152.121C336.679 149.684 338.752 149.058 341.426 148.393C341.794 145.65 342.451 143.281 343.587 140.75C344.48 139.793 345.371 138.867 346.683 138.506C348.217 138.083 349.557 138.764 350.833 139.53L350.828 139.527Z" fill="#467943"/>
<path d="M350.827 139.527C353.671 139.12 356.644 133.905 361.127 137.111C365.166 139.998 366.041 145.899 366.892 150.398C369.676 150.138 372.215 150.289 374.463 152.143C376.865 154.126 377.949 157.353 379.016 160.173C380.719 161.172 382.241 162.145 383.694 163.488C384.106 165.038 384.332 166.535 384.5 168.13C383.789 169.487 383.156 170.795 382.072 171.899C375.841 161.711 372.959 165.433 367.082 159.464C365.463 159.671 363.85 159.961 362.239 160.219C361.27 156.953 359.828 154.786 357.455 152.351C357.416 150.319 357.426 146.827 356.113 145.152C355.63 144.534 355.402 144.608 354.675 144.546C353.416 145.18 352.937 146.383 352.286 147.57C349.58 144.876 346.794 142.776 343.584 140.75C344.477 139.793 345.368 138.867 346.68 138.506C348.215 138.083 349.555 138.764 350.83 139.529L350.827 139.527Z" fill="#609E51"/>
</svg>
