<svg width="304" height="379" viewBox="0 0 304 379" fill="none" xmlns="http://www.w3.org/2000/svg">
<path d="M132.542 58.1411C160.723 46.461 191.274 41.3279 220.939 49.4381C226.704 51.0139 232.338 52.9871 237.768 55.7463C248.223 61.0565 258.114 69.4648 262.211 80.9194C266.132 91.8835 264.115 104.09 259.278 114.074C254.443 124.053 247.035 132.224 239.731 140.257C243.605 137.83 250.294 140.902 254.688 142.706C258.294 144.18 261.927 146.187 264.238 149.519C266.964 153.448 267.397 158.657 266.426 163.221C265.454 167.784 263.242 171.852 261.059 175.846C267.31 173.071 277.343 174.387 282.25 179.885C287.152 185.384 288.538 194.017 285.544 200.447C290.587 197.746 297.518 199.966 301.713 204.463C305.911 208.958 307.929 215.229 308.761 221.354C310.09 218.796 313.986 219.136 316.291 221.015C318.596 222.894 319.724 225.942 320.544 228.857C321.364 231.772 322.04 234.834 323.805 237.287C328.419 233.301 334.854 237.688 338.417 243.201C341.98 248.713 343.822 255.517 348.493 260.02C352.793 264.17 358.86 265.624 364.459 265.234C370.059 264.844 375.338 262.815 380.535 260.805C370.593 265.108 363.815 272.018 353.873 276.321C346.229 279.63 338.325 282.992 329.891 282.799C321.455 282.601 312.266 277.918 308.925 269.501C301.952 273.017 294.491 276.616 286.602 275.478C278.716 274.345 270.8 266.332 272.438 258.244C266.949 256.905 261.431 258.52 256.023 259.571C250.615 260.621 244.527 260.964 239.805 257.55C235.078 254.138 233.452 245.652 238.085 242.685C226.221 244.293 214.189 244.925 202.125 244.567C198.019 244.446 194.601 240.767 194.502 236.415C183.776 237.758 172.78 239.083 162.053 236.376C151.326 233.673 140.747 226.062 137.146 214.948C137.518 216.097 106.399 217.776 103.594 217.623C74.085 216.032 18.9457 196.269 22.5407 155.088C24.9413 127.628 51.8507 110.899 70.271 96.0309C88.2997 81.4778 109.647 67.6531 132.563 58.1571L132.542 58.1411Z" fill="#EDEFF1"/>
<path d="M256.992 77.2702C251.203 69.9463 244.207 63.6728 236.459 58.8589C243.122 67.846 243.701 80.4244 240.28 90.701C236.858 100.973 230.012 109.353 222.854 117.001C202.243 139.026 177.672 157.125 150.06 168.254C122.448 179.383 91.7326 183.391 61.7414 177.901C55.9467 176.842 50.0502 175.372 45.0028 171.964C39.9554 168.555 35.858 162.849 35.6272 156.669C33.6443 163.264 35.8106 170.899 39.787 176.797C43.7676 182.693 49.3511 187.151 54.9639 191.295C66.9058 200.112 79.7856 208.163 93.8238 211.027C113.994 215.142 134.042 208.114 152.13 199.405C184.185 183.979 213.586 162.936 238.86 137.327C246.686 129.398 254.479 120.239 258.035 109.059C261.284 98.8439 264.374 86.6257 256.989 77.2762L256.992 77.2702Z" fill="#D1D8DB"/>
<path d="M177.886 221.49C174.314 222.45 170.588 223.258 166.874 222.56C163.156 221.863 159.422 219.339 158.134 215.537C156.496 219.041 158.362 223.679 161.388 226.268C164.414 228.857 168.294 229.868 172.031 230.693C183.347 233.194 195.367 234.658 205.777 230.305C211.876 227.755 217.023 223.359 222.081 219.025C236.652 206.532 251.543 193.638 260.661 176.195C263.798 170.188 267.119 158.714 259.037 154.101C250.975 149.499 248.168 161.201 245.913 166.49C238.251 184.461 223.729 198.882 207.881 208.621C198.569 214.342 188.435 218.655 177.886 221.49Z" fill="#D1D8DB"/>
<path d="M269.363 219.524C263.853 225.096 257.837 230.099 251.403 234.456C246.319 237.899 240.872 240.981 234.85 242.178C228.824 243.377 222.106 242.494 216.893 238.595C229.587 238.785 241.912 234.288 251.983 226.727C262.056 219.17 269.927 208.647 275.442 196.877C276.329 194.983 278.871 189.599 281.565 190.112C284.986 190.761 282.882 197.417 282.118 199.99C279.836 207.698 274.729 214.098 269.363 219.524Z" fill="#D1D8DB"/>
<path d="M267.59 235.972C266.332 236.817 265.06 237.638 263.776 238.444C260.152 240.72 244.614 246.072 247.522 252.629C248.725 255.339 252.99 255.912 255.351 256.206C261.639 256.988 267.976 255.27 273.213 251.989C277.102 249.551 302.009 227.895 291.832 221.602C286.744 218.458 281.329 224.005 278.165 227.317C274.965 230.665 271.36 233.432 267.59 235.972Z" fill="#D1D8DB"/>
<path d="M304.169 253.294C297.85 257.719 290.187 259.746 282.502 260.618C281.848 260.691 281.122 260.799 280.736 261.344C280.376 261.853 280.429 262.581 280.557 263.233C281.559 268.273 286.08 272.205 290.841 273.214C295.602 274.224 300.455 272.726 304.445 270.145C311.119 265.833 315.842 258.42 317.203 250.127C317.677 247.222 317.853 244.126 317.606 241.136C317.318 237.665 317.168 235.854 315.09 238.585C313.333 240.894 312.663 244.435 310.809 246.895C308.935 249.38 306.676 251.536 304.169 253.294Z" fill="#D1D8DB"/>
<path d="M58.5776 124.589C94.3815 89.4882 142.119 68.1908 192.047 65.0422C198.098 64.6592 204.288 64.5499 210.238 66.3254C216.185 68.0966 221.942 72.008 224.877 77.8493C212.348 70.0695 197.454 71.8057 183.618 74.1056C137.772 81.7226 95.5162 96.3218 58.5776 124.589Z" fill="#D1D8DB"/>
<path d="M206.656 98.9204C190.631 116.638 170.653 130.291 148.601 138.583C173.445 132.072 196.258 118.548 214.156 99.7329C217.621 96.0926 221.707 90.7758 219.666 85.0126C217.912 80.0512 210.898 76.1479 206.77 79.0946C215.585 84.3021 211.838 93.1892 206.656 98.9204Z" fill="#D1D8DB"/>
<path d="M54.6773 154.058C57.4492 156.617 61.193 157.459 64.746 158.039C88.1006 161.855 112.044 158.684 133.059 148.989C120.565 149.194 108.07 149.394 95.5727 149.601C89.7785 149.695 83.0204 149.317 79.3379 144.323C75.3711 138.94 78.515 129.974 84.6694 129.129C76.7525 130.179 65.5997 131.298 58.3235 134.487C51.5253 137.471 48.059 147.938 54.6773 154.058Z" fill="#D1D8DB"/>
<path d="M157.321 89.0392C143.832 91.9242 130.671 96.1573 118.053 101.634C106.832 106.504 96.0542 115.707 84.7125 119.388C84.7926 108.151 105.124 101.725 112.928 98.6057C127.563 92.7612 142.195 92.2735 157.315 89.0367L157.321 89.0392Z" fill="#D1D8DB"/>
<path d="M190.488 90.8969C193 91.4094 195.519 92.9217 196.706 95.3657C197.887 97.7968 197.536 100.73 196.388 103.036C195.242 105.335 193.398 107.122 191.539 108.803C178.572 120.557 163.301 129.495 146.832 134.98C155.916 128.392 165 121.804 174.084 115.216C176.672 113.34 180.207 110.672 180.867 107.131C181.978 101.169 177.904 101.412 175.421 97.6933C170.087 89.7001 184.607 89.7025 190.486 90.9029L190.488 90.8969Z" fill="#D1D8DB"/>
<path d="M99.3065 122.112C95.4905 124.363 91.1341 127.824 92.0562 132.53C92.6289 135.443 95.2308 137.646 97.941 138.438C100.656 139.229 103.473 138.883 106.188 138.438C125.309 135.336 143.569 127.96 159.467 116.926C147.298 121.998 134.726 126.095 121.878 129.164C118.247 130.033 112.711 130.718 110.45 126.373C108.372 122.394 111.838 119.13 111.789 115.352C107.717 116.019 103.066 119.895 99.3065 122.112Z" fill="#D1D8DB"/>
<path d="M169.941 103.528C154.667 101.202 139.102 103.799 125.729 110.862C131.95 107.475 138.298 101.774 144.911 99.4168C152.663 96.6525 162.776 99.0127 169.941 103.528Z" fill="#D1D8DB"/>
<path d="M155.613 205.316C161.891 203.17 169.772 203.943 176.365 201.983C183.461 199.876 190.256 196.813 196.564 192.927C207.167 186.392 221.99 174.897 225.854 161.895C204.069 180.161 182.708 196.066 155.615 205.32L155.613 205.316Z" fill="#D1D8DB"/>
<path d="M235.678 212.218C243.754 211.801 251.454 208.061 256.826 201.943C260.311 197.977 264.577 191.169 264.229 185.441C259.682 186.226 255.658 195.677 252.467 199.117C247.583 204.381 241.913 208.831 235.682 212.217L235.678 212.218Z" fill="#D1D8DB"/>
</svg>
