<svg width="238" height="234" viewBox="0 0 238 234" fill="none" xmlns="http://www.w3.org/2000/svg">
<path d="M132.837 12.0299C110.519 9.68601 87.8996 12.455 68.6742 24.3785C64.9383 26.6954 61.3775 29.2653 58.1251 32.3467C51.8622 38.2782 46.6447 46.2767 46.1511 55.2118C45.6788 63.7642 49.6534 71.9511 55.1532 77.9811C60.65 84.0074 67.5827 88.2212 74.4138 92.3586C71.1747 91.4574 67.0993 95.0227 64.3775 97.2135C62.1427 99.0073 60.0001 101.182 59.0676 104.016C57.9662 107.357 58.7503 111.121 60.3899 114.136C62.0294 117.152 64.4404 119.558 66.8151 121.918C61.8262 121.268 55.0254 124.295 52.7148 129.198C50.4075 134.102 51.2354 140.48 54.6918 144.388C50.5705 143.538 46.1463 146.553 44.1286 150.602C42.1075 154.65 41.9964 159.495 42.6904 163.988C41.2177 162.462 38.5413 163.517 37.3087 165.324C36.0761 167.131 35.9181 169.517 35.9492 171.744C35.9803 173.972 36.1444 176.272 35.4126 178.372C31.3248 176.525 27.7036 180.965 26.3439 185.598C24.9841 190.231 25.1075 195.414 22.7553 199.567C20.5901 203.393 16.616 205.687 12.5853 206.583C8.55473 207.479 4.40704 207.152 0.321626 206.822C8.23332 207.777 14.4584 211.233 22.3701 212.189C28.4532 212.923 34.7306 213.642 40.6381 211.741C46.546 209.838 52.0474 204.613 52.6432 197.979C58.2961 199 64.3113 199.978 69.6364 197.526C74.9612 195.077 78.8686 187.77 76.0216 182.409C79.6126 180.317 83.8424 180.302 87.8761 179.912C91.9098 179.522 96.2749 178.491 98.8914 175.095C101.511 171.701 100.884 165.376 96.9952 164.252C105.699 162.905 114.316 160.834 122.75 158.059C125.621 157.115 127.262 153.806 126.421 150.716C134.266 149.42 142.298 148.054 149.298 143.902C156.297 139.752 162.167 132.173 162.382 123.582C162.36 124.47 184.658 119.146 186.604 118.451C207.083 111.158 241.837 85.689 230.69 57.3979C223.254 38.5332 200.778 32.3631 184.677 25.7293C168.919 19.236 150.973 13.9504 132.825 12.0458L132.837 12.0299Z" fill="#EDEFF1"/>
<path d="M49.0689 51.5469C51.6198 45.1711 55.2413 39.2838 59.6989 34.2684C56.8792 42.0001 59.1018 50.992 63.6632 57.5243C68.225 64.0532 74.8058 68.531 81.4535 72.4283C100.596 83.6508 121.709 91.2771 143.51 93.3512C165.31 95.4254 187.811 91.8287 207.814 81.6851C211.679 79.726 215.531 77.4561 218.377 73.9968C221.224 70.5376 222.921 65.6564 221.791 61.2496C224.569 65.4862 224.638 71.3238 223.067 76.315C221.492 81.3058 218.487 85.6174 215.395 89.7133C208.817 98.429 201.417 106.8 192.116 111.756C178.751 118.877 163.142 118.113 148.564 115.754C122.731 111.578 97.5957 102.885 74.4161 90.1104C67.2385 86.1551 59.8266 81.3251 54.9812 74.1842C50.5531 67.6596 45.8192 59.6887 49.0718 51.5507L49.0689 51.5469Z" fill="#D1D8DB"/>
<path d="M135.018 136.715C137.738 136.645 140.535 136.436 143.008 135.167C145.485 133.898 147.59 131.337 147.704 128.386C149.592 130.515 149.246 134.176 147.653 136.634C146.06 139.093 143.535 140.618 141.073 141.981C133.615 146.111 125.444 149.658 117.192 148.765C112.357 148.242 107.808 146.218 103.334 144.219C90.4456 138.456 77.2471 132.476 67.1686 122.081C63.7003 118.501 58.9586 111.103 63.6937 106.16C68.4172 101.228 72.8441 108.894 75.5399 112.152C84.7021 123.224 97.9598 130.358 111.173 133.912C118.937 135.999 126.986 136.922 135.018 136.715Z" fill="#D1D8DB"/>
<path d="M70.0928 154.459C75.1444 157.236 80.4336 159.506 85.882 161.234C90.1876 162.599 94.6738 163.633 99.1709 163.218C103.671 162.804 108.225 160.776 111.086 156.936C102.173 159.724 92.5406 159.13 83.8566 155.904C75.1722 152.681 67.4204 146.906 61.0701 139.759C60.0479 138.608 57.1294 135.343 55.3369 136.267C53.0599 137.441 55.9354 141.695 57.0124 143.35C60.2336 148.309 65.1741 151.755 70.0928 154.459Z" fill="#D1D8DB"/>
<path d="M74.7831 165.688C75.8466 166.021 76.9157 166.334 77.9898 166.634C81.0217 167.481 93.0988 168.006 92.4192 173.239C92.1378 175.401 89.2493 176.697 87.6462 177.398C83.3753 179.265 78.5468 179.379 74.1667 178.16C70.9143 177.254 48.8199 167.19 54.6814 160.623C57.612 157.342 62.5911 160.121 65.5153 161.796C68.472 163.488 71.5928 164.685 74.7831 165.688Z" fill="#D1D8DB"/>
<path d="M52.6082 185.554C57.9903 187.353 63.8187 187.18 69.4205 186.188C69.8973 186.103 70.4316 186.027 70.8177 186.331C71.1786 186.614 71.293 187.139 71.3394 187.626C71.6869 191.39 69.3205 195.108 66.1738 196.816C63.0271 198.523 59.2915 198.482 55.9378 197.496C50.3292 195.851 45.4481 191.611 42.7539 186.046C41.8123 184.097 41.0402 181.95 40.5892 179.79C40.0663 177.282 39.7937 175.973 41.8304 177.464C43.5521 178.725 44.7652 181.082 46.5874 182.43C48.4288 183.79 50.4727 184.839 52.6082 185.554Z" fill="#D1D8DB"/>
<path d="M30.5285 206.246C25.0706 208.498 19.1687 207.552 13.5635 209.015C15.2906 209.221 16.7548 210.416 18.4253 210.857C20.2257 211.336 22.0677 211.655 23.92 211.816C27.4412 212.119 30.9864 211.796 34.4615 211.045C37.8871 210.307 44.4185 208.987 44.5899 204.062C44.6935 201.138 41.8347 197.893 39.2208 200.04C36.3126 202.427 34.0424 204.795 30.5285 206.246Z" fill="#D1D8DB"/>
<path d="M198.896 43.4243C166.305 26.1572 128.184 21.1204 92.314 29.3411C87.9666 30.3364 83.5776 31.554 79.7533 34.0503C75.9294 36.5432 72.687 40.5057 71.8387 45.2391C79.048 37.1321 89.9148 35.2419 100.154 33.9705C134.079 29.7547 166.934 31.2139 198.896 43.4243Z" fill="#D1D8DB"/>
<path d="M89.0952 56.2892C104.103 65.4331 121.047 70.8841 138.334 72.1202C119.45 72.7236 100.533 67.9573 83.976 58.4306C80.7712 56.5878 76.7775 53.6926 77.0114 49.2013C77.2113 45.3354 81.3411 41.1159 84.869 42.3307C79.7413 47.8468 84.2421 53.3309 89.0952 56.2892Z" fill="#D1D8DB"/>
<path d="M207.81 63.392C206.39 65.7769 203.926 67.1536 201.541 68.3054C185.869 75.881 168.319 78.6517 151.471 76.2088C160.325 73.7407 169.179 71.2692 178.036 68.8014C182.142 67.656 186.829 65.9761 188.382 61.6842C190.054 57.0581 185.962 51.3918 181.445 52.0832C187.248 51.1683 195.347 49.6248 201.146 50.3525C206.564 51.0351 211.198 57.6922 207.81 63.392Z" fill="#D1D8DB"/>
<path d="M121.823 39.003C131.94 38.2166 142.106 38.4498 152.151 39.6733C161.083 40.7613 170.609 44.9978 179.377 45.2223C176.971 37.3137 161.288 37.0335 155.132 36.466C143.588 35.4048 133.167 38.1207 121.827 39L121.823 39.003Z" fill="#D1D8DB"/>
<path d="M98.8199 47.2494C97.1553 48.1362 95.6952 49.7295 95.3693 51.7013C95.0446 53.663 95.9055 55.6582 97.1975 57.044C98.4865 58.4261 100.161 59.3004 101.823 60.0978C113.426 65.6754 126.066 68.785 138.828 69.2095C131.043 66.4631 123.259 63.7167 115.475 60.9703C113.257 60.1878 110.206 59.0459 109 56.6863C106.97 52.7137 109.894 52.0336 110.867 48.8916C112.958 42.1389 102.718 45.1771 98.8229 47.2532L98.8199 47.2494Z" fill="#D1D8DB"/>
<path d="M169.654 50.1955C172.816 50.9852 176.612 52.5146 176.946 56.0265C177.151 58.2008 175.777 60.2985 174.031 61.4239C172.282 62.549 170.223 62.8942 168.215 63.1487C154.081 64.9596 139.661 63.5766 126.141 59.1194C135.784 60.1511 145.507 60.4114 155.21 59.8891C157.952 59.7425 162 59.0685 162.686 55.5308C163.32 52.2898 160.192 50.7133 159.437 48.0386C162.449 47.6568 166.539 49.4178 169.654 50.1955Z" fill="#D1D8DB"/>
<path d="M115.953 51.8602C126.238 47.0256 137.758 45.6023 148.667 47.7867C143.571 46.6994 137.902 44.0058 132.745 43.7265C126.7 43.3981 120.061 47.1778 115.953 51.8602Z" fill="#D1D8DB"/>
<path d="M147.344 120.65C142.468 120.45 137.071 122.643 132.012 122.639C126.567 122.638 121.134 121.899 115.872 120.477C107.028 118.085 94.1696 113.078 88.7257 104.717C107.91 113.043 126.301 119.793 147.344 120.654L147.344 120.65Z" fill="#D1D8DB"/>
<path d="M92.3215 142.262C86.5381 143.657 80.3256 142.629 75.2574 139.438C71.9708 137.37 67.538 133.46 66.5858 129.348C69.9568 128.951 74.771 134.775 77.741 136.534C82.2864 139.224 87.2152 141.177 92.3181 142.262L92.3215 142.262Z" fill="#D1D8DB"/>
</svg>
