<svg width="174" height="290" viewBox="0 0 174 290" fill="none" xmlns="http://www.w3.org/2000/svg">
<path d="M186.497 254.952C179.03 244.196 178.638 229.852 181.808 217.148C184.979 204.444 191.306 192.799 196.544 180.797C200.673 171.341 204.162 161.603 206.907 151.655C209.797 141.173 211.853 130.466 213.049 119.661C213.648 114.25 214.033 108.818 214.211 103.376C214.301 100.633 214.339 97.8885 214.324 95.1455C214.319 93.8571 214.226 92.5662 214.185 91.2923C214.162 90.5108 214.283 89.6994 214.336 88.9192C214.374 88.3469 214.253 87.4007 214.473 86.8775C213.082 91.7285 212.922 96.8149 211.666 101.746C211.041 104.193 210.282 106.607 209.355 108.956C208.51 111.096 207.188 113.064 206.365 115.184C215.314 92.1251 211.023 64.4333 195.514 45.1672C180.006 25.8985 152.016 14.7788 127.577 18.5934C133.578 18.5615 140.317 22.4203 143.041 27.7681C110.467 17.7288 70.1862 30.252 44.8153 53.013C47.9272 52.3478 51.6956 51.1081 54.8076 50.4428C36.2174 61.5735 22.1485 85.9068 20.076 107.474C18.0035 129.042 26.718 151.38 42.8494 165.845C54.4165 176.22 70.4483 184.495 84.051 176.982C75.7535 173.476 69.3854 165.728 67.5553 156.909C65.7251 148.089 69.4021 140.174 75.6176 133.656C75.332 140.994 79.4545 149.102 84.4821 154.455C75.6696 138.185 82.5293 116.017 97.8102 105.583C113.091 95.1486 134.487 95.9777 150.374 105.465C166.261 114.952 176.787 131.975 180.923 150.013C185.059 168.05 183.295 187.029 178.697 204.952C174.225 222.388 176.424 240.038 186.5 254.954L186.497 254.952Z" fill="#EDEFF1"/>
<path d="M178.744 64.4468C198.514 85.5427 206.798 116.805 200.066 144.925C202.976 132.391 205.9 119.748 206.14 106.883C206.378 94.0186 203.73 80.7491 196.358 70.2038C189.274 60.0737 178.414 53.2062 167.214 47.9684C156.67 43.0363 135.381 32.1135 123.686 37.0869C144.762 42.1752 163.324 47.994 178.742 64.4474L178.744 64.4468Z" fill="#D1D8DB"/>
<path d="M130.423 72.3832C151.03 78.4873 169.792 91.7093 180.887 110.117C191.98 128.526 194.794 152.139 186.621 172.016C196.465 150.191 196.997 124.169 187.26 102.295C177.523 80.42 157.455 63.2237 134.141 57.7678C116.86 53.7237 87.9769 55.5247 75.2519 69.8355C82.6349 71.7901 94.2496 67.9347 102.368 68.1145C111.854 68.3237 121.321 69.6863 130.423 72.3832Z" fill="#D1D8DB"/>
<path d="M80.1745 106.249C79.0107 111.271 78.6956 116.521 76.8134 121.322C74.6019 126.968 70.208 131.727 64.7579 134.381C60.4871 122.507 61.8188 108.746 68.2883 97.9125C71.4315 92.6489 84.7845 76.7316 92.5096 79.6128C97.9635 81.6478 90.2051 86.548 88.1115 89.3378C84.3452 94.3528 81.5927 100.135 80.1745 106.249Z" fill="#D1D8DB"/>
<path d="M61.3401 50.0984C73.321 44.1291 87.1959 42.0372 100.406 44.2089C85.2477 48.3576 70.9477 55.6115 58.6465 65.3908C59.1775 58.8811 62.8778 52.7026 68.3695 49.166L61.3422 50.0978L61.3401 50.0984Z" fill="#D1D8DB"/>
<path d="M37.0836 120.48C37.6666 131.458 41.8281 142.218 48.7854 150.73C50.528 152.863 53.4455 155.019 55.7616 153.531C56.991 152.741 57.4836 151.134 57.3636 149.677C57.2435 148.219 56.6241 146.858 56.0521 145.512C47.7068 125.802 49.0971 102.236 59.7053 83.6441C59.5557 83.9067 54.8174 84.188 54.1488 84.358C52.1788 84.858 50.2599 85.6092 48.4886 86.6046C45.3013 88.3957 44.3494 90.7706 42.7511 93.9392C38.6242 102.125 36.5959 111.314 37.0836 120.48Z" fill="#D1D8DB"/>
<path d="M182.581 209.527C178.797 199.198 182.165 187.652 186.782 177.667C191.398 167.683 197.34 158.024 198.956 147.145C195.482 167.254 191.863 191.354 182.581 209.527Z" fill="#D1D8DB"/>
</svg>
