<svg width="187" height="93" viewBox="0 0 187 93" fill="none" xmlns="http://www.w3.org/2000/svg">
<path fill-rule="evenodd" clip-rule="evenodd" d="M-7.32032e-05 11.3689C12.3159 8.22514 25.0772 5.09361 38.9944 2.98109C81.8133 -3.51376 123.042 -0.0991675 155.682 20.2205L156.535 20.7602C149.913 20.9868 141.639 21.7805 141.877 24.3396C142.272 28.593 161.474 31.4229 155.819 35.9093C150.166 40.3942 160.255 43.1523 170.721 50.6863C181.188 58.2223 173.344 58.2929 168.094 60.0365C162.844 61.7801 182.62 66.5363 179.63 70.575C176.641 74.6157 175.581 74.5821 182.026 78.5989C188.471 82.6177 186.314 87.1074 182.444 88.789C178.576 90.469 163.841 93.8221 161.39 90.8831C158.94 87.9442 172.789 85.7293 165.995 79.3668C159.201 73.0043 149.75 73.5542 141.475 70.4325C133.2 67.3109 125.76 64.6385 129.211 62.7321C132.663 60.8276 138.05 61.3151 142.901 58.819C147.75 56.3209 134.452 54.5254 127.41 52.6092C120.367 50.6911 131.653 49.2428 131.528 46.4849C131.402 43.7271 113.759 38.5061 95.9835 37.5239C78.2066 36.5398 66.9432 37.4552 68.795 32.5347C70.6467 27.6143 95.4246 25.106 95.7508 21.5114C96.0769 17.9168 73.8846 19.1292 61.5935 18.9531C49.3039 18.7788 58.8228 16.1098 63.0299 13.8045C67.237 11.4993 43.1545 8.72778 29.2453 9.5613C18.7616 10.1905 9.39585 11.5765 -7.32032e-05 11.3689Z" fill="#6FC4EE"/>
</svg>
