<svg width="319" height="337" viewBox="0 0 319 337" fill="none" xmlns="http://www.w3.org/2000/svg">
<path fill-rule="evenodd" clip-rule="evenodd" d="M73.5005 -29.5C158.816 -42.9813 238.195 -5.9386 286.781 29.0616C335.357 64.0519 319.725 120.641 292.356 90.8894C264.988 61.1374 265.817 72.8163 272.32 98.1832C278.823 123.55 264.426 127.508 246.033 100.057C227.641 72.6057 186.638 65.5414 160.488 65.3457C134.348 65.1499 137.953 78.6911 123.555 82.6487C109.158 86.6062 159.939 90.6367 178.002 105.192C196.066 119.758 145.063 124.847 126.672 126.453C108.291 128.059 150.642 145.586 130.045 149.105C109.448 152.624 85.5485 138.472 59.7121 163.204C33.8757 187.937 18.7214 214.253 31.6099 213.925C44.4983 213.596 108.703 204.049 98.8847 231.158C89.0767 258.267 39.6731 240.654 42.8751 277.408C46.0771 314.161 13.1982 338.808 -5.75321 336.628C-24.6946 334.459 -73.1545 305.788 -96.3632 267.929C-143.431 191.153 -84.2883 53.1633 -55.9994 29.0616C-23.0801 1.01501 18.6772 -20.8369 73.5005 -29.5Z" fill="url(#paint0_linear_3575_39655)"/>
<defs>
<linearGradient id="paint0_linear_3575_39655" x1="99.8486" y1="21.3005" x2="121.579" y2="321.455" gradientUnits="userSpaceOnUse">
<stop stop-color="#71C5EF"/>
<stop offset="1" stop-color="#4BA5DC"/>
</linearGradient>
</defs>
</svg>
