<svg width="340" height="415" viewBox="0 0 340 415" fill="none" xmlns="http://www.w3.org/2000/svg">
<path fill-rule="evenodd" clip-rule="evenodd" d="M62.7501 306.082C62.7501 306.082 50.8185 308.095 32.7047 289.653C14.5893 271.212 9.76978 249.642 -3.96504 226.657C-17.7014 203.672 -35.543 185.341 -58.0767 177.754C-80.6104 170.165 -104.491 174.047 -117.437 178.267C-130.386 182.486 -138.989 188.472 -138.989 188.472C-138.989 188.472 -125.209 181.429 -110.785 193.783C-96.3608 206.136 -93.1116 240.508 -87.1733 266.327C-81.235 292.147 -66.4806 326.616 -56.1649 343.623C-45.8493 360.631 -31.2915 372.25 -31.2915 372.25C-31.2915 372.25 -23.6224 376.328 -15.9581 378.493C-8.29368 380.658 63.5258 371.297 62.7501 306.082Z" fill="url(#paint0_linear_3575_39656)"/>
<path fill-rule="evenodd" clip-rule="evenodd" d="M-70.9554 313.901C-65.9093 325.664 -60.624 336.273 -56.1664 343.622C-55.013 345.522 -53.8077 347.354 -52.5757 349.111C-51.6505 349.644 -50.7033 350.092 -49.8678 350.295C-46.9883 350.992 -54.8037 343.384 -53.7055 341.46C-52.6056 339.536 -41.9359 347.516 -31.5683 355.846C-21.1991 364.176 -20.4863 363.201 -19.2811 361.794C-18.0758 360.388 -7.74752 366.489 -4.61789 366.18C-1.48825 365.872 -10.317 359.592 -7.80574 358.083C-5.29448 356.574 12.7674 365.821 15.8278 363.746C18.8866 361.671 18.8221 363.385 24.1782 363.825C27.2433 364.077 39.5526 359.031 48.4286 349.811C51.6085 345.916 54.4124 341.533 56.6798 336.61C58.0503 332.354 58.4201 327.663 57.2683 322.579C57.2683 322.579 51.4166 331.107 39.5715 328.343C27.7279 325.579 29.8789 329.619 32.7599 334.585C35.6394 339.552 28.3888 337.549 24.3088 337.471C20.2288 337.392 25.5865 342.102 23.4214 344.699C21.2563 347.298 13.23 342.925 7.79838 341.504C2.36676 340.085 -0.320744 339.308 -4.67926 335.636C-9.03777 331.964 -16.7887 322.643 -17.2749 326.557C-17.7611 330.471 -12.3074 337.275 -11.9896 338.828C-11.6718 340.381 -14.5071 336.855 -15.5157 341.663C-16.5243 346.471 -18.4597 342.679 -25.8786 336.813C-33.296 330.948 -39.5489 325.714 -46.6563 317.92C-53.7637 310.125 -54.0091 314.612 -52.2689 319.273C-50.5286 323.935 -55.076 320.343 -54.884 324.534C-54.692 328.724 -58.6131 326.658 -64.2524 321.513C-66.7779 319.209 -69.0594 316.212 -70.9586 313.899L-70.9554 313.901Z" fill="#59B7EC"/>
<path fill-rule="evenodd" clip-rule="evenodd" d="M290.521 288.475C290.521 288.475 296.99 270.219 304.3 257.698C311.612 245.177 324.754 235.818 322.596 232.567C320.439 229.317 321.921 222.963 325.526 220.318C329.133 217.674 338.186 214.084 339.395 207.618C340.603 201.152 330.863 206.043 327.783 207.004C324.703 207.966 332.001 197.809 329.347 195.781C326.692 193.753 324.522 197.139 323.459 197.812C322.393 198.485 323.134 192.779 321.141 194.181C319.147 195.583 317.988 198.432 316.23 201.196C314.473 203.96 313.352 191.168 319.574 178.995C325.795 166.82 331.269 161.14 326.905 163.318C322.54 165.493 326.08 160.292 329.922 154.74C333.765 149.189 341.03 135.225 338.893 133.09C336.756 130.955 334.983 131.814 335.684 128.147C336.386 124.48 341.887 105.529 339.324 102.113C336.761 98.6978 328.863 118.097 324.231 119.375C319.599 120.652 319.103 112.544 322.401 102.5C325.699 92.4569 325.883 88.8935 323.759 89.4536C321.633 90.0121 325.359 81.2493 328.513 76.9985C331.667 72.7476 335.718 63.9597 331.367 63.7693C327.016 63.5805 321.086 72.7115 318.949 70.5766C316.812 68.4417 322.818 56.0212 321.007 49.5915C319.196 43.1618 314.954 52.0315 312.378 59.5216C309.802 67.0133 310.517 56.7087 306.408 61.3623C302.3 66.0159 297.477 67.3735 296.752 61.3859C296.027 55.3966 297.452 49.1777 299.927 44.65C302.402 40.1223 311.377 27.0127 306.684 24.9439C301.99 22.8767 296.109 32.659 293.1 35.3885C290.092 38.118 292.834 25.161 289.033 28.674C285.231 32.1854 283.699 33.6186 281.271 30.2582C278.843 26.8979 274.594 32.2861 270.667 38.4358C266.74 44.5871 264.65 48.163 261.047 45.7481C257.444 43.3332 260.085 38.3981 261.928 35.0361C263.771 31.6757 270.986 21.3287 265.723 23.7719C260.458 26.2151 260.984 20.262 257.809 23.3975C254.633 26.5329 250.756 29.0673 248.017 27.6357C245.278 26.2056 240.77 34.1724 236.811 36.5165C232.852 38.859 232.997 33.068 229.791 36.6644C226.586 40.2623 221.996 48.0403 219.172 47.2065C216.348 46.3727 221.732 24.2124 218.16 25.6047C214.589 26.997 211.287 28.501 211.857 19.7193C212.428 10.9376 210.623 12.2607 209.237 12.1694C207.851 12.0782 210.68 -1.47666 206.861 0.132742C203.042 1.74214 201.083 6.16287 199.848 8.03343C198.613 9.90241 199.368 1.82867 194.332 7.21064C189.293 12.5926 188.714 18.6825 185.489 21.1651C182.263 23.6476 185.892 -0.808044 181.996 4.87913C178.1 10.5679 178.326 -0.0938028 173.338 5.94262C168.351 11.9775 167.573 14.6645 163.27 20.1881C158.966 25.7101 158.922 32.81 156.195 34.0717C153.467 35.3334 151.447 18.5394 145.494 22.2836C139.54 26.0279 141.668 43.3395 139.551 42.3201C137.435 41.3006 136.049 41.211 134.543 47.2395C133.037 53.2697 134.834 62.0639 130.905 63.9439C126.976 65.8255 123.628 57.3443 120.424 47.3449C117.221 37.344 116.84 41.7742 115.786 45.1409C114.731 48.5075 111.134 35.9737 106.115 33.9317C101.096 31.8897 104.521 45.6175 104.353 51.0829C104.184 56.5498 103.865 64.3262 101.181 62.7593C98.4979 61.1924 97.1683 55.9079 92.6304 55.0112C88.0941 54.1145 92.1867 65.4243 91.3292 67.9226C90.4716 70.4209 87.803 66.4878 87.0745 69.8278C86.346 73.1693 84.8213 82.3537 81.1582 80.8623C77.4952 79.3709 73.4624 71.4057 70.3878 71.5772C67.3133 71.7486 67.864 79.7201 65.5777 79.8979C63.2915 80.0741 59.5262 73.0072 58.2013 76.2638C56.8764 79.5203 63.3088 99.8494 60.0832 102.332C56.8576 104.814 58.505 115.923 54.0599 122.178C49.6165 128.435 45.7394 121.638 42.7483 116.942C39.7571 112.246 36.3709 114.348 35.9461 121.607C35.5213 128.866 41.2849 143.072 40.6429 145.814C40.0009 148.558 36.1098 139.858 34.2421 147.162C32.3759 154.467 37.3355 161.705 40.4541 168.034C43.5727 174.362 49.5315 187.698 48.7982 191.827C48.0666 195.957 39.5509 186.958 35.194 183.288C30.8371 179.616 27.6964 181.502 28.919 186.269C30.1416 191.036 41.9993 205.033 41.0662 206.551C40.1316 208.069 38.9923 207.763 40.4053 212.449C41.8183 217.136 40.4274 217.834 37.5826 215.887C34.7377 213.937 35.5685 220.443 37.7163 225.269C39.864 230.098 40.2527 233.417 43.4642 237.57C46.6756 241.724 51.256 249.122 54.9962 255.862C58.7363 262.603 55.8914 260.654 53.687 261.022C51.481 261.39 54.7994 266.061 55.0009 268.673C55.2038 271.284 48.364 268.66 49.4591 271.794C50.5558 274.928 56.3415 285.19 56.3383 290.249C56.3352 295.309 56.0063 300.393 57.2242 305.949C58.442 311.505 55.6365 321.116 52.809 325.342C49.9815 329.567 49.1947 335.984 44.9605 342.2C40.7279 348.416 64.448 339.881 64.448 339.881L290.521 288.475Z" fill="url(#paint1_linear_3575_39656)"/>
<path fill-rule="evenodd" clip-rule="evenodd" d="M-31.2928 372.25C-31.2928 372.25 -12.7448 391.184 21.7678 405.862C56.2818 420.54 97.17 429.271 127.483 427.849C157.796 426.427 186.257 416.344 207.175 403.035C228.092 389.724 246.988 368.951 259.142 351.915C271.295 334.88 289.234 296.638 291.678 284.032C294.121 271.428 297.078 263.774 302.667 252.766C308.256 241.757 310.229 239.238 305.899 240.165C301.569 241.091 307.191 228.831 302.017 229.888C296.842 230.944 296.534 227.815 297.187 223.495C297.839 219.175 305.893 205.216 302.738 205.197C299.583 205.178 298.154 202.857 298.828 199.651C299.5 196.447 294.375 198.155 295.92 190.088C297.465 182.019 300.864 173.281 301.023 169.394C301.182 165.505 309.442 162.698 310.961 154.303C312.481 145.907 310.907 140.84 308.139 144.14C305.372 147.443 301.784 146.93 302.908 141.062C304.031 135.193 306.083 124.327 303.948 126.462C301.813 128.599 298.939 131.383 301.458 124.027C303.978 116.67 306.317 107.818 304.412 107.834C302.508 107.849 301.141 108.875 300.143 102.776C299.147 96.6764 296.434 99.8433 291.889 104.794C287.343 109.744 292.37 101.67 288.252 94.3009C284.135 86.9319 282.473 91.7916 281.038 95.3187C279.603 98.8459 279.277 89.5419 276.234 93.5221C273.189 97.5024 274.81 104.012 271.312 102.115C267.815 100.218 267.505 102.146 264.833 107.544C262.163 112.94 261.03 124.656 255.532 120.679C250.033 116.702 254.298 99.6199 255.464 95.9826C256.629 92.3454 254.117 93.8525 255.431 87.9042C256.745 81.9558 254.399 69.4567 251.883 71.7535C249.367 74.0504 249.108 80.9018 245.55 79.9295C241.992 78.9557 243.896 65.3411 239.56 62.7862C235.223 60.2297 232.098 77.6185 229.523 80.8389C226.947 84.0608 223.976 84.7499 222.568 79.2735C221.16 73.7987 220.25 75.6425 216.312 79.1005C212.373 82.5584 207.266 90.4418 206.094 86.3278C204.921 82.2139 202.169 87.4196 197.502 89.9478C192.835 92.4759 188.65 96.1494 186.493 102.23C184.334 108.309 186.287 114.005 182.019 113.219C177.754 112.432 174.248 102.782 175.085 94.8987C175.921 87.0169 177.593 80.5809 174.86 82.6308C172.127 84.6822 174.204 74.1401 174.42 70.1174C174.635 66.0931 173.601 56.9763 170.38 58.6691C167.16 60.3635 164.716 68.6999 162.768 71.5427C160.819 74.3871 159.818 69.0775 156.112 74.6844C152.407 80.2914 151.453 84.9638 148.339 87.1758C145.224 89.3877 147.145 77.6751 141.117 80.4408C135.088 83.2066 128.671 96.2501 125.889 101.917C123.107 107.585 120.86 101.451 118.579 105.11C116.297 108.77 117.377 115.058 114.919 116.431C112.463 117.803 112.351 113.806 109.396 112.129C106.441 110.451 107.487 99.3336 105.637 94.9427C103.786 90.5535 99.7254 87.3189 98.089 92.5043C96.4525 97.6896 96.654 100.303 93.3166 98.7861C89.9793 97.2695 90.9124 105.082 90.0706 109.482C89.2272 113.883 87.9731 118.908 85.8474 119.466C83.7216 120.025 81.5235 110.274 77.7818 112.862C74.0385 115.451 75.4908 131.696 72.9449 134.456C70.399 137.213 72.1849 147.587 71.4391 154.083C70.6933 160.58 70.4982 152.12 67.3701 156.696C64.2405 161.274 62.7252 151.011 59.8882 156.814C57.0513 162.616 64.0674 181.127 67.3716 192.435C70.6775 203.742 79.7596 213.289 81.4275 225.512C83.0954 237.734 80.4378 240.764 76.7134 235.928C72.9874 231.09 68.5297 226.114 67.1246 229.179C65.7179 232.245 76.77 253.661 76.0478 256.215C75.3256 258.766 73.4846 257.069 74.7591 262.489C76.032 267.91 74.66 269.724 73.2045 272.136C71.7491 274.547 74.6033 279.188 72.4996 280.862C70.3943 282.536 72.2258 290.081 69.1166 291.503C66.0075 292.926 65.1279 280.708 62.6324 284.12C60.1368 287.533 64.3773 301.592 62.1493 310.174C59.9213 318.755 50.9383 337.713 36.9848 351.01C23.0312 364.307 -1.00192 379.828 -31.2865 372.249L-31.2928 372.25Z" fill="url(#paint2_linear_3575_39656)"/>
<path fill-rule="evenodd" clip-rule="evenodd" d="M-31.2932 372.25C-31.2932 372.25 -29.3421 374.241 -25.5359 377.428C-25.454 377.466 -19.7518 380.09 -15.9613 378.491C-12.144 376.882 -1.43344 382.822 8.21194 380.106C17.8589 377.389 15.5884 379.47 9.0632 383.456C2.53802 387.443 20.2993 383.442 27.9858 380.876C35.6722 378.312 37.6059 377.834 42.9416 372.889C48.2757 367.945 55.361 370.353 49.1143 377.931C42.8661 385.509 46.2632 386.099 54.5868 381.581C62.9121 377.061 70.866 366.068 74.3182 366.522C77.7704 366.979 75.7626 375.018 71.3239 380.485C66.8835 385.952 72.3513 386.121 79.7341 379.638C87.1184 373.155 94.1046 364.927 97.4152 361.847C100.724 358.766 98.7935 367.784 101.656 362.308C104.518 356.831 110.469 344.546 113.809 345.273C117.151 346 112.969 358.216 112.157 362.154C111.344 366.093 114.443 361.976 115.891 365.412C117.34 368.848 124.536 357.385 126.446 360.851C128.356 364.317 122.106 376.954 126.065 378.882C130.025 380.809 132.415 376.88 137.69 372.859C142.964 368.838 144.16 364.738 146.097 359.202C148.035 353.664 151.313 346.777 153.162 346.897C155.01 347.016 155.16 358.304 159.677 358.087C164.193 357.87 168.1 346.333 169.766 344.957C171.434 343.58 170.201 349.719 174.056 341.801C177.912 333.881 181.302 330.993 182.976 333.096C184.65 335.201 182.424 348.053 182.51 351.725C182.597 355.397 186.42 353.001 184.236 358.754C182.052 364.507 177.881 379.413 181.621 381.883C185.36 384.353 194.597 372.932 197.244 371.478C199.891 370.026 197.924 376.025 201.434 371.286C204.945 366.548 209.871 357.165 213.61 359.636C217.35 362.106 207.547 381.521 206.493 384.888C205.439 388.255 214.864 381.811 215.056 386C215.248 390.19 202.144 402.568 197.933 405.916C196.497 407.058 196.599 407.997 197.354 408.738C200.78 406.919 204.06 405.013 207.171 403.032C228.089 389.721 246.985 368.948 259.138 351.912C263.218 346.193 267.95 338.083 272.528 329.357C272.39 329.557 258.834 349.116 254.606 350.227C250.357 351.344 255.392 337.421 250.885 340.331C246.379 343.242 244.34 343.203 245.935 335.786C247.529 328.37 251.378 322.029 250.882 313.922C250.386 305.814 250.344 299.313 248.16 300.795C245.974 302.277 243.133 308.87 241.68 310.494C240.23 312.117 242.546 302.148 239.212 304.903C235.877 307.657 233.852 309.522 235.04 301.94C236.228 294.359 239.407 286.166 238.888 282C238.368 277.835 236.9 263.955 234.792 266.417C232.683 268.879 228.114 282.042 226.824 284.048C225.533 286.054 225.908 278.141 222.83 283.372C219.751 288.603 214.064 288.977 214.153 283.32C214.241 277.662 217.351 258.37 216.514 252.653C215.679 246.936 214.351 232.322 211.865 234.157C209.379 235.991 207.904 245.828 205.357 244.317C202.808 242.805 201.127 232.949 199.625 229.649C198.12 226.349 195.581 232.59 194.303 227.958C193.026 223.327 187.317 208.985 185.067 212.18C182.817 215.376 184.919 236.631 183.188 243.992C181.457 251.354 179.848 243.266 178.402 248.371C176.956 253.474 174.855 267.96 167.863 268.434C160.869 268.909 155.873 239.993 151.712 239.724C147.552 239.454 143.689 257.491 142.128 259.385C140.566 261.279 139.155 247.263 136.488 251.871C133.821 256.479 135.001 268.346 133.179 272.822C131.357 277.297 124.491 287.947 121.239 285.832C117.988 283.719 114.324 264.358 110.48 265.64C106.636 266.922 107.669 289.639 104.659 288.098C101.649 286.557 101.114 294.087 100.055 298.242C98.9965 302.397 100.562 309.043 93.5869 319.961C86.6117 330.88 77.3251 341.65 74.3308 342.013C71.3364 342.377 77.5721 327.834 74.8736 328.635C72.1751 329.435 69.3287 336.815 67.3902 338.082C65.4517 339.348 69.4908 323.597 66.6522 325.129C63.8137 326.663 49.1096 347.246 45.4827 348.775C41.8543 350.303 46.4426 344.257 41.269 346.582H41.2674C39.8954 348.108 38.4666 349.588 36.9813 351.006C23.0277 364.303 -1.00543 379.824 -31.29 372.244L-31.2932 372.25Z" fill="url(#paint3_linear_3575_39656)"/>
<path fill-rule="evenodd" clip-rule="evenodd" d="M7.36426 248.561C4.02221 241.448 0.499209 234.128 -3.96473 226.657C-17.7011 203.672 -35.5427 185.341 -58.0764 177.754L-58.6696 177.559C-56.1741 180.807 -53.2993 185.068 -54.6148 185.96C-56.8003 187.443 -65.7014 179.393 -65.6196 183.855C-65.5378 188.315 -70.8215 184.585 -78.5331 182.552C-86.2462 180.519 -83.1953 184.29 -81.9633 187.481C-80.7313 190.671 -90.7778 183.104 -91.53 186.118C-92.2837 189.133 -91.8509 189.625 -96.3023 188.129C-100.755 186.633 -102.05 189.427 -101.331 191.935C-100.612 194.441 -96.4187 202.79 -94.0522 202.804C-91.6857 202.818 -96.0742 195.339 -90.3656 196.08C-84.6571 196.821 -81.2033 201.547 -76.4593 204.269C-71.7152 206.99 -67.5141 209.49 -67.9609 207.094C-68.4094 204.698 -70.7602 202.319 -71.4761 199.024C-72.1904 195.728 -66.1042 201.368 -62.4207 203.974C-58.7357 206.581 -62.4821 200.627 -61.1163 199.602C-59.7506 198.578 -50.3208 204.945 -42.8625 213.041C-35.4027 221.137 -31.4108 226.871 -29.7901 224.053C-28.1694 221.236 -36.715 208.427 -35.1273 206.858C-33.5397 205.29 -25.3923 216.356 -20.4752 222.151C-15.5596 227.947 -18.0284 222.356 -18.5823 219.442C-19.1361 216.529 -8.34369 226.931 -3.2724 233.895C0.549563 239.145 3.57062 244.159 7.36426 248.561Z" fill="#6FC4EE"/>
<defs>
<linearGradient id="paint0_linear_3575_39656" x1="-2.8771" y1="347.11" x2="-91.7251" y2="95.356" gradientUnits="userSpaceOnUse">
<stop stop-color="#2F6EB2"/>
<stop offset="0.53" stop-color="#4E9CD4"/>
<stop offset="1" stop-color="#2F6EB2"/>
</linearGradient>
<linearGradient id="paint1_linear_3575_39656" x1="59.365" y1="160.112" x2="314.689" y2="206.072" gradientUnits="userSpaceOnUse">
<stop stop-color="#B0DAE8"/>
<stop offset="1" stop-color="#D4EAF0"/>
</linearGradient>
<linearGradient id="paint2_linear_3575_39656" x1="72.2108" y1="416.325" x2="234.837" y2="107.291" gradientUnits="userSpaceOnUse">
<stop stop-color="#4B82C0"/>
<stop offset="1" stop-color="#57BEED"/>
</linearGradient>
<linearGradient id="paint3_linear_3575_39656" x1="86.1939" y1="427.696" x2="235.111" y2="94.9782" gradientUnits="userSpaceOnUse">
<stop stop-color="#6CC4EF"/>
<stop offset="1" stop-color="#7EC8E5"/>
</linearGradient>
</defs>
</svg>
