<svg width="257" height="513" viewBox="0 0 257 513" fill="none" xmlns="http://www.w3.org/2000/svg"> <path fill-rule="evenodd" clip-rule="evenodd" d="M192.04 87.8311C192.04 87.8311 200.978 84.0358 215.691 85.2701C230.405 86.5045 248.725 97.4656 255.639 107.855C262.552 118.243 255.356 128.151 252.197 120.336C249.039 112.524 248.344 114.866 247.754 120.296C247.164 125.726 244.066 125.446 242.489 118.738C240.913 112.03 233.43 107.652 228.345 105.701C223.259 103.75 222.971 106.658 219.873 106.378C216.775 106.098 226.386 110.599 228.842 114.763C231.297 118.929 220.977 116.193 217.272 115.161C213.57 114.128 220.546 120.649 216.27 119.832C211.995 119.012 208.368 114.501 201.518 117.44C194.666 120.379 189.783 124.413 192.32 125.29C194.86 126.169 208.081 128.999 204.181 133.577C200.28 138.154 191.934 131.099 189.867 138.51C187.799 145.924 179.579 148.33 176.045 146.52C172.509 144.71 163.404 126.476 163.404 126.476L192.04 87.8311Z" fill="url(#paint0_linear_3575_39649)"/> <path fill-rule="evenodd" clip-rule="evenodd" d="M178.967 95.41C188.193 88.532 197.153 85.1323 197.243 87.834C197.333 90.5358 216.7 86.5872 223.416 91.1866C230.135 95.7857 203.576 92.4475 200.073 97.395C196.569 102.345 202.599 103.684 208.397 103.872C214.195 104.06 192.001 110.037 186.133 113.525C180.266 117.01 186.508 118.92 180.108 123.777C173.706 128.633 180.297 129.375 186.087 129.368C191.878 129.362 179.975 137.112 169.954 137.648C159.934 138.185 163.401 126.474 163.401 126.474C163.401 126.474 161.825 111.163 178.967 95.41Z" fill="url(#paint1_linear_3575_39649)"/> <path fill-rule="evenodd" clip-rule="evenodd" d="M253.739 420.828C253.739 420.828 260.658 385.928 232.588 352.885C210.541 326.933 186.847 307.263 164.691 279.818C142.535 252.371 127.999 221.961 128.878 190.635C129.757 159.307 145.429 131.53 156.538 117.432C167.648 103.334 178.965 95.4102 178.965 95.4102C178.965 95.4102 163.986 109.255 172.687 132.719C181.39 156.182 222.396 175.834 251.609 194.924C280.821 214.014 316.708 247.943 333.034 268.441C349.36 288.939 357.095 312.232 357.095 312.232C357.095 312.232 358.645 323.573 357.83 334.039C357.016 344.506 333.995 451.448 253.737 420.826L253.739 420.828Z" fill="url(#paint2_linear_3575_39649)"/> <path fill-rule="evenodd" clip-rule="evenodd" d="M303.032 236.626C315.275 248.218 325.983 259.583 333.037 268.44C334.862 270.73 336.577 273.056 338.188 275.38C338.426 276.766 338.548 278.143 338.419 279.269C337.971 283.149 332.125 270.019 329.245 270.504C326.365 270.989 331.371 287.818 336.948 304.435C342.525 321.052 340.994 321.49 338.706 322.341C336.419 323.191 339.257 338.743 337.452 342.475C335.648 346.208 331.902 332.428 328.895 334.849C325.887 337.271 329.092 363.822 325.134 366.663C321.176 369.504 323.323 370.203 321.428 377.028C320.344 380.935 308.504 393.868 293.064 400.653C286.803 402.816 280.108 404.291 272.989 404.856C267.104 404.617 261.139 402.94 255.378 399.202C255.378 399.202 268.585 395.84 270.561 379.931C272.537 364.021 276.55 368.52 281.378 374.345C286.205 380.167 287.031 370.287 288.792 365.203C290.553 360.118 293.936 368.89 298.132 367.392C302.328 365.895 300.577 353.978 301.297 346.613C302.015 339.246 302.279 335.569 299.725 328.507C297.171 321.447 289.178 307.616 294.238 308.796C299.298 309.975 305.226 319.816 306.999 320.915C308.772 322.013 305.706 316.902 312.108 317.843C318.511 318.783 314.704 314.662 310.832 302.817C306.959 290.971 303.338 280.856 296.941 268.52C290.542 256.182 296.2 257.92 301.17 262.192C306.139 266.464 303.771 259.206 308.863 261.349C313.954 263.492 313.186 257.7 309.394 248.386C307.695 244.215 305.028 240.028 303.036 236.625L303.032 236.626Z" fill="#59B7EC"/> <path fill-rule="evenodd" clip-rule="evenodd" d="M183.316 301.057C176.047 293.687 171.892 288.738 164.691 279.818C142.535 252.371 128 221.96 128.878 190.634L128.907 189.813C131.787 194.378 135.744 199.871 137.447 198.649C140.274 196.62 134.378 181.948 139.854 184.079C145.329 186.21 143.123 177.976 144.123 167.511C145.123 157.044 148.396 162.535 151.778 165.511C155.161 168.486 150.381 152.616 154.449 153.055C158.518 153.495 158.93 154.253 159.108 148.065C159.286 141.876 163.33 141.544 166.1 143.575C168.87 145.606 177.28 154.59 176.222 157.524C175.161 160.459 167.914 151.629 166.233 159.026C164.551 166.426 168.82 172.848 170.025 179.954C171.229 187.061 172.408 193.397 169.65 191.751C166.892 190.107 165.022 186.114 161.274 183.732C157.525 181.348 161.727 191.444 163.27 197.187C164.813 202.93 159.161 195.588 157.272 196.813C155.383 198.036 158.96 212.598 165.571 225.508C172.183 238.419 177.455 245.966 173.232 246.69C169.011 247.414 157.068 231.015 154.409 232.266C151.747 233.516 161.714 248.629 166.64 257.348C171.566 266.064 165.779 260.467 162.429 258.459C159.081 256.448 167.023 274.529 173.324 283.974C178.073 291.09 179.605 294.369 183.319 301.063L183.316 301.057Z" fill="#6FC4EE"/> <defs> <linearGradient id="paint0_linear_3575_39649" x1="219.744" y1="92.6639" x2="202.009" y2="152.879" gradientUnits="userSpaceOnUse"> <stop stop-color="#71C5EF"/> <stop offset="1" stop-color="#4BA5DC"/> </linearGradient> <linearGradient id="paint1_linear_3575_39649" x1="194.174" y1="92.2653" x2="193.023" y2="136.73" gradientUnits="userSpaceOnUse"> <stop stop-color="#306FB3"/> <stop offset="1" stop-color="#275D9A"/> </linearGradient> <linearGradient id="paint2_linear_3575_39649" x1="321.568" y1="345.351" x2="37.6694" y2="110.255" gradientUnits="userSpaceOnUse"> <stop stop-color="#2F6EB2"/> <stop offset="0.53" stop-color="#4E9CD4"/> <stop offset="1" stop-color="#2F6EB2"/> </linearGradient> </defs> </svg>