<svg width="383" height="183" viewBox="0 0 383 183" fill="none" xmlns="http://www.w3.org/2000/svg">
<path fill-rule="evenodd" clip-rule="evenodd" d="M355.918 76.6573C355.918 76.6573 363.63 84.2329 368.635 99.898C373.639 115.563 370.185 139.09 362.455 150.637C354.725 162.183 341.474 159.008 348.159 152.423C354.841 145.839 352.138 146.124 346.306 147.835C340.473 149.545 339.44 146.238 345.662 141.752C351.885 137.268 353.194 127.701 353.031 121.636C352.868 115.571 349.756 116.516 348.723 113.209C347.69 109.903 347.161 121.711 343.929 126.015C340.694 130.32 339.106 118.533 338.587 114.281C338.07 110.031 334.342 119.993 333.359 115.244C332.379 110.496 335.469 104.839 329.528 99.0454C323.585 93.2498 317.358 89.9476 317.538 92.9328C317.717 95.9211 320.445 110.731 314.078 108.672C307.71 106.612 311.403 95.0146 302.904 96.0513C294.402 97.0871 288.425 89.6572 288.779 85.2484C289.131 80.8378 303.99 63.6877 303.99 63.6877L355.918 76.6573Z" fill="url(#paint0_linear_3575_39643)"/>
<path fill-rule="evenodd" clip-rule="evenodd" d="M342.554 66.4441C353.557 73.0015 360.871 80.7686 358.133 82.0145C355.394 83.2604 367.71 101.501 365.846 110.374C363.984 119.249 356.091 90.4988 349.512 89.0069C342.931 87.5142 344.126 94.2899 346.405 100.335C348.684 106.38 333.077 86.097 326.991 81.5488C320.907 76.9993 321.606 84.2365 313.885 79.7253C306.164 75.211 308.212 82.3085 310.687 88.2624C313.163 94.2184 300.122 85.2793 295.298 75.1985C290.475 65.1177 303.989 63.6872 303.989 63.6872C303.989 63.6872 319.054 55.5311 342.554 66.4441Z" fill="url(#paint1_linear_3575_39643)"/>
<path fill-rule="evenodd" clip-rule="evenodd" d="M53.8828 250.856C53.8828 250.856 71.4907 253.095 96.9397 224.986C122.391 196.875 128.171 164.967 146.932 130.459C165.696 95.949 190.754 68.0155 223.326 55.5502C255.899 43.0836 291.13 47.3538 310.356 52.7659C329.583 58.1799 342.552 66.4415 342.552 66.4415C342.552 66.4415 321.936 56.9392 301.53 75.9054C281.125 94.8736 278.41 145.45 271.245 183.653C264.08 221.855 244.508 273.259 230.402 298.804C216.295 324.349 195.652 342.248 195.652 342.248C195.652 342.248 184.657 348.683 173.552 352.311C162.448 355.941 56.6296 346.497 53.8815 250.855L53.8828 250.856Z" fill="url(#paint2_linear_3575_39643)"/>
<path fill-rule="evenodd" clip-rule="evenodd" d="M121.373 177.152C125.849 166.527 130.576 155.587 136.672 144.369C155.435 109.86 180.494 81.926 213.065 69.4607L213.923 69.1396C210.458 74.0507 206.499 80.4668 208.481 81.6969C211.772 83.7402 224.338 71.4119 224.482 77.9551C224.627 84.4982 232.149 78.7142 243.331 75.2769C254.516 71.8383 250.267 77.5489 248.651 82.2989C247.036 87.0488 261.309 75.3577 262.592 79.7313C263.875 84.1048 263.271 84.8528 269.707 82.3944C276.144 79.936 278.209 83.9557 277.303 87.6724C276.397 91.3891 270.749 103.876 267.281 104.039C263.813 104.201 269.799 92.9761 261.479 94.4038C253.156 95.8307 248.377 102.964 241.586 107.237C234.795 111.508 228.786 115.425 229.302 111.885C229.816 108.346 233.122 104.719 233.972 99.8451C234.824 94.9705 226.239 103.602 220.994 107.641C215.75 111.68 220.886 102.731 218.821 101.311C216.759 99.8889 203.318 109.784 192.867 122.096C182.416 134.409 176.907 143.053 174.363 139.018C171.819 134.984 183.582 115.698 181.162 113.496C178.742 111.29 167.459 127.996 160.598 136.784C153.74 145.572 157.026 137.23 157.661 132.926C158.3 128.623 143.103 144.512 136.082 155.025C130.792 162.948 126.664 170.476 121.367 177.155L121.373 177.152Z" fill="#6FC4EE"/>
<defs>
<linearGradient id="paint0_linear_3575_39643" x1="362.763" y1="107.223" x2="293.311" y2="114.662" gradientUnits="userSpaceOnUse">
<stop stop-color="#71C5EF"/>
<stop offset="1" stop-color="#4BA5DC"/>
</linearGradient>
<linearGradient id="paint1_linear_3575_39643" x1="352.271" y1="80.7462" x2="306.068" y2="98.508" gradientUnits="userSpaceOnUse">
<stop stop-color="#306FB3"/>
<stop offset="1" stop-color="#275D9A"/>
</linearGradient>
<linearGradient id="paint2_linear_3575_39643" x1="152.511" y1="307.089" x2="267.773" y2="-67.2257" gradientUnits="userSpaceOnUse">
<stop stop-color="#2F6EB2"/>
<stop offset="0.53" stop-color="#4E9CD4"/>
<stop offset="1" stop-color="#2F6EB2"/>
</linearGradient>
</defs>
</svg>
