<svg width="551" height="268" viewBox="0 0 551 268" fill="none" xmlns="http://www.w3.org/2000/svg">
<path d="M361.193 210.906C348.977 212.384 336.077 204.094 322.807 186.241C312 171.7 300.865 150.742 289.702 123.957C270.728 78.444 258.074 31.139 257.951 30.6739C257.759 29.9626 258.183 29.2375 258.895 29.046C259.606 28.8545 260.331 29.2786 260.523 29.9899C260.646 30.455 273.259 77.6095 292.164 122.958C303.245 149.538 314.271 170.291 324.955 184.654C338.06 202.274 350.55 210.154 362.068 208.061C373.724 205.954 384.052 196.747 392.78 180.715C399.866 167.691 405.899 150.209 410.687 128.745C418.881 92.0965 420.646 56.1185 420.673 55.7628C420.714 55.0241 421.33 54.4632 422.068 54.4906C422.807 54.5316 423.368 55.1472 423.341 55.8859C423.327 56.2416 421.548 92.4248 413.299 129.292C408.443 151.002 402.328 168.731 395.133 181.973C385.994 198.758 375.037 208.416 362.547 210.674C362.096 210.756 361.644 210.824 361.193 210.879V210.906Z" fill="#AABA54"/>
<path d="M421.261 65.0925C421.261 65.0925 419.524 70.4139 416.049 71.1116C412.574 71.8229 409.004 71.3578 409.004 71.3578C409.004 71.3578 411.548 64.983 414.394 64.0801C417.239 63.1773 421.261 65.0788 421.261 65.0788V65.0925Z" fill="#AABA54"/>
<path d="M409.195 140.769C409.195 140.769 407.458 146.091 403.983 146.788C400.509 147.5 396.938 147.034 396.938 147.034C396.938 147.034 399.483 140.66 402.328 139.757C405.174 138.854 409.195 140.755 409.195 140.755V140.769Z" fill="#AABA54"/>
<path d="M399.524 171.905C399.524 171.905 395.365 175.639 392 174.504C388.635 173.368 385.776 171.193 385.776 171.193C385.776 171.193 391.165 166.953 394.079 167.596C396.993 168.238 399.524 171.905 399.524 171.905Z" fill="#AABA54"/>
<path d="M398.347 175.298C398.347 175.298 402.547 178.991 401.822 182.466C401.097 185.94 399.264 189.032 399.264 189.032C399.264 189.032 394.421 184.176 394.708 181.207C395.009 178.239 398.347 175.284 398.347 175.284V175.298Z" fill="#AABA54"/>
<path d="M359.305 208.95C359.305 208.95 358.553 214.49 355.256 215.817C351.959 217.144 348.375 217.335 348.375 217.335C348.375 217.335 349.729 210.619 352.369 209.21C355.01 207.814 359.305 208.95 359.305 208.95Z" fill="#AABA54"/>
<path d="M357.485 211.221C357.485 211.221 352.109 209.689 351.274 206.242C350.44 202.794 350.768 199.21 350.768 199.21C350.768 199.21 357.225 201.509 358.237 204.327C359.25 207.145 357.499 211.235 357.499 211.235L357.485 211.221Z" fill="#AABA54"/>
<path d="M326.282 189.99C326.282 189.99 321.836 186.597 322.328 183.068C322.821 179.552 324.435 176.337 324.435 176.337C324.435 176.337 329.606 180.851 329.51 183.834C329.414 186.816 326.295 189.99 326.295 189.99H326.282Z" fill="#AABA54"/>
<path d="M304.407 152.357C304.407 152.357 301.535 147.24 303.464 144.025C305.379 140.811 308.265 138.348 308.265 138.348C308.265 138.348 311.37 144.833 310.044 147.692C308.717 150.551 304.407 152.357 304.407 152.357Z" fill="#AABA54"/>
<path d="M293.71 126.926C293.71 126.926 290.837 121.809 292.766 118.595C294.681 115.38 297.568 112.917 297.568 112.917C297.568 112.917 300.673 119.402 299.346 122.261C298.019 125.12 293.71 126.926 293.71 126.926Z" fill="#AABA54"/>
<path d="M282.301 101.878C282.301 101.878 276.966 104.299 273.915 102.124C270.864 99.935 268.662 96.8707 268.662 96.8707C268.662 96.8707 275.379 94.3262 278.128 95.8721C280.878 97.4316 282.301 101.878 282.301 101.878Z" fill="#AABA54"/>
<path d="M269.305 62.2883C269.305 62.2883 267.103 56.8574 269.415 53.9025C271.726 50.9477 274.887 48.8683 274.887 48.8683C274.887 48.8683 277.157 55.6946 275.488 58.3622C273.819 61.0434 269.319 62.2883 269.319 62.2883H269.305Z" fill="#AABA54"/>
<path d="M262.848 44.5862C262.848 44.5862 260.878 40.3454 257.91 40.0855C254.927 39.8256 252 40.5369 252 40.5369C252 40.5369 254.736 45.5711 257.212 46.0499C259.674 46.5287 262.848 44.5862 262.848 44.5862Z" fill="#AABA54"/>
<path d="M305.119 150.455C305.119 150.455 300.358 153.875 296.938 152.315C293.532 150.769 290.755 148.17 290.755 148.17C290.755 148.17 296.856 144.367 299.852 145.366C302.848 146.364 305.105 150.455 305.105 150.455H305.119Z" fill="#AABA54"/>
<path d="M324.627 187.295C324.627 187.295 321.07 191.618 317.568 191.002C314.066 190.386 310.919 188.663 310.919 188.663C310.919 188.663 315.612 183.656 318.594 183.861C321.576 184.066 324.627 187.295 324.627 187.295Z" fill="#AABA54"/>
<path d="M420.071 78.0065C420.071 78.0065 425.652 78.3485 427.212 81.5359C428.771 84.7233 429.222 88.2938 429.222 88.2938C429.222 88.2938 422.424 87.4456 420.823 84.9148C419.236 82.3841 420.057 78.0065 420.057 78.0065H420.071Z" fill="#AABA54"/>
<path d="M411.124 133.806C411.124 133.806 416.706 134.148 418.265 137.335C419.825 140.523 420.276 144.093 420.276 144.093C420.276 144.093 413.477 143.245 411.877 140.714C410.29 138.183 411.111 133.806 411.111 133.806H411.124Z" fill="#AABA54"/>
<path d="M259.073 83.2596C259.073 83.2596 264.408 80.9341 268.43 82.8766C272.451 84.8191 275.776 87.5962 275.776 87.5962C275.776 87.5962 268.922 90.0585 265.406 88.6905C261.891 87.3089 259.073 83.2596 259.073 83.2596Z" fill="#AABA54"/>
<path d="M259.291 82.8762C259.291 82.8762 263.518 86.8707 263.299 91.3303C263.08 95.7899 261.822 99.935 261.822 99.935C261.822 99.935 256.883 94.5861 256.774 90.8242C256.665 87.0622 259.305 82.8762 259.305 82.8762H259.291Z" fill="#AABA54"/>
<path d="M174.982 255.501C155.406 257.552 134.733 246.045 113.469 221.264C96.1505 201.079 78.3059 171.988 60.4175 134.808C30.0116 71.6325 9.73367 5.96915 9.53637 5.32353C9.22946 4.33612 9.90905 3.32971 11.049 3.06386C12.1889 2.79802 13.3508 3.38668 13.6577 4.37409C13.855 5.01971 34.0672 70.4741 64.3635 133.422C82.1203 170.317 99.7895 199.123 116.911 219.062C137.912 243.519 157.927 254.457 176.385 251.551C195.063 248.627 211.614 235.848 225.6 213.593C236.956 195.515 246.624 171.248 254.296 141.454C267.428 90.5833 270.255 40.6427 270.299 40.149C270.365 39.1236 271.352 38.3451 272.535 38.3831C273.719 38.44 274.618 39.2945 274.574 40.3199C274.552 40.8136 271.702 91.039 258.483 142.214C250.701 172.349 240.902 196.959 229.371 215.34C214.727 238.639 197.167 252.045 177.153 255.178C176.429 255.292 175.706 255.387 174.982 255.463V255.501Z" fill="#AABA54"/>
<path d="M271.242 53.0994C271.242 53.0994 268.458 60.486 262.89 61.4544C257.321 62.4418 251.6 61.7962 251.6 61.7962C251.6 61.7962 255.677 52.9474 260.237 51.6942C264.797 50.4409 271.242 53.0804 271.242 53.0804V53.0994Z" fill="#AABA54"/>
<path d="M251.907 158.145C251.907 158.145 249.122 165.532 243.554 166.5C237.986 167.487 232.264 166.842 232.264 166.842C232.264 166.842 236.342 157.993 240.902 156.74C245.461 155.486 251.907 158.126 251.907 158.126V158.145Z" fill="#AABA54"/>
<path d="M236.408 201.364C236.408 201.364 229.743 206.548 224.351 204.972C218.958 203.396 214.376 200.376 214.376 200.376C214.376 200.376 223.013 194.49 227.683 195.382C232.352 196.275 236.408 201.364 236.408 201.364Z" fill="#AABA54"/>
<path d="M234.522 206.073C234.522 206.073 241.252 211.2 240.09 216.023C238.928 220.847 235.991 225.138 235.991 225.138C235.991 225.138 228.23 218.397 228.691 214.276C229.173 210.156 234.522 206.054 234.522 206.054V206.073Z" fill="#AABA54"/>
<path d="M171.957 252.785C171.957 252.785 170.751 260.476 165.468 262.318C160.185 264.16 154.441 264.425 154.441 264.425C154.441 264.425 156.611 255.102 160.842 253.146C165.073 251.209 171.957 252.785 171.957 252.785Z" fill="#AABA54"/>
<path d="M169.04 255.939C169.04 255.939 160.425 253.812 159.088 249.027C157.75 244.241 158.277 239.266 158.277 239.266C158.277 239.266 168.624 242.456 170.246 246.368C171.868 250.28 169.062 255.957 169.062 255.957L169.04 255.939Z" fill="#AABA54"/>
<path d="M119.037 226.467C119.037 226.467 111.912 221.758 112.701 216.859C113.491 211.979 116.077 207.516 116.077 207.516C116.077 207.516 124.364 213.783 124.211 217.922C124.057 222.062 119.059 226.467 119.059 226.467H119.037Z" fill="#AABA54"/>
<path d="M83.9832 174.229C83.9832 174.229 79.3795 167.127 82.4705 162.665C85.5396 158.203 90.1651 154.785 90.1651 154.785C90.1651 154.785 95.1415 163.785 93.015 167.754C90.8886 171.723 83.9832 174.229 83.9832 174.229Z" fill="#AABA54"/>
<path d="M66.8406 138.929C66.8406 138.929 62.2369 131.827 65.328 127.365C68.397 122.903 73.0226 119.485 73.0226 119.485C73.0226 119.485 77.9989 128.485 75.8725 132.454C73.746 136.423 66.8406 138.929 66.8406 138.929Z" fill="#AABA54"/>
<path d="M48.5572 104.16C48.5572 104.16 40.0076 107.521 35.119 104.502C30.2304 101.464 26.7009 97.2102 26.7009 97.2102C26.7009 97.2102 37.4646 93.6783 41.871 95.824C46.2773 97.9888 48.5572 104.16 48.5572 104.16Z" fill="#AABA54"/>
<path d="M27.7315 49.2069C27.7315 49.2069 24.202 41.6684 27.9068 37.5668C31.6116 33.4652 36.6756 30.5789 36.6756 30.5789C36.6756 30.5789 40.3147 40.0543 37.6402 43.7572C34.9657 47.479 27.7533 49.2069 27.7533 49.2069H27.7315Z" fill="#AABA54"/>
<path d="M17.3842 24.6349C17.3842 24.6349 14.2274 18.7484 9.47028 18.3876C4.69127 18.0269 0 19.0143 0 19.0143C0 19.0143 4.38441 26.0022 8.3523 26.6668C12.2983 27.3314 17.3842 24.6349 17.3842 24.6349Z" fill="#AABA54"/>
<path d="M85.1236 171.589C85.1236 171.589 77.4947 176.337 72.0142 174.172C66.5556 172.026 62.1054 168.418 62.1054 168.418C62.1054 168.418 71.8826 163.139 76.6836 164.525C81.4845 165.912 85.1016 171.589 85.1016 171.589H85.1236Z" fill="#AABA54"/>
<path d="M116.385 222.726C116.385 222.726 110.685 228.727 105.073 227.872C99.4607 227.018 94.4186 224.625 94.4186 224.625C94.4186 224.625 101.938 217.675 106.717 217.96C111.496 218.245 116.385 222.726 116.385 222.726Z" fill="#AABA54"/>
<path d="M269.334 71.0252C269.334 71.0252 278.278 71.4999 280.778 75.9243C283.277 80.3487 284 85.3048 284 85.3048C284 85.3048 273.105 84.1275 270.54 80.6145C267.997 77.1016 269.312 71.0252 269.312 71.0252H269.334Z" fill="#AABA54"/>
<path d="M254.998 148.479C254.998 148.479 263.942 148.954 266.441 153.379C268.94 157.803 269.664 162.759 269.664 162.759C269.664 162.759 258.768 161.582 256.203 158.069C253.66 154.556 254.976 148.479 254.976 148.479H254.998Z" fill="#AABA54"/>
<path d="M11.3337 78.3169C11.3337 78.3169 19.8833 75.0888 26.3284 77.7852C32.7735 80.4817 38.1006 84.3364 38.1006 84.3364C38.1006 84.3364 27.1176 87.7544 21.4837 85.8555C15.8497 83.9376 11.3337 78.3169 11.3337 78.3169Z" fill="#AABA54"/>
<path d="M11.6839 77.7847C11.6839 77.7847 18.4578 83.3294 18.1071 89.5197C17.7563 95.7101 15.7395 101.464 15.7395 101.464C15.7395 101.464 7.82564 94.0391 7.65026 88.8172C7.47489 83.5952 11.7059 77.7847 11.7059 77.7847H11.6839Z" fill="#AABA54"/>
<path d="M268.579 44.3027C267.677 43.9019 210.013 18.2047 196.505 1.58021C183.091 -14.9204 169.11 -45.1047 168.68 -46.0521C169.325 -45.665 210.711 -19.5695 231.582 -2.3847C252.614 14.9413 268.597 44.3102 268.597 44.3102L268.584 44.3153L268.579 44.3027Z" fill="#6F1832"/>
<path d="M268.374 44.342C267.396 44.4448 204.61 51.0271 184.595 43.3759C164.722 35.7847 137.528 16.6408 136.678 16.0416C137.443 16.0698 186.328 17.9716 213.002 22.4229C239.882 26.9085 268.409 44.3571 268.409 44.3571L268.374 44.342Z" fill="#6F1832"/>
<path d="M268.209 44.4826L268.196 44.4878C267.403 45.0771 216.316 82.153 195.156 85.5442C174.146 88.904 141.026 85.9265 139.997 85.8288C140.663 85.469 183.95 62.6787 209.278 53.2023C234.796 43.6484 268.227 44.4901 268.227 44.4901L268.214 44.4953L268.209 44.4826Z" fill="#6F1832"/>
<path d="M268.145 44.6868C267.744 45.5886 242.047 103.253 225.422 116.761C208.922 130.175 178.738 144.156 177.79 144.586C178.19 143.936 204.285 102.55 221.47 81.6787C238.796 60.6463 268.165 44.6638 268.165 44.6638L268.152 44.669L268.145 44.6868Z" fill="#6F1832"/>
<path d="M268.171 44.8969C268.274 45.8742 274.856 108.66 267.205 128.676C259.614 148.549 240.47 175.743 239.871 176.593C239.899 175.828 241.801 126.942 246.252 100.268C250.738 73.3884 268.186 44.8612 268.186 44.8612L268.171 44.8969Z" fill="#6F1832"/>
<path d="M268.325 45.0561C268.919 45.8627 305.995 96.9494 309.387 118.109C312.746 139.119 309.769 172.239 309.671 173.268C309.311 172.603 286.521 129.315 277.045 103.987C267.491 78.4694 268.332 45.0383 268.332 45.0383L268.325 45.0561Z" fill="#6F1832"/>
<path d="M268.516 45.1257C269.418 45.5265 327.082 71.2238 340.59 87.8482C354.004 104.349 367.985 134.533 368.415 135.48C367.77 135.093 326.385 108.998 305.513 91.8131C284.481 74.4871 268.498 45.1182 268.498 45.1182L268.511 45.1131L268.516 45.1257Z" fill="#6F1832"/>
</svg>
