<?xml version="1.0" encoding="UTF-8" standalone="no"?>
<svg
   width="444"
   height="292"
   viewBox="0 0 444 292"
   fill="none"
   version="1.1"
   id="svg13"
   sodipodi:docname="branch_tl.svg"
   inkscape:version="1.4 (e7c3feb100, 2024-10-09)"
   xmlns:inkscape="http://www.inkscape.org/namespaces/inkscape"
   xmlns:sodipodi="http://sodipodi.sourceforge.net/DTD/sodipodi-0.dtd"
   xmlns="http://www.w3.org/2000/svg"
   xmlns:svg="http://www.w3.org/2000/svg">
  <defs
     id="defs13" />
  <sodipodi:namedview
     id="namedview13"
     pagecolor="#ffffff"
     bordercolor="#000000"
     borderopacity="0.25"
     inkscape:showpageshadow="2"
     inkscape:pageopacity="0.0"
     inkscape:pagecheckerboard="0"
     inkscape:deskcolor="#d1d1d1"
     inkscape:zoom="1.2249443"
     inkscape:cx="115.92364"
     inkscape:cy="217.15273"
     inkscape:window-width="1920"
     inkscape:window-height="1011"
     inkscape:window-x="1920"
     inkscape:window-y="32"
     inkscape:window-maximized="1"
     inkscape:current-layer="svg13" />
  <path
     d="m 101.19,68.945 c -4.2292,11.01 5.104,43.446 23.324,72.822 8.434,13.637 21.526,25.653 35.76,36.052 l 7.552,-10.59 7.847,21.013 c 1.437,0.916 2.909,1.837 4.351,2.718 l -5.261,-36.252 c 0,0 16.771,42.982 16.781,43.012 10.44,5.942 20.129,10.987 27.685,15.067 3.949,2.142 8.988,5.082 14.697,8.386 l -6.044,-36.356 24.979,47.329 c 28.381,16.102 60.545,32.432 60.786,18.476 0.354,-20.488 -31.584,-59.454 -73.123,-121.023 -5.059,-7.489 -10.289,-14.188 -15.552,-20.196 l -44.021,-8.574 23.783,-11.267 c -31.118,-26.022 -58.92,-30.967 -58.92,-30.967 -6.022,0.373 -12.057,0.955 -18.035,1.705 -3.228,0.397 -6.489,0.5 -9.684,1.09 -4.154,0.767 -5.173,1.951 -9.137,-0.084 -4.54,-2.33 -8.751,-5.283 -12.4899,-8.738 C 92.7295,49.112 86.0432,45.775 83.5005,41.5 78.2654,32.711 59.953,25.752 50.5005,21 40.0553,15.749 4.50049,-5.5 -2.49951,1 0.626294,8.203 103.785,62.271 101.215,68.97 l -0.01,-0.03 z"
     fill="#8da635"
     id="path1" />
  <path
     d="m -9.50001,15 c 0,0 113.92901,111.053 155.19501,167.806 1.888,2.578 3.735,5.104 5.517,7.534 5.812,7.914 30.25,39.807 34.657,45.522 -4.849,-5.193 -30.422,-37.34 -35.34,-42.996 2.24,8.167 16.357,35.611 23.383,46.726 1.196,1.892 3.198,4.535 5.777,7.612 l 1.701,-9.968 1.921,14.16 c 3.964,4.472 8.696,9.49 13.671,14.412 l -1.777,-14.423 12.984,24.897 c 11.618,10.181 22.366,17.255 25.586,13.321 1.162,-1.432 0.111,-5.594 -2.404,-11.331 l -11.528,-7.923 8.443,1.446 c -8.227,-16.109 -23.275,-39.08 -34.277,-52.942 l -15.16,-3.387 10.066,-2.671 c -1.567,-1.757 -2.988,-3.169 -4.179,-4.176 -0.255,-0.208 -0.497,-0.42 -0.766,-0.622 l -7.601,1.229 3.329,-4.544 C 170.913,198.236 161.042,193.105 155.249,191.164 128.204,155.167 85.3415,105.006 42,34 L -1,0 Z"
     fill="#8da635"
     id="path2" />
  <path
     d="m 55.7796,165.357 c -7.4433,-8.902 -4.0729,-41.86 1.8571,-71.478 0.1051,0.099 0.2103,0.199 0.3458,0.287 7.8614,29.078 13.3782,61.558 6.5764,70.89 -1.0562,1.452 -2.367,2.205 -4.0847,2.313 l -0.2351,0.017 c -1.8422,0.05 -3.2531,-0.608 -4.4595,-2.029 z"
     fill="#9c7c58"
     id="path3" />
  <path
     d="m 65.8654,79.381 c 20.108,-22.754 44.5976,-45.587 56.2786,-45.015 1.867,0.113 3.239,0.854 4.294,2.331 0.628,0.874 0.96,1.786 0.996,2.738 0.039,0.675 -0.055,1.364 -0.259,2.127 -3.371,11.184 -33.1656,26.542 -61.3401,37.83 z"
     fill="#9c7c58"
     id="path4" />
  <path
     d="m 126.045,197.673 c -9.564,-5.925 -16.53,-37.464 -20.101,-66.587 16.235,24.445 31.454,52.911 28,63.678 -0.547,1.715 -1.562,2.808 -3.205,3.406 -0.517,0.188 -1.026,0.304 -1.557,0.36 -1.043,0.069 -2.075,-0.21 -3.126,-0.826 z"
     fill="#9c7c58"
     id="path5" />
  <path
     d="m 167.188,73.683 c -2.146,11.048 -29.162,28.737 -55.173,42.373 17.129,-23.841 38.29,-48.149 49.612,-48.756 1.82,-0.111 3.208,0.486 4.34,1.797 1.132,1.311 1.519,2.754 1.18,4.566 z"
     fill="#9c7c58"
     id="path6" />
  <path
     d="M 169.467,149.521 C 183.36,126.067 200.923,102 211.206,100.53 c 1.632,-0.249 2.924,0.177 4.05,1.283 1.157,1.095 1.622,2.373 1.462,4.016 -1.048,10.373 -24.325,28.871 -47.251,43.692 z"
     fill="#9c7c58"
     id="path7" />
  <path
     d="m 197.05,217.072 c -9.74,-3.759 -21.415,-31.104 -29.704,-57.097 18.992,19.617 37.539,42.841 36.275,53.189 -0.201,1.624 -0.928,2.75 -2.319,3.566 -0.675,0.418 -1.386,0.642 -2.091,0.692 -0.705,0.05 -1.405,-0.074 -2.161,-0.35 z"
     fill="#9c7c58"
     id="path8" />
  <path
     d="m 274.266,124.695 c 1.001,0.669 1.444,1.507 1.538,2.713 0.489,7.023 -11.24,22.318 -30.876,40.593 9.671,-25.019 19.563,-41.574 26.253,-43.733 1.168,-0.391 2.114,-0.253 3.085,0.427 z"
     fill="#9c7c58"
     id="path9" />
  <path
     d="m 325.406,188.717 c -3.903,-0.784 -10.738,-9.528 -18.077,-22.878 12.074,9.318 19.669,17.407 19.839,21.376 0.025,0.542 -0.1,0.863 -0.49,1.212 -0.24,0.191 -0.503,0.321 -0.768,0.348 -0.164,0.025 -0.307,0.009 -0.504,-0.058 z"
     fill="#9c7c58"
     id="path10" />
  <path
     d="m 307.653,160.198 c 5.791,-14.097 11.586,-23.545 15.372,-24.785 0.517,-0.189 0.858,-0.106 1.306,0.179 0.418,0.296 0.589,0.578 0.625,1.151 0.242,3.977 -6.377,12.864 -17.303,23.455 z"
     fill="#9c7c58"
     id="path11" />
  <path
     d="m 244.365,172.893 c 21.586,15.951 34.983,29.852 35.267,36.88 0.064,1.217 -0.331,2.119 -1.221,2.891 -0.6,0.528 -1.228,0.791 -1.934,0.841 -0.337,0.02 -0.686,0.009 -1.098,-0.082 -6.879,-1.39 -18.565,-16.741 -31.014,-40.53 z"
     fill="#9c7c58"
     id="path12" />
  <path
     d="m 25.4998,20.5 c 0,0 156.5932,155.948 252.6742,143.614 28.688,-2.965 56.791,-12.367 85.38,-17.501 31.614,-6.098 58.82,1.537 80.115,26.345 C 410.871,139.451 377.224,146.495 336.708,159.657 250.756,189.219 185.127,184.027 107.792,134.274 73.9874,111.918 22.3052,59.755 -2.99979,28 l -6e-5,-4.5 L -8.99975,15 -1.99937,11.5 -7.99952,2 10.5005,9 Z"
     fill="#3b2507"
     id="path13" />
</svg>
