<?xml version="1.0" encoding="UTF-8" standalone="no"?>
<svg
   width="434.03497"
   height="278.72791"
   viewBox="0 0 434.03497 278.72791"
   fill="none"
   version="1.1"
   id="svg17"
   sodipodi:docname="branch_br.svg"
   inkscape:version="1.4 (e7c3feb100, 2024-10-09)"
   xmlns:inkscape="http://www.inkscape.org/namespaces/inkscape"
   xmlns:sodipodi="http://sodipodi.sourceforge.net/DTD/sodipodi-0.dtd"
   xmlns="http://www.w3.org/2000/svg"
   xmlns:svg="http://www.w3.org/2000/svg">
  <defs
     id="defs17" />
  <sodipodi:namedview
     id="namedview17"
     pagecolor="#ffffff"
     bordercolor="#000000"
     borderopacity="0.25"
     inkscape:showpageshadow="2"
     inkscape:pageopacity="0.0"
     inkscape:pagecheckerboard="0"
     inkscape:deskcolor="#d1d1d1"
     showgrid="false"
     inkscape:zoom="1.6393443"
     inkscape:cx="196.42"
     inkscape:cy="168.36"
     inkscape:window-width="1920"
     inkscape:window-height="1011"
     inkscape:window-x="1920"
     inkscape:window-y="32"
     inkscape:window-maximized="1"
     inkscape:current-layer="svg17" />
  <path
     fill-rule="evenodd"
     clip-rule="evenodd"
     d="m 233.86696,228.2099 c 11.172,1.344 27.903,-0.005 37.495,-4.135 19.121,-8.249 34.867,-19.778 45.266,-38.606 0.543,-0.981 0.975,-2.214 1.59,-3.665 l 0.013,-0.012 c 0.363,-0.836 0.767,-1.759 1.299,-2.753 0.305,-0.663 0.664,-1.425 1.038,-2.249 -1.441,-0.529 -2.91,-1.009 -4.379,-1.489 -2.291,-0.71 -5.052,-1.455 -7.35,-2.016 -15.77,-3.721 -31.866,-5.55 -48.052,-7.318 -4.799,-0.505 -9.611,-0.999 -14.423,-1.468 -7.294,3.624 -11.203,4.281 -20.184,11.02 -6.469,4.846 -14.26,12.159 -19.538,19.69 -2.733,3.899 -6.681,9.076 -8.9,14.204 -4.508,10.417 30.835,18.156 36.136,18.809 z"
     fill="#8da635"
     id="path1" />
  <path
     fill-rule="evenodd"
     clip-rule="evenodd"
     d="m 220.16296,150.2019 3.419,1.816 c 18.782,2.336 37.608,4.536 56.229,7.639 l 4.907,0.831 c 1.91,-7.52 -6.645,-30.302 -10.574,-38.425 -4.971,-10.258 -13.963,-21.178 -23.502,-28.67 -7.574,-5.933 -16.292,-10.563 -25.374,-13.525 -14.052,-4.589 -18.852,-5.33 -22.423,4.474 -3.898,10.679 -4.921,15.76 -4.495,25.133 0.65,14.383 9.34,34.051 21.863,40.729 z"
     fill="#8da635"
     id="path2" />
  <path
     fill-rule="evenodd"
     clip-rule="evenodd"
     d="m 117.09496,200.0699 c 5.754,2.104 14.96,3.504 20.746,3.635 17.817,0.389 33.742,-6.231 47.134,-17.652 8.638,-7.368 11.655,-13.596 18.399,-25.838 -12.305,-1.308 -24.579,-2.764 -36.824,-4.556 -6.183,-0.921 -12.363,-1.918 -18.497,-3.099 l 0.401,0.195 c -2.55,2.687 -20.352,9.327 -29.059,28.379 -1.248,2.729 -2.374,5.51 -3.633,8.226 -1.897,4.093 -4.116,8.7 1.334,10.685 l -0.013,0.012 z"
     fill="#8da635"
     id="path3" />
  <path
     fill-rule="evenodd"
     clip-rule="evenodd"
     d="m 133.31996,135.0429 c 16.368,5.013 33.056,8.519 49.914,11.321 0.132,-3.065 0.485,-6.049 0.313,-9.257 -1.284,-24.084 -14.276,-45.289 -37.661,-57.775 -8.183,-4.37 -15.764,-9.111 -19.317,1.626 -9.061,27.327 3.054,46.575 6.751,54.085 z"
     fill="#8da635"
     id="path4" />
  <path
     fill-rule="evenodd"
     clip-rule="evenodd"
     d="m 83.999958,161.3499 c 9.325,-2.695 24.874002,-9.013 31.638002,-17.479 -4.494,-1.691 -8.988,-3.643 -13.264,-5.987 -1.708,-0.945 -3.636002,-1.97 -5.303002,-2.976 -9.482,-5.553 -18.456,-12.126 -26.15,-19.987 -5.428,-0.607 -12.404,1.819 -17.061,3.316 -13.0763,4.226 -28.9043,21.95 -28.1722,29.07 0.5186,5.066 31.9132,21.657 58.2992,14.055 z"
     fill="#8da635"
     id="path5" />
  <path
     fill-rule="evenodd"
     clip-rule="evenodd"
     d="m 101.41196,120.8509 c 4.82,-8.882 7.014,-14.011 8.612,-22.568 1.401,-7.544 1.989,-14.448 1.098,-21.633 -0.918,-7.398 -2.574,-13.371 -5.595,-20.182 -2.595,-5.833 -9.035002,-21.054 -17.665002,-15.971 -2.454,1.435 -4.213,3.928 -5.956,6.1 -10.147,12.711 -14.958,25.617 -16.099,41.052 8.822,14.256 21.26,24.571 35.630002,33.203 l -0.013,0.012 z"
     fill="#8da635"
     id="path6" />
  <path
     fill-rule="evenodd"
     clip-rule="evenodd"
     d="m 35.458758,107.5059 c 13.2708,3.49 22.3332,0.044 27.9272,-1.283 -8.22,-10.691 -13.4163,-22.494 -16.4041,-35.005 -11.1336,-5.578 -22.3987,-5.224 -31.2674,-2.717 -2.2677,0.645 -12.7462999,4.867 -14.2107999,6.398 -2.7612,2.931 -1.12629995,5.153 0.2119,7.344 7.5142,12.464 17.7477999,21.04 33.7443999,25.238 z"
     fill="#8da635"
     id="path7" />
  <path
     fill-rule="evenodd"
     clip-rule="evenodd"
     d="m 44.640758,57.9149 c -1.0129,-8.542 -1.2064,-17.326 -0.7732,-26.22 0.0831,-2.283 0.0945,-3.574 0.2297,-5.645 -5.2217,-3.3839 -11.4513,-11.2114 -25.7043,-10.4896 -11.4494999,0.5739 -8.3128,6.2577 -5.6099,15.8556 3.7567,13.336 18.9213,25.661 31.8707,26.487 z"
     fill="#8da635"
     id="path8" />
  <path
     fill-rule="evenodd"
     clip-rule="evenodd"
     d="m 55.017958,61.9939 c 12.274,-6.703 20.904,-14.419 23.085,-30.563 0.454,-3.293 1.659,-10.1084 -1.398,-12.2388 -4.223,-2.939 -10.567,-0.7226 -14.757,1.4058 -2.611,1.3196 -5.077,3.0026 -7.305,4.914 -1.037,0.896 -4.2946,3.294 -4.4383,4.756 -0.0649,0.582 -0.0062,2.757 0.2205,5.059 0.2551,2.49 0.5493,5.203 0.892,7.682 l 0.2702,1.907 0.1292,0.946 0.1541,0.948 c 0.3473,2.379 1.0545,6.084 1.5393,8.454 0.232,1.135 0.838,3.558 1.062,4.606 0.202,0.713 0.393,1.412 0.571,2.124 z"
     fill="#8da635"
     id="path9" />
  <path
     d="m 207.39296,209.4709 c 19.602,-1.867 38.509,-8.209 56.933,-15.121 18.394,-7.073 36.359,-15.336 53.645,-24.72 l 2.983,6.041 c -18.078,8.534 -36.644,15.814 -55.562,21.883 -18.872,5.883 -38.276,11.17 -57.986,11.905 z"
     fill="#1a412c"
     id="path10" />
  <path
     d="m 211.94996,84.9829 c 12.947,9.792 23.371,22.508 33.14,35.382 9.701,13.01 18.562,26.684 26.462,40.969 l -5.061,2.68 c -6.921,-14.487 -14.87,-28.537 -23.717,-41.987 -8.951,-13.353 -18.507,-26.546 -30.8,-37.043 l -0.013,0.012 z"
     fill="#1a412c"
     id="path11" />
  <path
     d="m 405.61396,262.9969 c -17.7,-36.499 -44.804,-71.534 -84.077,-85.782 -9.467,-3.765 -19.648,-5.584 -29.756,-7.352 -31.017,-4.847 -62.387,-6.709 -93.741,-10.222 -30.416,-3.654 -61.794,-6.647 -90.059,-18.97 C 47.305558,111.4239 36.253858,63.3889 47.592358,0 l 1.3634,0.0804 c 0.2473,10.5364 0.186,21.0285 1.177,31.3455 1.4982,20.09 5.6402,40.512 16.4052,57.296 8.383,13.551 21.113,23.736 34.644002,31.989 11.73,7.156 24.005,12.239 37.662,15.987 55.038,15.721 114.291,15.393 170.038,29.006 26.011,6.622 48.751,22.769 65.717,42.996 13.633,16.054 33.284,50.734 41.436,69.955 l -5.438,0.067 -0.494,0.006 z"
     fill="#1a412c"
     id="path12" />
  <path
     d="m 308.05396,158.5099 c -0.243,-1.014 -0.016,-1.829 0.661,-2.631 3.871,-4.734 20.465,-7.434 43.853,-7.29 -21.102,10.055 -37.268,14.64 -42.798,12.036 -0.959,-0.447 -1.497,-1.091 -1.716,-2.115 z"
     fill="#9c7c58"
     id="path13" />
  <path
     d="m 313.92696,87.3429 c 2.006,2.832 1.111,12.453 -2.229,25.315 -2.1,-13.111 -2.066,-22.801 0.189,-25.409 0.296,-0.37 0.583,-0.485 1.033,-0.473 0.287,0.023 0.512,0.099 0.685,0.252 0.12,0.09 0.193,0.2 0.298,0.324 z"
     fill="#9c7c58"
     id="path14" />
  <path
     d="m 308.13696,116.0429 c -12.084,5.466 -21.411,7.984 -24.567,6.506 -0.412,-0.195 -0.623,-0.444 -0.716,-0.879 -0.092,-0.435 -0.022,-0.742 0.274,-1.112 2.203,-2.669 11.729,-4.349 25.009,-4.515 z"
     fill="#9c7c58"
     id="path15" />
  <path
     d="m 355.84896,145.8179 c -4.154,-23.014 -4.328,-39.823 -0.336,-44.467 0.677,-0.802 1.456,-1.144 2.504,-1.095 0.68,0.031 1.265,0.24 1.731,0.635 0.24,0.181 0.442,0.406 0.649,0.711 3.522,5.001 1.76,21.701 -4.548,44.216 z"
     fill="#9c7c58"
     id="path16" />
  <path
     d="m 400.93396,262.5769 c -1.255,-24.992 -6.218,-49.32 -18.444,-71.047 -18.712,-33.511 -48.368,-60.18 -81.755,-78.947 -36.656,-21.283 -73.257,-36.443 -71.188,-85.969 0.863,48.731 37.31,60.894 74.604,79.695 38.829,19.71 75.511,47.184 98.804,84.738 12.692,20.816 26.58,64.108 31.08,87.608 h -2.5 -4 -3 -2.5 -4.5 -7 -9.601 z"
     fill="#3b2507"
     id="path17" />
</svg>
