<svg width="127" height="138" viewBox="0 0 127 138" fill="none" xmlns="http://www.w3.org/2000/svg">
<g clip-path="url(#clip0_3705_7734)">
<path d="M116.495 21.9589C116.48 33.7229 136.132 48.9911 120.315 65.1442C106.07 79.7005 81.3261 79.5762 62.3476 80.229C61.7697 91.6591 59.6465 101.841 50.702 109.786C41.1389 118.277 27.2476 120.66 15.0393 123.227C10.2933 129.052 5.73256 134.261 -0.000112755 139.016C-0.000112764 122 -0.000484126 10.5 -0.000484124 -0.000195262C40.2742 -0.000208464 66 0.000462421 121.347 0.000292926C122.228 1.79421 122.871 3.7085 123.14 5.81951C123.967 12.2905 120.377 17.2912 116.48 21.9793L116.495 21.9589Z" fill="#3E6437"/>
<path d="M116.497 21.9547C116.482 33.7187 136.133 48.9869 120.316 65.14C106.071 79.6963 81.3278 79.572 62.3493 80.2247C61.7714 91.6548 59.6482 101.837 50.7038 109.782C41.1407 118.273 27.2494 120.656 15.0411 123.223C10.2946 129.049 5.73338 134.258 -9.73453e-05 139.013C-9.54563e-05 122 -9.40535e-05 109.782 -9.27753e-05 97.0171C9.42677 87.6867 19.3699 79.4147 25.017 75.3628C25.1251 68.6847 24.8885 61.9738 24.7851 55.2962C38.7696 53.4001 48.5198 48.9095 59.9187 40.8166C68.2845 41.9234 82.6189 44.1289 90.273 39.8569C93.0959 38.2849 92.9251 37.3167 93.6123 34.4124C91.7518 28.9244 87.0977 26.2402 82.6081 22.8672C92.2884 15.7756 100.57 8.27655 108.5 -0.102016C113 -0.102222 114 -0.101807 121.307 -0.102015C122.21 1.71803 122.87 3.66122 123.144 5.80778C123.971 12.2788 120.381 17.2793 116.484 21.9675L116.497 21.9547Z" fill="#479651"/>
</g>
<defs>
<clipPath id="clip0_3705_7734">
<rect width="127" height="138" fill="white"/>
</clipPath>
</defs>
</svg>
