<svg width="181" height="104" viewBox="0 0 181 104" fill="none" xmlns="http://www.w3.org/2000/svg">
<path d="M67.5442 14.0771C75.8161 11.5055 82.2348 -5.65797 97.0598 1.91414C110.417 8.73201 115.761 26.1509 120.385 39.3472C128.545 37.2448 136.168 36.5024 143.715 41.0457C151.783 45.9037 156.506 55.1446 160.99 63.1622C166.52 65.3774 171.5 67.5985 176.446 70.9718C178.393 75.4617 179.761 79.8801 181 84.6194C179.515 89.0558 178.241 93.3081 175.528 97.1565C164.895 103.006 151.666 103.452 139.764 103.654C116.386 104.052 92.9443 103.778 69.561 103.767C54.1515 103.755 37.941 104.77 22.6658 102.656C16.4634 101.795 6.017 99.8408 1.67355 94.769C0.258862 93.112 -0.226366 91.5679 0.0951541 89.4061C0.656353 85.6349 4.46779 83.5029 7.32055 81.555C12.7747 79.7614 18.1003 77.5521 23.4375 75.4379C24.063 70.3779 24.6417 64.2311 26.6702 59.5513C30.1777 51.4506 36.0528 48.5821 43.6991 45.3098C43.5179 36.8469 44.3714 29.3757 46.5753 21.1919C48.785 17.878 51.0064 14.6591 54.7419 12.9487C59.1087 10.9472 63.4113 12.3725 67.5618 14.0829L67.5442 14.0771Z" fill="#3E6437"/>
<path d="M67.5409 14.0771C75.8128 11.5055 82.2315 -5.65797 97.0565 1.91414C110.414 8.73201 115.757 26.1509 120.381 39.3472C128.542 37.2448 136.165 36.5024 143.712 41.0457C151.779 45.9037 156.503 55.1446 160.986 63.1622C166.517 65.3774 171.497 67.5985 176.443 70.9718C178.389 75.4617 179.757 79.8801 180.997 84.6194C179.512 89.0558 178.237 93.3081 175.525 97.1565C152.259 69.3089 145.413 81.9172 125.157 66.6542C120.44 68.0439 115.775 69.683 111.104 71.2212C106.702 61.8081 101.406 55.9404 93.2158 49.7045C92.1577 43.5815 90.5618 33.0222 85.8793 28.5799C84.1548 26.9407 83.5118 27.2733 81.3196 27.4277C77.8706 29.9399 77.0053 33.8002 75.6199 37.6961C66.3192 30.8308 57.0535 25.8005 46.5661 21.1919C48.7759 17.878 50.9973 14.6591 54.7328 12.9487C59.0996 10.9472 63.4021 12.3725 67.5526 14.0829L67.5409 14.0771Z" fill="#479651"/>
</svg>
