<svg width="166" height="265" viewBox="0 0 166 265" fill="none" xmlns="http://www.w3.org/2000/svg">
<path d="M113.564 186.799L106.159 206.418C105.756 207.485 106.849 208.504 107.885 208.028L121.635 201.701C122.389 201.354 123.296 201.804 123.423 202.623C125.421 215.457 116.401 226.903 107.971 235.567C107.908 235.631 107.839 235.688 107.765 235.739C98.4401 242.142 90.2773 245.646 79.4892 248.876C79.2402 248.951 78.9681 248.95 78.7206 248.869C73.3359 247.131 45.8099 269.504 30.3103 264.092C23.4544 261.698 20.8696 231.491 20.3308 229.433C15.8268 212.226 23.0416 198.433 15.4881 181.418C16.0554 179.533 16.7776 180.474 17.6619 181.49C24.1777 188.978 36.6274 207.97 37.8098 184.341C37.8142 184.259 37.8272 184.17 37.8474 184.092C41.2862 170.794 34.6851 164.111 46.3489 149.924C44.6642 164.222 57.2586 174.044 55.422 188.204C55.2541 189.502 56.9518 190.152 57.7174 189.09L76.4845 163.04C77.1069 162.176 78.4601 162.407 78.7597 163.429C80.5544 169.571 80.0594 176.368 79.4153 182.739C79.2981 183.901 80.6846 184.587 81.5501 183.804C84.1625 181.439 85.8934 178.307 87.7084 175.277C88.3712 174.169 90.0805 174.653 90.0646 175.942C90.0081 180.368 89.5406 187.11 89.3496 187.948C88.2829 192.602 85.9311 196.577 84.2652 200.855C83.8007 202.049 85.1698 203.124 86.2104 202.379C99.7904 192.659 107.868 177.482 115.077 162.648C115.185 171.609 114.8 177.614 113.64 186.509C113.627 186.608 113.602 186.709 113.567 186.803L113.564 186.799Z" fill="#FFF1B9"/>
<path d="M115.076 162.378C115.076 162.537 115.032 162.711 114.974 162.856C114.974 162.87 114.96 162.87 114.96 162.885C114.96 162.899 114.945 162.899 114.945 162.914C114.092 164.679 113.223 166.445 112.326 168.211C111.848 169.137 111.385 170.063 110.893 170.99C110.415 171.901 109.938 172.828 109.431 173.74C108.852 174.811 108.259 175.867 107.666 176.924C107.087 177.922 106.493 178.921 105.9 179.919C105.784 180.108 105.668 180.296 105.553 180.484C105.162 181.121 104.756 181.772 104.351 182.394C104.062 182.857 103.772 183.321 103.454 183.769C103.034 184.421 102.6 185.057 102.166 185.694C102.064 185.839 101.963 185.984 101.862 186.128C101.833 186.157 101.818 186.201 101.79 186.23C101.587 186.519 101.384 186.794 101.182 187.069C100.603 187.865 100.009 188.647 99.4159 189.428C98.9094 190.065 98.4028 190.702 97.8963 191.324C97.3174 192.004 96.7384 192.685 96.1451 193.35C95.5661 194.002 94.9872 194.639 94.3793 195.261C94.3649 195.275 94.3504 195.29 94.3214 195.319C93.7136 195.956 93.0768 196.592 92.4255 197.2C91.8176 197.794 91.1808 198.358 90.544 198.923C90.4861 198.98 90.4137 199.038 90.3559 199.082C89.7046 199.646 89.0388 200.196 88.373 200.732C87.6638 201.296 86.9402 201.846 86.2021 202.367C85.16 203.12 83.7996 202.049 84.2627 200.847C85.9271 196.578 88.2862 192.598 89.3427 187.938C89.5453 187.113 90.0085 180.368 90.0664 175.939C90.0808 174.651 88.373 174.159 87.7073 175.274C85.8837 178.298 84.1614 181.439 81.5418 183.798C80.6879 184.58 79.2984 183.9 79.4142 182.742C80.051 176.359 80.5576 169.571 78.763 163.42C78.459 162.407 77.0985 162.176 76.4762 163.044L57.7192 189.081C56.9521 190.152 55.2443 189.501 55.418 188.198C55.5483 187.228 55.6062 186.273 55.6062 185.347C55.6062 184.971 55.5917 184.609 55.5772 184.247C55.5627 184.001 55.5482 183.755 55.5338 183.509C55.5048 183.234 55.4759 182.959 55.4469 182.698C55.418 182.409 55.3746 182.119 55.3312 181.83C55.2009 180.962 55.0272 180.122 54.8101 179.283C54.7522 179.037 54.6944 178.776 54.622 178.53C54.3036 177.401 53.9273 176.272 53.5076 175.172C53.4207 174.926 53.3194 174.666 53.2326 174.42C52.8997 173.595 52.5524 172.77 52.205 171.959C51.93 171.308 51.6405 170.642 51.3366 169.991C51.1919 169.658 51.0472 169.34 50.888 169.007C50.5985 168.356 50.309 167.704 50.0196 167.053C49.7301 166.402 49.4551 165.75 49.1801 165.085L49.1657 165.07C48.7604 164.086 48.3697 163.087 48.0078 162.089C47.6171 160.96 47.2552 159.802 46.9658 158.644C46.8789 158.253 46.7921 157.863 46.7053 157.472C46.6329 157.067 46.5605 156.676 46.4881 156.271C46.3724 155.475 46.2855 154.664 46.2276 153.839C46.1698 152.783 46.1842 151.712 46.2855 150.612V150.568C46.2855 150.496 46.3 150.438 46.3 150.366C46.3 150.356 46.3048 150.346 46.3145 150.337C46.329 150.091 46.4303 149.845 46.5895 149.642C46.6474 149.555 46.7197 149.468 46.821 149.381C47.1394 149.005 47.4723 148.629 47.8342 148.296C48.2105 147.891 48.6157 147.529 49.0209 147.167C49.1801 147.022 49.3394 146.878 49.4986 146.762C49.817 146.487 50.1353 146.212 50.4682 145.966C51.3945 145.228 52.3787 144.562 53.3773 143.911C54.2891 143.332 55.2299 142.782 56.1851 142.275C56.7785 141.942 57.3719 141.624 57.9653 141.32C58.9494 140.828 60.0494 141.682 59.8033 142.753C59.152 145.618 57.0679 150.206 57.0535 153.058C57.039 154.158 58.3705 154.722 59.181 153.984C60.0928 153.159 60.9901 152.334 61.8585 151.509C62.7124 150.698 63.5518 149.888 64.3623 149.063C67.6477 145.763 70.6291 142.362 73.4514 138.599C73.7987 138.121 74.1605 137.644 74.5079 137.166C75.2026 136.211 75.8828 135.212 76.563 134.199C76.8959 133.693 77.2433 133.172 77.5762 132.651C77.6341 132.564 77.6775 132.491 77.7354 132.405C83.8864 122.766 88.4743 112.533 92.5847 101.924C93.0767 100.651 94.9438 100.926 95.0306 102.301L98.9528 162.48C99.0251 163.608 100.444 164.115 101.182 163.247C101.775 162.552 102.311 161.828 102.817 161.061C103.135 160.584 103.439 160.077 103.729 159.57C103.874 159.31 104.018 159.049 104.163 158.774C104.467 158.224 104.756 157.646 105.031 157.067C105.263 156.546 105.495 156.025 105.726 155.489C105.842 155.214 105.958 154.925 106.074 154.635C106.421 153.781 106.739 152.913 107.043 152.044C107.145 151.755 107.246 151.451 107.347 151.162C108.462 147.934 109.417 144.634 110.589 141.508C110.806 140.929 111.023 140.365 111.255 139.815C111.443 139.337 111.646 138.86 111.877 138.382C112.138 137.76 112.427 137.166 112.731 136.573C112.789 136.443 112.861 136.327 112.919 136.211C113.918 144.128 114.714 151.176 114.989 158.948C115.018 159.874 115.047 160.801 115.061 161.756C115.061 161.958 115.076 162.161 115.076 162.378Z" fill="#F9D441"/>
<path d="M142.056 195.818C134.638 207.977 127.99 218.193 118.503 227.112C117.381 228.165 115.693 226.702 116.583 225.446C121.384 218.674 124.717 210.94 123.422 202.623C123.295 201.804 122.386 201.356 121.633 201.701L107.884 208.028C106.847 208.504 105.755 207.485 106.157 206.418L113.616 186.658C112.926 191.925 113.598 196.249 111.411 201.179C110.911 202.305 112.211 203.386 113.256 202.735C116.524 200.7 120.76 197.811 121.472 197.351C124.599 197.526 124.374 200.164 124.62 200.248C126.984 201.053 136.301 192.829 137.018 192.941C137.62 193.035 139.525 197.569 142.054 195.818H142.056Z" fill="#F9D441"/>
<path d="M142.055 195.818C139.524 197.569 137.619 193.033 137.019 192.939C136.302 192.828 126.984 201.05 124.621 200.247C124.376 200.163 124.599 197.524 121.473 197.349C133.496 189.569 144.287 180.639 152.548 169.046C153.356 167.913 155.143 168.687 154.844 170.046C152.748 179.588 147.102 187.545 142.055 195.817V195.818Z" fill="#FDAD21"/>
<path d="M15.1884 170.648C21.5956 176.469 29.6642 180.915 34.1147 188.63C34.6473 189.554 35.9745 189.521 36.4101 188.549C37.099 187.014 37.6403 184.871 37.8125 184.215C36.6692 208.038 24.1862 188.991 17.6589 181.49C17.0814 180.826 16.572 180.193 16.1306 180.361C15.5502 180.581 14.8917 180.251 14.566 179.723C11.9971 175.547 6.91846 169.951 9.27756 165.606C10.6337 167.534 13.4125 169.036 15.1869 170.648H15.1884Z" fill="#F9D441"/>
<path d="M159.362 188.835C158.74 190.63 157.596 194.697 157.176 195.666C152.661 205.957 140.619 222.47 132.022 230.879C130.836 232.037 128.723 234.092 127.521 235.076C126.19 236.191 123.469 237.87 121.891 238.926C120.849 239.606 120.473 240.012 118.707 241.025C110.183 245.945 100.515 248.666 91.0203 250.953C90.673 251.04 90.0651 250.794 89.5585 250.939C89.5007 250.953 89.4573 250.968 89.4138 250.982C89.3415 251.011 89.2836 251.04 89.2257 251.098C89.1823 251.112 89.1533 251.141 89.1244 251.185C89.081 251.228 89.052 251.257 89.023 251.315C89.0134 251.315 89.0086 251.32 89.0086 251.329C88.6613 251.72 88.1547 251.908 87.6337 251.735C86.0706 251.228 84.5075 250.736 82.9444 250.229C81.7576 249.853 81.7721 248.174 82.9444 247.798C83.5233 247.61 84.0878 247.422 84.6377 247.234C85.2022 247.045 85.7521 246.857 86.3021 246.655C86.8521 246.467 87.4021 246.264 87.9376 246.061C88.4731 245.859 89.0086 245.656 89.5296 245.453C90.1954 245.193 90.8466 244.932 91.4979 244.657C92.8005 244.122 94.0741 243.557 95.3477 242.95C95.9701 242.646 96.6069 242.342 97.2293 242.023C97.7358 241.777 98.2423 241.517 98.7344 241.242C99.241 240.967 99.7475 240.706 100.24 240.417C100.674 240.185 101.094 239.939 101.513 239.708C101.644 239.635 101.759 239.563 101.89 239.476C102.338 239.216 102.801 238.941 103.264 238.651C103.843 238.304 104.437 237.942 105.03 237.566C105.464 237.276 105.899 236.987 106.333 236.697C106.839 236.364 107.36 236.017 107.881 235.655C111.818 232.949 115.306 230.127 118.476 227.145L119.865 225.799C120.328 225.35 120.762 224.887 121.211 224.439C121.718 223.932 122.21 223.426 122.687 222.904L122.818 222.774C122.904 222.673 122.991 222.572 123.093 222.47C123.425 222.108 123.744 221.747 124.077 221.385C124.656 220.734 125.22 220.082 125.77 219.416C126.363 218.722 126.957 218.013 127.521 217.289C127.869 216.869 128.201 216.45 128.52 216.03C128.578 215.972 128.621 215.914 128.665 215.856C128.983 215.436 129.301 215.017 129.62 214.597C130.821 213.019 131.993 211.384 133.137 209.72C133.687 208.938 134.222 208.156 134.743 207.36C135.279 206.564 135.814 205.754 136.335 204.943C136.871 204.119 137.406 203.294 137.942 202.454C139.288 200.312 140.663 198.098 142.052 195.811C147.103 187.547 152.748 179.587 154.846 170.049C155.136 168.689 153.356 167.907 152.545 169.05C144.281 180.643 133.499 189.573 121.472 197.345C120.762 197.808 116.522 200.703 113.265 202.729C112.209 203.38 110.906 202.295 111.413 201.18C113.598 196.245 112.932 191.918 113.613 186.664C113.613 186.635 113.627 186.606 113.627 186.577C113.815 185.087 113.989 183.683 114.148 182.337C114.148 182.308 114.163 182.264 114.163 182.235C114.249 181.352 114.336 180.499 114.423 179.645C114.467 179.182 114.51 178.733 114.553 178.284C114.626 177.43 114.698 176.576 114.756 175.737C114.814 174.926 114.857 174.116 114.901 173.306C114.93 172.857 114.944 172.408 114.959 171.96C114.973 171.54 115.002 171.12 115.002 170.686C115.031 170.223 115.046 169.745 115.046 169.268C115.06 168.674 115.074 168.066 115.074 167.444C115.089 165.924 115.089 164.332 115.074 162.639V162.378C115.074 162.161 115.06 161.959 115.06 161.756C115.046 160.801 115.017 159.875 114.988 158.948C114.713 151.176 113.917 144.128 112.918 136.211C112.904 136.124 112.904 136.038 112.875 135.951C112.875 135.893 112.875 135.849 112.86 135.791C112.788 135.14 112.701 134.503 112.6 133.867C112.44 132.709 112.281 131.58 112.108 130.465C111.514 126.63 110.834 122.983 110.139 119.466C110.038 118.901 109.922 118.337 109.806 117.787C109.459 116.036 109.112 114.328 108.75 112.649C108.591 111.824 108.431 111.014 108.258 110.203C108.084 109.349 107.91 108.495 107.737 107.656C107.621 107.048 107.505 106.44 107.389 105.847C107.245 105.167 107.114 104.486 106.999 103.821C106.26 99.9563 105.653 96.2078 105.262 92.4738C105.059 90.6502 104.914 88.8121 104.842 86.9885C104.321 74.2378 106.999 61.3279 117.187 44.9879C117.651 44.2353 123.411 37.433 126.552 32.8884C127.319 31.774 126.045 30.4136 124.873 31.0793C121.761 32.874 118.374 34.4226 115.581 36.3041C114.423 37.0856 113.323 37.8672 112.252 38.6632C110.096 40.2697 108.113 41.8907 106.275 43.5406C105.349 44.3511 104.48 45.176 103.641 46.001C102.787 46.8549 101.962 47.7088 101.18 48.5627C100.601 49.185 100.037 49.8219 99.5015 50.4587C99.4919 50.4587 99.487 50.4635 99.487 50.4731C98.9371 51.11 98.416 51.7612 97.9095 52.398C97.895 52.4125 97.8805 52.427 97.8805 52.4415C96.8529 53.7296 95.9122 55.0321 95.0293 56.3492C94.4215 57.261 93.8426 58.1728 93.2926 59.0991C92.4966 60.4306 91.744 61.7766 91.0637 63.1515C90.8177 63.6291 90.5862 64.1212 90.3546 64.6133C90.123 65.0764 89.9059 65.554 89.7033 66.0171C88.6468 68.3762 87.7494 70.7643 86.9534 73.1813C85.043 79.0284 83.7983 85.107 82.8431 91.4317C82.6839 92.4304 82.5391 93.4435 82.4089 94.4566C82.1628 96.2368 81.9457 98.0169 81.7286 99.8261C81.555 101.288 81.3958 102.75 81.2366 104.24C81.1063 105.34 80.9905 106.455 80.8747 107.584C80.7011 109.176 80.5274 110.768 80.3537 112.389C80.1801 114.01 80.0064 115.66 79.8038 117.309C79.2538 122.129 78.617 127.064 77.7775 132.13C77.7486 132.303 77.6762 132.492 77.5749 132.651C77.242 133.172 76.8947 133.693 76.5618 134.199C75.8816 135.213 75.2013 136.211 74.5066 137.166C74.1593 137.644 73.7975 138.122 73.4501 138.599C70.6279 142.362 67.6464 145.763 64.361 149.063C63.5506 149.888 62.7111 150.699 61.8572 151.509C60.9889 152.334 60.0915 153.159 59.1797 153.984C58.3692 154.722 57.0377 154.158 57.0522 153.058C57.0667 150.207 59.1508 145.619 59.8021 142.753C60.0481 141.682 58.9482 140.828 57.964 141.32C57.3706 141.624 56.7772 141.943 56.1838 142.275C55.2286 142.782 54.2878 143.332 53.376 143.911C52.3774 144.562 51.3933 145.228 50.467 145.966C50.1341 146.212 49.8157 146.473 49.4973 146.762C49.3381 146.878 49.1789 147.023 49.0197 147.167C48.6144 147.529 48.2092 147.891 47.8329 148.296C47.4711 148.629 47.1382 149.005 46.8198 149.382C46.7185 149.468 46.6461 149.555 46.5882 149.642C46.5014 149.729 46.4145 149.816 46.3422 149.917C35.1111 163.594 40.8279 170.295 38.1794 182.67C38.0781 183.133 37.9768 183.61 37.8465 184.088C37.8465 184.131 37.832 184.175 37.8176 184.218C37.6439 184.869 37.0939 187.011 36.4137 188.546C35.9795 189.515 34.648 189.559 34.1125 188.632C33.9099 188.3 33.7217 187.967 33.5046 187.634C33.3454 187.402 33.1862 187.156 33.0415 186.925C32.8389 186.635 32.6362 186.36 32.4336 186.085C32.2455 185.825 32.0429 185.579 31.8402 185.333C31.4205 184.783 30.9718 184.262 30.5087 183.755C30.2916 183.494 30.06 183.248 29.8285 183.017C29.5969 182.771 29.3509 182.525 29.1193 182.293C28.8588 182.033 28.5838 181.772 28.3088 181.526C27.8023 181.034 27.2957 180.571 26.7602 180.108C26.4997 179.862 26.2102 179.63 25.9352 179.399C25.8918 179.355 25.8629 179.326 25.8195 179.297C22.838 176.793 19.654 174.492 16.7159 171.988C16.3252 171.656 15.9489 171.323 15.5726 170.99C15.5436 170.961 15.5002 170.932 15.4712 170.903L15.4568 170.889C15.2831 170.715 15.1528 170.527 15.0805 170.281C13.9082 166.416 13.4306 163.681 14.5739 159.773C15.5147 156.531 16.8173 153.391 18.4382 150.409C21.0289 145.633 24.4301 141.277 28.4825 137.644C31.4929 134.938 35.1256 133.707 38.4833 131.464C43.9107 127.817 49.642 123.432 53.9694 118.482C54.9825 117.309 55.4023 116.484 56.1983 115.428C58.5863 112.258 60.9888 109.262 62.523 105.543C70.8305 85.382 65.7215 66.7263 79.0222 46.5075C95.8109 21.0061 127.023 26.2251 143.457 0C144.259 3.05959 147.422 21.86 140.315 33.5976C135.597 41.3841 126.957 48.3601 122.789 56.8413C109.242 84.3544 124.236 111.694 126.855 139.656C126.957 140.698 128.187 141.204 128.983 140.51C140.793 130.075 154.474 93.0194 154.875 93.2742C155.34 93.5694 155.15 147.413 141.589 168.037C141.459 169.296 141.893 168.341 142.153 168.225C150.475 164.419 160.693 143.26 161.272 134.199C161.764 134.634 162.083 135.01 162.228 135.14C167.64 152.681 165.484 171.641 159.362 188.835Z" fill="#FFA045"/>
<path d="M91.0246 250.95L91.0435 252.84C90.2909 252.596 89.5209 252.353 88.7683 252.108C88.9955 250.283 90.4139 251.098 91.0246 250.952V250.95Z" fill="white"/>
<path d="M8.93381 165.049C9.1292 165.411 9.14801 165.822 9.00183 166.207C7.13192 171.093 13.6752 177.342 15.4858 181.418C22.8207 197.942 17.0741 213.662 20.8125 230.186C21.3803 232.69 21.483 232.695 20.5017 232.379C18.5078 231.74 4.04897 207.821 2.96807 204.695C-2.56061 188.714 0.494626 176.378 5.13756 161.086C5.50518 159.876 7.21733 159.886 7.58205 161.098C7.99308 162.461 8.31005 163.893 8.93673 165.049H8.93381Z" fill="#F9D441"/>
<path d="M126.169 33.4386C123.028 37.9831 117.651 44.2369 117.188 44.9895C106.999 61.3295 104.322 74.2394 104.843 86.9901C104.915 88.8137 105.06 90.6518 105.262 92.4754C105.653 96.2094 106.261 99.9579 106.999 103.822C107.115 104.488 107.245 105.168 107.39 105.848C107.506 106.442 107.621 107.05 107.737 107.658C107.911 108.497 108.085 109.351 108.258 110.205C108.432 111.015 108.591 111.826 108.75 112.651C109.112 114.33 109.46 116.037 109.807 117.789C109.923 118.339 110.038 118.903 110.14 119.468C110.834 122.984 111.515 126.632 112.108 130.467C112.282 131.581 112.441 132.71 112.6 133.868C112.702 134.505 112.788 135.142 112.861 135.793C112.875 135.851 112.875 135.894 112.875 135.952C112.875 136.169 112.817 136.372 112.73 136.575C112.427 137.168 112.137 137.761 111.877 138.384C111.645 138.861 111.442 139.339 111.254 139.817C111.008 140.367 110.791 140.931 110.588 141.51C109.416 144.636 108.461 147.936 107.346 151.163C107.245 151.453 107.144 151.757 107.043 152.046C106.739 152.915 106.42 153.783 106.073 154.637C105.957 154.926 105.841 155.216 105.726 155.491C105.494 156.026 105.262 156.547 105.031 157.068C104.756 157.647 104.466 158.226 104.162 158.776C104.018 159.051 103.873 159.312 103.728 159.572C103.439 160.079 103.135 160.585 102.816 161.063C102.31 161.83 101.774 162.554 101.181 163.248C100.443 164.117 99.0245 163.61 98.9522 162.481L95.03 102.303C94.9431 100.928 93.0761 100.653 92.584 101.926C88.4737 112.535 83.8858 122.767 77.7347 132.406C77.7492 132.32 77.7637 132.218 77.7782 132.131C78.6176 127.066 79.2544 122.131 79.8044 117.311C80.007 115.661 80.1807 114.011 80.3544 112.39C80.528 110.769 80.7017 109.177 80.8754 107.585C80.9911 106.456 81.1069 105.342 81.2372 104.242C81.3964 102.751 81.5556 101.289 81.7293 99.8277C81.9464 98.0186 82.1635 96.2384 82.4095 94.4582C82.5397 93.4451 82.6845 92.432 82.8437 91.4333C83.7989 85.1086 85.0436 79.03 86.954 73.1829C87.7501 70.7659 88.6474 68.3778 89.7039 66.0187C89.9065 65.5556 90.1236 65.078 90.3552 64.6149C90.5868 64.1228 90.8183 63.6307 91.0644 63.1531C91.7446 61.7782 92.4972 60.4322 93.2932 59.1007C93.8432 58.1744 94.4221 57.2626 95.03 56.3508C95.9273 55.0337 96.868 53.7312 97.8811 52.4431C97.8811 52.4286 97.8956 52.4141 97.9101 52.3997C98.4167 51.7484 98.9377 51.1116 99.4877 50.4747C99.4877 50.4651 99.4925 50.4603 99.5021 50.4603C100.038 49.8235 100.602 49.1866 101.181 48.5643C101.963 47.7104 102.787 46.8565 103.641 46.0026C104.481 45.1776 105.349 44.3527 106.276 43.5422C108.114 41.8923 110.096 40.2713 112.253 38.6648C113.324 37.8688 114.424 37.0872 115.582 36.3057C118.375 34.4242 123.388 31.3125 128.466 29.2573C128.13 30.1098 126.934 32.3242 126.167 33.4386H126.169Z" fill="white"/>
</svg>
