<svg width="125" height="153" viewBox="0 0 125 153" fill="none" xmlns="http://www.w3.org/2000/svg">
<path d="M101.311 78.0939C101.839 71.1071 101.529 63.9789 100.337 56.6985C99.2918 50.326 97.626 42.578 94.3325 34.7756C91.1261 27.1744 86.5751 20.1441 80.6141 14.4078C77.2226 11.1455 73.4229 8.329 69.34 5.99644C65.4314 3.75631 58.9968 -0.153052 54.473 0.00462759C54.4512 2.9081 56.9499 6.55647 57.7121 9.47082C58.6484 13.0648 59.1383 16.773 59.2363 20.4812C59.4323 27.9791 58.0387 35.4988 55.3821 42.5019C50.2541 56.0134 40.8472 67.524 30.2862 77.4034C23.9987 83.2864 17.2375 88.7019 11.5487 95.1667C5.85993 101.632 1.22182 109.38 0.203833 117.927C-0.792381 126.273 1.90229 134.989 7.42774 141.323C16.5298 151.752 28.8327 151.703 41.5875 151.806C47.1293 151.85 52.6766 151.828 58.2238 151.659C66.9448 151.393 73.4065 148.576 79.6832 143.368C87.4352 136.935 90.9083 123.723 101.192 117.856C94.4903 118.139 91.0934 119.651 87.3644 121.352C88.5729 118.884 89.4766 116.954 90.4619 115.056C96.6297 103.165 100.359 90.8659 101.311 78.0939ZM84.6044 35.5912C79.3729 25.0049 70.9949 14.5709 60.8695 4.71869C71.3705 9.72093 82.6065 22.4223 89.1609 35.2378C91.1479 39.1145 92.6993 43.0021 93.6792 46.6885C94.1202 48.3578 94.4468 50.0651 94.6918 51.1579C94.8442 52.8272 94.3706 53.6917 93.4016 53.9146C92.5142 54.1212 91.9372 53.3111 91.5888 52.5499C90.5381 50.2227 89.2588 47.9609 88.5403 45.5304C87.5658 42.2137 86.2376 38.8916 84.6044 35.5912Z" fill="#FF742E"/>
<path d="M89.1609 35.2378C87.6421 35.3575 86.1232 35.4716 84.6044 35.5913C79.3729 25.005 70.9949 14.571 60.8695 4.71875C71.3706 9.72099 82.6065 22.4223 89.1609 35.2378Z" fill="white"/>
<path d="M124.273 51.5879C121.105 62.0001 115.204 70.6507 105.372 75.8107C103.984 76.5392 102.629 77.3005 101.311 78.0943C93.9457 82.5148 87.6037 88.0063 82.5627 95.1508C78.3928 101.072 76.1771 107.727 74.6474 114.714C73.5587 119.678 72.3991 124.675 70.4775 129.394C68.2183 134.93 66.3293 136.033 60.3302 136.577C51.2554 137.393 41.805 134.424 35.0438 128.269C26.263 120.271 22.4251 107.254 25.4627 95.7816C26.4742 91.9586 28.71 88.5832 30.1401 84.9251C31.6371 81.0956 33.3007 77.3304 35.1151 73.6407C38.6623 66.4282 42.7974 59.5039 47.4682 52.9608C51.3959 47.4583 54.8652 43.3945 61.1343 40.5416C66.6205 38.0443 72.5831 36.828 78.5452 36.1522C80.5594 35.9238 82.579 35.7553 84.6041 35.5921C86.1229 35.4725 87.6418 35.3583 89.1606 35.2387C90.8863 35.1082 92.6119 34.9614 94.3322 34.7766C96.1559 34.5863 97.9686 34.3524 99.7814 34.0534C107.664 32.7485 120.501 21.0693 120.501 21.0693C120.501 21.0693 127.164 42.0836 124.273 51.5879Z" fill="#FFA045"/>
<path d="M102.995 69.7202C117.182 50.3963 120.285 32.9863 120.285 32.9863C120.285 32.9863 126.833 53.9468 102.995 69.7202Z" fill="white"/>
<path d="M9.58806 144.971C9.62943 145.658 9.77533 146.383 10.0573 147.157C13.4297 156.42 27.1976 151.877 34.4569 151.946C37.4412 151.974 40.1637 150.329 42.8224 148.958C46.2373 147.196 49.2058 144.808 52.1079 142.327C55.0372 139.822 58.4771 138.599 62.2927 138.406C67.6695 138.134 72.705 139.473 77.5103 141.778C81.9007 143.884 86.3134 145.107 93.043 150.318C93.8542 145.938 93.674 142.634 92.9766 140.097C90.7136 131.866 84.3166 127.969 76.7726 125.505C73.2995 124.37 69.6396 124.171 65.3793 124.066C72.3414 115.037 75.3382 104.997 77.9828 94.7942C79.3998 89.3265 80.2534 83.7077 82.3367 78.4157C83.9377 74.3492 85.8659 70.4953 89.5753 67.899C90.8105 67.0345 92.1181 66.2314 91.5117 64.4904C90.921 62.7946 89.375 62.7663 87.8818 62.875C79.9066 63.4557 72.8945 66.2765 66.9477 71.704C60.4843 77.6028 56.286 84.9827 52.729 92.8286C50.0959 98.6367 47.7017 104.584 43.934 109.8C42.4158 111.901 40.9323 114.097 38.3574 115.543C38.3574 114.2 38.4304 113.166 38.3438 112.146C38.0618 108.819 37.2665 105.66 35.0754 103.007C34.2778 102.041 33.2495 101.542 32.0666 102.019C30.7122 102.565 30.8902 103.83 31.0954 104.952C31.2979 106.061 31.6779 107.136 31.9158 108.24C32.8102 112.383 31.3257 115.779 28.5107 119.247C28.0861 114.786 27.9652 110.729 26.0338 107.086C24.2945 103.804 21.5149 103.629 19.6885 106.83C17.8768 110.005 15.7172 112.857 13.0432 115.306C10.1488 117.958 9.88365 121.073 11.0867 124.546C11.8271 126.683 12.672 128.791 13.2681 130.968C14.856 136.767 9.27776 139.815 9.58806 144.97V144.971Z" fill="#D12E2A"/>
</svg>
