<?xml version="1.0" encoding="UTF-8" standalone="no"?>
<svg
   width="321.29251"
   height="160.759"
   viewBox="0 0 321.29251 160.759"
   fill="none"
   version="1.1"
   id="svg7"
   sodipodi:docname="leaf_top.svg"
   inkscape:version="1.4 (e7c3feb100, 2024-10-09)"
   xmlns:inkscape="http://www.inkscape.org/namespaces/inkscape"
   xmlns:sodipodi="http://sodipodi.sourceforge.net/DTD/sodipodi-0.dtd"
   xmlns="http://www.w3.org/2000/svg"
   xmlns:svg="http://www.w3.org/2000/svg">
  <defs
     id="defs7" />
  <sodipodi:namedview
     id="namedview7"
     pagecolor="#ffffff"
     bordercolor="#000000"
     borderopacity="0.25"
     inkscape:showpageshadow="2"
     inkscape:pageopacity="0.0"
     inkscape:pagecheckerboard="0"
     inkscape:deskcolor="#d1d1d1"
     inkscape:zoom="2.0997375"
     inkscape:cx="163.83"
     inkscape:cy="70.485"
     inkscape:window-width="1920"
     inkscape:window-height="1011"
     inkscape:window-x="1920"
     inkscape:window-y="32"
     inkscape:window-maximized="1"
     inkscape:current-layer="svg7" />
  <path
     d="m 230.6785,0.722 c 0.023,-0.688 89.728,-0.177 90.614,0 -1.151,0.484 -38.309,17.07 -63.334,20.539 C 232.7335,24.775 161.8065,0.389 160.6935,0 Z"
     fill="#8da635"
     id="path1" />
  <path
     d="m 226.7485,26.04 c 26.792,17.739 70.812,55.693 71.496,56.283 -1.221,-0.167 -40.374,-5.566 -63.79,-15.061 -23.595,-9.577 -72.845,-66.158 -73.59,-67.04 l -0.011,-0.012 c 0,0 38.917,7.952 65.918,25.832 z"
     fill="#9c917d"
     id="path2" />
  <path
     d="m 205.0325,55.788 c 14.338,28.759 33.474,83.649 33.772,84.488 l -0.01,-0.012 c -0.973,-0.748 -32.183,-25.006 -47.702,-44.94 -15.648,-20.082 -30.006,-93.707 -30.213,-94.862 0,0 29.727,26.343 44.176,55.328 l -0.011,-0.012 z"
     fill="#8da635"
     id="path3" />
  <path
     d="m 171.3405,70.694 c -1.966,32.077 -12.826,89.179 -13.003,90.065 -0.474,-1.139 -15.369,-37.748 -18.838,-62.773 -3.513,-25.225 20.872,-96.152 21.261,-97.265 0,0 12.573,37.679 10.589,70.008 l -0.01,-0.012 z"
     fill="#9c917d"
     id="path4" />
  <path
     d="m 160.5445,0.845 c 0,0 -7.952,38.917 -25.832,65.917 -17.739,26.792 -55.693,70.812 -56.283,71.496 0.166,-1.221 5.566,-40.374 15.061,-63.79 9.577,-23.595 66.158,-72.845 67.04,-73.59 z"
     fill="#8da635"
     id="path5" />
  <path
     d="M 65.4122,31.093 C 85.4935,15.445 159.1185,1.088 160.2735,0.88 c 0,0 -26.343,29.728 -55.328,44.177 C 76.1875,59.395 21.2971,78.53 20.4582,78.829 21.2183,77.845 45.476,46.636 65.4106,31.116 l -0.0107,-0.012 z"
     fill="#8da635"
     id="path6" />
  <path
     d="m 2.2921,0.722 c 1.1392,-0.474 59.5,0 59.5,0 0,0 97.1434,-0.34 98.2564,0.049 0,0 -37.679,12.574 -70.008,10.59 C 57.9638,9.394 0.8863,0.948 0,0.771 L 0.7921,0.722 Z"
     fill="#8da635"
     id="path7" />
</svg>
