<?xml version="1.0" encoding="UTF-8" standalone="no"?>
<svg
   width="321.2926"
   height="160.7589"
   viewBox="0 0 321.2926 160.7589"
   fill="none"
   version="1.1"
   id="svg7"
   sodipodi:docname="leaf_bottom.svg"
   inkscape:version="1.4 (e7c3feb100, 2024-10-09)"
   xmlns:inkscape="http://www.inkscape.org/namespaces/inkscape"
   xmlns:sodipodi="http://sodipodi.sourceforge.net/DTD/sodipodi-0.dtd"
   xmlns="http://www.w3.org/2000/svg"
   xmlns:svg="http://www.w3.org/2000/svg">
  <defs
     id="defs7" />
  <sodipodi:namedview
     id="namedview7"
     pagecolor="#ffffff"
     bordercolor="#000000"
     borderopacity="0.25"
     inkscape:showpageshadow="2"
     inkscape:pageopacity="0.0"
     inkscape:pagecheckerboard="0"
     inkscape:deskcolor="#d1d1d1"
     inkscape:zoom="2.0942408"
     inkscape:cx="163.7825"
     inkscape:cy="128.925"
     inkscape:window-width="1920"
     inkscape:window-height="1011"
     inkscape:window-x="1920"
     inkscape:window-y="32"
     inkscape:window-maximized="1"
     inkscape:current-layer="svg7" />
  <path
     d="m 230.6786,160.0369 c 0.023,0.688 89.728,0.178 90.614,0 -1.151,-0.484 -38.309,-17.07 -63.335,-20.539 -25.224,-3.513 -96.151,20.872 -97.264,21.261 z"
     fill="#8da635"
     id="path1" />
  <path
     d="m 226.7486,134.7189 c 26.792,-17.739 70.812,-55.693 71.496,-56.283 -1.221,0.166 -40.374,5.566 -63.79,15.061 -23.595,9.577 -72.845,66.158 -73.59,67.04 l -0.011,0.012 c 0,0 38.917,-7.952 65.918,-25.832 z"
     fill="#9c917d"
     id="path2" />
  <path
     d="m 205.0326,104.9699 c 14.338,-28.758 33.474,-83.6481 33.772,-84.487 l -0.01,0.0123 c -0.973,0.7478 -32.183,25.0057 -47.703,44.9397 -15.647,20.082 -30.005,93.707 -30.212,94.862 0,0 29.727,-26.343 44.176,-55.328 l -0.011,0.012 z"
     fill="#8da635"
     id="path3" />
  <path
     d="M 171.3406,90.0649 C 169.3746,57.9879 158.5146,0.8863 158.3376,0 c -0.474,1.1391 -15.369,37.7479 -18.838,62.7729 -3.513,25.225 20.872,96.152 21.261,97.265 0,0 12.573,-37.679 10.589,-70.008 l -0.011,0.012 z"
     fill="#9c917d"
     id="path4" />
  <path
     d="m 160.5446,159.9149 c 0,0 -7.953,-38.917 -25.833,-65.918 -17.738,-26.792 -55.692,-70.8115 -56.282,-71.4962 0.166,1.2212 5.566,40.3742 15.061,63.7902 9.577,23.595 66.158,72.845 67.04,73.59 z"
     fill="#8da635"
     id="path5" />
  <path
     d="m 65.4122,129.6659 c 20.0814,15.648 93.7064,30.005 94.8614,30.213 0,0 -26.343,-29.727 -55.328,-44.176 -28.758,-14.339 -83.6485,-33.474 -84.4874,-33.773 0.7601,0.984 25.0178,32.193 44.9524,47.713 l -0.0107,0.012 z"
     fill="#8da635"
     id="path6" />
  <path
     d="m 2.2921,160.0369 c 1.1392,0.474 59.5,0 59.5,0 0,0 97.1435,0.34 98.2565,-0.049 0,0 -37.679,-12.574 -70.008,-10.589 C 57.9638,151.3649 0.8863,159.8109 0,159.9879 l 0.7921,0.049 z"
     fill="#8da635"
     id="path7" />
</svg>
