<svg width="448" height="374" viewBox="0 0 448 374" fill="none" xmlns="http://www.w3.org/2000/svg">
<g clip-path="url(#clip0_3452_7448)">
<path d="M229.413 269.387C225.924 283.389 224.795 301.819 220.244 314.758C216.201 316.495 212.445 318.798 208.342 320.392C202.822 322.535 196.853 323.559 191.113 324.977C179.861 327.712 168.132 389.492 156.812 391.908C153.77 393.96 96.0266 395.613 96.0266 395.613C96.0266 395.613 91.691 392.081 87.945 389.917C85.9609 389.554 83.8148 389.791 81.9201 389.124L81.531 388.059C81.0936 383.169 80.6393 378.294 79.4768 373.509C82.3817 369.861 84.535 365.314 86.7633 361.236C93.431 351.95 95.3378 338.663 98.1436 327.794C99.729 321.651 101.725 315.35 102.605 309.067C106.684 302.631 109.826 288.945 112.267 281.2L126.564 272.31C134.747 267.119 143.073 262.164 151.541 257.453C154.045 256.784 156.544 255.663 158.982 254.757C161.919 249.242 166.433 244.475 168.739 238.639C172.272 229.695 172.852 219.215 174.597 209.815C177.267 195.789 180.143 181.804 183.227 167.865C185.124 157.327 187.232 142.76 190.801 132.937C193.51 135.498 196.159 138.049 198.288 141.134C198.317 141.267 198.344 141.4 198.378 141.528C200.009 148.246 206.495 152.957 208.545 159.596C210.249 165.113 199.825 213.558 197.377 221.332L196.688 221.938C196.877 223.404 197.425 224.325 198.184 225.542C201.58 230.285 229.06 267.375 229.413 269.387Z" fill="url(#paint0_linear_3452_7448)"/>
<path d="M131.847 281.591C137.014 279.492 142.024 276.895 147.053 274.481L135.811 353.126C132.009 358.098 127.098 362.637 122.799 367.205C116.211 374.201 109.78 381.364 103.117 388.286C100.816 390.675 97.9936 392.89 95.8573 395.374L95.0525 394.917C94.6295 391.719 106.573 366.749 108.61 362.163C111.24 356.247 114.181 350.304 116.291 344.183C120.24 332.729 122.697 320.462 125.711 308.723C128.002 299.802 130.81 290.764 131.845 281.594L131.847 281.591Z" fill="#3E6437"/>
<path d="M157.284 332.493C157.378 331.372 157.511 330.253 157.763 329.157C159.077 323.438 161.342 317.713 163.2 312.147C166.78 301.384 170.422 290.644 174.122 279.922C179.487 264.116 184.296 248.181 190.277 232.582C191.29 229.944 192.039 227.195 193.139 224.593C193.661 223.358 194.214 222.235 195.389 221.513L196.687 221.94C196.875 223.404 197.424 224.325 198.182 225.542C196.641 230.586 195.969 250.638 195.481 256.953C193.975 276.402 191.817 295.927 190.756 315.389C190.625 317.78 189.999 322.569 190.964 324.719C191.005 324.811 188.179 386.992 188.23 387.076C178.932 388.284 167.766 389.765 156.449 392.176L157.284 332.493Z" fill="#467943"/>
<path d="M188.229 387.076L190.959 324.718C189.995 322.568 190.621 317.78 190.752 315.389C191.812 295.927 193.973 276.402 195.476 256.952C195.964 250.637 196.636 230.586 198.178 225.542C201.574 230.287 230.169 265.481 230.522 267.493C227.035 281.498 217.23 384.66 217.23 384.66C217.23 384.66 210.213 383.782 205.147 384.66C198.178 385.868 193.967 385.656 188.229 387.076Z" fill="#3E6437"/>
<path d="M458.252 322.76C458.324 322.446 458.402 322.112 458.423 321.789C458.904 314.524 446.956 267.211 442.618 262.024C442.698 261.71 442.727 261.413 442.705 261.089C442.437 257.318 438.082 249.268 435.162 246.642C435.179 246.935 435.208 247.077 435.17 247.353C434.962 248.768 433.717 249.86 432.683 250.718C432.738 253.726 429.889 259.412 427.895 261.57C427.557 261.935 426.638 262.005 426.143 262.121C426.856 262.993 426.991 263.017 426.873 264.201C426.59 266.889 419.591 288.252 418.368 289.291C418.255 289.388 418.129 289.477 418.006 289.569C416.921 283.988 400.091 267.923 395.629 261.993C390.847 254.243 382.511 244.93 380.116 236.238C379.493 230.638 377.685 225.262 376.047 219.897C374.932 211.111 372.243 202.204 370.118 193.596C368.709 188.199 367.378 182.783 366.131 177.345C364.717 171.011 363.627 164.548 361.109 158.535C357.414 152.998 347.002 143.147 341.874 138.288C339.629 132.684 337.671 126.977 335.702 121.274C332.062 101.242 297.568 55.595 283.43 40.4768L282.741 40.4067C280.735 42.1969 279.312 45.0427 277.925 47.3256C270.455 59.6318 265.43 72.2375 260.708 85.7685L242.087 93.2817C241.106 98.6858 240.33 104.22 239.095 109.562C238.759 111.253 238.498 113 238.071 114.664L205.991 128.765C200.928 130.947 195.824 133.483 190.647 135.343C193.356 137.904 196.005 140.455 198.134 143.54C198.163 143.673 198.19 143.806 198.223 143.934C199.855 150.652 206.341 155.363 208.391 162.002C210.094 167.52 199.671 215.964 197.223 223.738L196.534 224.344C196.723 225.811 197.271 226.731 198.03 227.949C201.426 232.691 230.523 251.791 229.315 269.909C223.273 309.77 217.073 384.66 217.073 384.66C217.073 384.66 386.128 381.504 449.726 378.309C449.726 378.309 449.09 379.841 450.098 378.693C451.105 377.546 451.328 375.988 451.594 374.528C452.867 367.346 453.046 359.966 453.989 352.73C455.028 344.78 456.867 337.064 458.298 329.2C458.612 327.485 459.303 324.253 458.259 322.748L458.252 322.76Z" fill="#8EA352"/>
<path d="M255.898 178.113C264.68 183.481 274.323 189.675 281.467 197.152C285.945 201.841 289.408 207.54 293.041 212.884C297.137 218.965 301.299 225.002 305.523 230.995C309.114 236.165 312.143 241.997 316.51 246.546C324.548 254.926 335.034 262.285 344.604 268.873C348.952 271.864 353.904 274.666 357.814 278.193C361.306 290.584 363.597 303.441 367.464 315.694C376.314 319.612 420.17 342.162 425.992 342.676L426.365 343.06C428.491 345.773 439.557 355.76 439.57 359.2C442.119 361.21 450.445 378.621 450.445 378.621H426.365L353.776 381.037L303.341 382.245C303.341 382.245 303.254 329.416 303.128 320.477L303.341 320.137C302.357 308.594 302.604 296.766 302.584 285.192C297.161 291.536 291.279 297.551 285.5 303.571C284.553 289.086 278.632 274.693 275.889 260.425L275.713 259.934C272.373 248.643 270.234 237.083 267.525 225.64L255.905 178.108L255.898 178.113Z" fill="#B0CE5D"/>
<path d="M380.274 233.822C373.077 227.002 363.366 204.426 360.401 194.749C360.578 184.933 358.845 164.246 361.266 156.12C363.784 162.135 364.874 168.597 366.288 174.929C367.535 180.367 368.865 185.781 370.276 191.18C372.398 199.788 375.09 208.695 376.204 217.481C377.843 222.847 379.65 228.222 380.274 233.822Z" fill="#8BBF56"/>
<path d="M361.276 250.043C369.653 255.411 377.954 261.076 386.507 266.147C389.876 275.733 402.412 319.716 402.073 327.818C398.095 323.124 395.669 312.212 393.779 306.16C387.089 302.764 380.371 299.099 374.566 294.313C370.81 279.369 365.061 264.985 361.279 250.043H361.276Z" fill="#698646"/>
<path d="M283.591 38.0644C297.724 53.1802 332.223 98.8294 335.86 118.859C337.829 124.565 339.787 130.269 342.032 135.874C347.158 140.732 357.572 150.583 361.267 156.12C358.845 164.245 360.578 184.934 360.404 194.747C354.002 186.734 345.814 180.924 338.187 174.2C335.836 189.529 335.372 209.119 334.487 224.875C332.032 216.057 330.613 206.956 328.921 197.97C327.237 188.864 325.306 179.815 323.124 170.816C319.049 166.511 314.414 162.592 310.134 158.481C302.294 150.989 294.683 143.271 287.298 135.33L287.238 134.327C288.325 128.699 283.552 99.2643 282.803 90.9563C281.271 73.9731 283.479 55.2626 283.591 38.0644Z" fill="#B0CE5D"/>
<path d="M310.442 89.9419C315.913 98.9094 326.052 115.989 334.227 121.988C334.322 122.058 334.418 122.121 334.513 122.188L334.252 122.297L335.281 121.857C335.172 120.777 335.283 120.144 335.726 119.147C335.769 119.05 335.815 118.956 335.859 118.859C337.828 124.565 339.786 130.269 342.031 135.874C333.391 132.238 324.829 128.858 316.322 124.875C314.004 113.305 312.491 101.564 310.442 89.9419Z" fill="#8BBF56"/>
<path d="M292.759 210.528C287.749 207.146 282.938 203.585 278.085 199.99C270.301 211.434 264.459 224.544 258.113 236.846C255.293 242.31 252.39 249.456 248.209 253.979C244.149 258.361 230.523 265.077 229.314 268.701C228.959 266.688 201.522 231.256 196.689 226.424C195.931 225.207 196.878 223.404 196.689 221.938L197.378 221.331C199.826 213.555 210.252 165.113 208.546 159.595C206.497 152.957 200.01 148.246 198.379 141.527C198.345 141.397 198.318 141.266 198.289 141.134C196.16 138.051 193.514 135.497 190.802 132.937C195.981 131.077 201.085 128.54 206.146 126.358L238.226 112.257C238.654 110.593 238.915 108.846 239.25 107.155C240.485 101.814 241.261 96.2791 242.242 90.8749L260.863 83.3618C265.583 69.8308 270.61 57.2226 278.08 44.9189C279.467 42.6335 280.891 39.7901 282.897 38L283.585 38.0701C283.477 55.2682 281.268 73.9811 282.8 90.9643C283.549 99.2747 288.322 128.704 287.235 134.335L287.295 135.34C287.508 147.386 288.641 159.361 289.581 171.363C290.608 184.449 291.503 197.468 292.759 210.535V210.528Z" fill="#698646"/>
<path d="M287.237 134.328C279.199 137.222 266.214 148.838 259.102 154.486C257.168 160.504 255.368 166.558 253.695 172.658C248.833 176.484 243.944 180.311 238.675 183.572C237.73 194.303 236.715 205.025 235.637 215.741C235.043 221.853 234.238 228.035 234.035 234.174C232.278 227.685 232.288 220.457 231.647 213.755C230.502 201.785 229.091 189.829 228.578 177.806C222.435 169.717 216.093 161.786 209.551 154.015C206.008 149.731 202.407 144.871 198.289 141.134C196.16 138.051 193.514 135.497 190.802 132.937C195.981 131.077 201.085 128.54 206.146 126.358L238.226 112.257C238.654 110.593 238.915 108.846 239.25 107.155C240.485 101.814 241.261 96.2791 242.242 90.8749L260.863 83.3618C265.583 69.8308 270.61 57.2226 278.08 44.9189C279.467 42.6335 280.891 39.7901 282.897 38L283.585 38.0701C283.477 55.2682 281.268 73.9811 282.8 90.9643C283.549 99.2747 288.322 128.704 287.235 134.335L287.237 134.328Z" fill="#8BBF56"/>
<path d="M259.646 107.125L244.783 126.126C241.141 130.754 236.94 135.429 234.202 140.649C234.656 130.993 237.373 121.806 238.228 112.256C238.656 110.592 238.917 108.845 239.253 107.154C240.488 101.813 241.264 96.2782 242.245 90.874L260.866 83.3608C261.149 91.1494 260.085 99.3197 259.646 107.125Z" fill="#609E51"/>
<path d="M80.515 298.671C89.518 296.174 96.5041 279.505 112.64 286.859C127.178 293.48 132.994 310.397 138.026 323.212C146.909 321.17 155.205 320.449 163.419 324.862C172.2 329.58 177.341 338.554 182.221 346.34C188.24 348.491 193.661 350.649 199.044 353.925C201.162 358.285 202.651 362.576 204 367.178C202.384 371.487 200.997 375.616 198.045 379.354C186.471 385.035 172.073 385.468 159.118 385.664C133.674 386.05 108.16 385.785 82.7101 385.773C65.9383 385.762 48.2949 386.748 31.6694 384.695C24.9187 383.858 13.5489 381.961 8.82149 377.035C7.28175 375.426 6.75362 373.927 7.10357 371.827C7.71437 368.165 11.8627 366.094 14.9677 364.202C20.904 362.461 26.7003 360.315 32.5093 358.262C33.1901 353.348 33.82 347.378 36.0278 342.833C39.8453 334.966 46.2398 332.181 54.5621 329.003C54.3648 320.784 55.2938 313.528 57.6925 305.581C60.0975 302.362 62.5152 299.236 66.5809 297.575C71.3338 295.631 76.0167 297.016 80.5341 298.677L80.515 298.671Z" fill="#3E6437"/>
<path d="M80.7799 298.62C89.7637 296.132 96.7348 279.526 112.836 286.852C127.343 293.448 133.146 310.301 138.168 323.069C147.031 321.035 155.31 320.316 163.506 324.712C172.268 329.412 177.398 338.353 182.268 346.11C188.274 348.253 193.683 350.402 199.054 353.666C201.168 358.01 202.654 362.285 204 366.87C202.387 371.162 201.003 375.277 198.057 379C172.789 352.057 165.354 364.256 143.355 349.489C138.231 350.833 133.165 352.419 128.092 353.907C123.311 344.8 117.559 339.123 108.664 333.09C107.515 327.166 105.782 316.949 100.697 312.651C98.8237 311.065 98.1253 311.387 95.7444 311.537C91.9986 313.967 91.0589 317.702 89.5542 321.471C79.453 314.829 69.39 309.962 58 305.503C60.3999 302.297 62.8125 299.183 66.8695 297.528C71.6121 295.592 76.2849 296.971 80.7926 298.625L80.7799 298.62Z" fill="#479651"/>
</g>
<defs>
<linearGradient id="paint0_linear_3452_7448" x1="71.6659" y1="270.477" x2="194.3" y2="259.868" gradientUnits="userSpaceOnUse">
<stop stop-color="#55723D"/>
<stop offset="1" stop-color="#799449"/>
</linearGradient>
<clipPath id="clip0_3452_7448">
<rect width="448" height="374" fill="white"/>
</clipPath>
</defs>
</svg>
