<?xml version="1.0" encoding="UTF-8" standalone="no"?>
<svg
   width="87.15255"
   height="115.04388"
   viewBox="0 0 87.15255 115.04388"
   fill="none"
   version="1.1"
   id="svg1"
   sodipodi:docname="pin2.svg"
   inkscape:version="1.4 (e7c3feb100, 2024-10-09)"
   xmlns:inkscape="http://www.inkscape.org/namespaces/inkscape"
   xmlns:sodipodi="http://sodipodi.sourceforge.net/DTD/sodipodi-0.dtd"
   xmlns="http://www.w3.org/2000/svg"
   xmlns:svg="http://www.w3.org/2000/svg">
  <defs
     id="defs1" />
  <sodipodi:namedview
     id="namedview1"
     pagecolor="#ffffff"
     bordercolor="#000000"
     borderopacity="0.25"
     inkscape:showpageshadow="2"
     inkscape:pageopacity="0.0"
     inkscape:pagecheckerboard="0"
     inkscape:deskcolor="#d1d1d1"
     inkscape:zoom="5.9701493"
     inkscape:cx="41.875"
     inkscape:cy="55.1075"
     inkscape:window-width="1920"
     inkscape:window-height="1011"
     inkscape:window-x="1920"
     inkscape:window-y="32"
     inkscape:window-maximized="1"
     inkscape:current-layer="svg1" />
  <path
     fill-rule="evenodd"
     clip-rule="evenodd"
     d="M 42.6068,0.38898369 C 56.7082,-1.6085163 70.7093,4.1827837 79.2825,15.559184 c 8.4055,11.4701 10.2145,26.6102 4.7675,39.9099 -5.6097,13.1326 -17.9431,22.6245 -30.9619,28.5544 -7.5241,3.4476 -15.413,5.9974 -23.5054,7.5964 -0.8127,0.113 -1.6376,0.075 -2.4339,-0.111 -0.7089,-0.322 -1.3256,-0.818 -1.7943,-1.444 -7.2322,-10.2371 -12.5628,-21.7285 -15.7355,-33.9213 -2.6625,-10.1835 -2.1505,-20.9802 1.4665,-30.9238 C 16.472,11.865784 28.5054,2.3864837 42.6068,0.38898369 Z M 33.9324,40.878484 c 0.015,5.498 3.3085,10.4109 8.3428,12.445 3.2886,1.3561 6.9906,1.321 10.2813,-0.0974 3.2907,-1.4184 5.8966,-4.1023 7.237,-7.4537 2.0815,-5.1013 0.9272,-10.9363 -2.924,-14.7807 -3.8513,-3.8444 -9.6397,-4.9398 -14.6625,-2.7747 -5.0229,2.165 -8.2895,7.1635 -8.2746,12.6615 z"
     fill="#dc7e84"
     id="path1" />
  <ellipse
     cx="-110.54388"
     cy="26"
     rx="4.5"
     ry="26"
     transform="rotate(-90)"
     fill="#dc7e84"
     fill-opacity="0.6"
     id="ellipse1" />
</svg>
